<svg width="435" height="155" viewBox="0 0 435 155" fill="none" xmlns="http://www.w3.org/2000/svg">
<path d="M23 100C35.1503 100 45 90.1503 45 78C45 65.8497 35.1503 56 23 56C10.8497 56 1 65.8497 1 78C1 90.1503 10.8497 100 23 100Z" stroke="white"/>
<path d="M15.6454 127V117.2H14.4414L12.0054 119.09V120.294H12.1454L14.3994 118.53H14.4554V127H15.6454ZM18.1626 122.072C18.1626 125.446 19.2966 127.126 21.5786 127.126C23.8606 127.126 24.9946 125.446 24.9946 122.072C24.9946 118.712 23.8606 117.032 21.5786 117.032C19.2966 117.032 18.1626 118.712 18.1626 122.072ZM23.7766 122.072C23.7766 123.234 23.6646 124.088 23.3426 124.858C23.0486 125.628 22.4326 126.062 21.5786 126.062C20.7246 126.062 20.1226 125.628 19.8006 124.858C19.5066 124.088 19.3806 123.234 19.3806 122.072C19.3806 119.426 20.1086 118.096 21.5786 118.096C23.0486 118.096 23.7766 119.426 23.7766 122.072ZM26.9536 122.072C26.9536 125.446 28.0876 127.126 30.3696 127.126C32.6516 127.126 33.7856 125.446 33.7856 122.072C33.7856 118.712 32.6516 117.032 30.3696 117.032C28.0876 117.032 26.9536 118.712 26.9536 122.072ZM32.5676 122.072C32.5676 123.234 32.4556 124.088 32.1336 124.858C31.8396 125.628 31.2236 126.062 30.3696 126.062C29.5156 126.062 28.9136 125.628 28.5916 124.858C28.2976 124.088 28.1716 123.234 28.1716 122.072C28.1716 119.426 28.8996 118.096 30.3696 118.096C31.8396 118.096 32.5676 119.426 32.5676 122.072Z" fill="white"/>
<path d="M128.5 125C154.734 125 176 103.734 176 77.5C176 51.2665 154.734 30 128.5 30C102.266 30 81 51.2665 81 77.5C81 103.734 102.266 125 128.5 125Z" stroke="white"/>
<path d="M119.197 152.126C121.325 152.126 122.459 150.824 122.459 148.794C122.459 147.856 122.193 147.086 121.647 146.498C121.101 145.896 120.359 145.602 119.393 145.602C118.539 145.602 117.867 145.868 117.377 146.4H117.321L117.545 143.278H121.997V142.2H116.509L116.131 147.618H117.363C117.825 146.974 118.441 146.652 119.211 146.652C120.569 146.652 121.255 147.534 121.255 148.836C121.255 150.194 120.611 151.062 119.197 151.062C117.923 151.062 117.153 150.278 117.153 149.228H115.963C115.963 150.068 116.257 150.768 116.845 151.314C117.433 151.86 118.217 152.126 119.197 152.126ZM124.345 147.072C124.345 150.446 125.479 152.126 127.761 152.126C130.043 152.126 131.177 150.446 131.177 147.072C131.177 143.712 130.043 142.032 127.761 142.032C125.479 142.032 124.345 143.712 124.345 147.072ZM129.959 147.072C129.959 148.234 129.847 149.088 129.525 149.858C129.231 150.628 128.615 151.062 127.761 151.062C126.907 151.062 126.305 150.628 125.983 149.858C125.689 149.088 125.563 148.234 125.563 147.072C125.563 144.426 126.291 143.096 127.761 143.096C129.231 143.096 129.959 144.426 129.959 147.072ZM133.136 147.072C133.136 150.446 134.27 152.126 136.552 152.126C138.834 152.126 139.968 150.446 139.968 147.072C139.968 143.712 138.834 142.032 136.552 142.032C134.27 142.032 133.136 143.712 133.136 147.072ZM138.75 147.072C138.75 148.234 138.638 149.088 138.316 149.858C138.022 150.628 137.406 151.062 136.552 151.062C135.698 151.062 135.096 150.628 134.774 149.858C134.48 149.088 134.354 148.234 134.354 147.072C134.354 144.426 135.082 143.096 136.552 143.096C138.022 143.096 138.75 144.426 138.75 147.072Z" fill="white"/>
<path d="M3.88363 11V6.73H8.33562V5.61H3.88363V2.32H8.81163V1.2H2.66563V11H3.88363ZM12.0825 11V7.528C12.0825 5.778 12.7405 4.896 14.0565 4.896H14.6165V3.762H13.9725C13.0905 3.762 12.3765 4.252 12.0825 5.05H12.0265L11.9285 3.846H10.9065V11H12.0825ZM18.7761 11.126C19.5461 11.126 20.2181 10.93 20.7781 10.524C21.3381 10.118 21.6601 9.586 21.7581 8.928H20.5821C20.4001 9.67 19.7281 10.076 18.7761 10.076C17.4741 10.076 16.7601 9.18 16.7601 7.78H21.8561V7.206C21.8561 6.184 21.5901 5.344 21.0441 4.7C20.4981 4.042 19.7421 3.72 18.7621 3.72C17.7121 3.72 16.9001 4.07 16.3541 4.756C15.8081 5.442 15.5281 6.338 15.5281 7.43C15.5281 8.522 15.8081 9.418 16.3821 10.104C16.9561 10.79 17.7541 11.126 18.7761 11.126ZM16.7741 6.8C16.8161 5.61 17.4881 4.77 18.7621 4.77C19.9801 4.77 20.6381 5.61 20.6381 6.8H16.7741ZM29.6787 14.206V3.846H28.6567L28.5027 4.84H28.4467C27.9987 4.098 27.2847 3.72 26.2907 3.72C24.4007 3.72 23.2667 5.12 23.2527 7.43C23.2667 8.536 23.5327 9.418 24.0507 10.104C24.5687 10.79 25.3247 11.126 26.2907 11.126C27.2847 11.126 27.9987 10.748 28.4467 10.006H28.5027V14.206H29.6787ZM26.4867 10.076C25.0867 10.076 24.4427 8.984 24.4427 7.43C24.4427 5.862 25.0867 4.77 26.4867 4.77C27.8307 4.77 28.5307 5.904 28.5307 7.43C28.5307 8.956 27.8307 10.076 26.4867 10.076ZM36.5929 8.2C36.5929 9.446 36.0049 10.062 34.8429 10.062C33.6809 10.062 33.0929 9.446 33.0929 8.2V3.846H31.9169V8.396C31.9169 9.208 32.1829 9.866 32.7289 10.37C33.2749 10.86 33.9749 11.112 34.8429 11.112C35.7109 11.112 36.4109 10.86 36.9569 10.37C37.5029 9.866 37.7689 9.208 37.7689 8.396V3.846H36.5929V8.2ZM42.8386 11.126C43.6086 11.126 44.2806 10.93 44.8406 10.524C45.4006 10.118 45.7226 9.586 45.8206 8.928H44.6446C44.4626 9.67 43.7906 10.076 42.8386 10.076C41.5366 10.076 40.8226 9.18 40.8226 7.78H45.9186V7.206C45.9186 6.184 45.6526 5.344 45.1066 4.7C44.5606 4.042 43.8046 3.72 42.8246 3.72C41.7746 3.72 40.9626 4.07 40.4166 4.756C39.8706 5.442 39.5906 6.338 39.5906 7.43C39.5906 8.522 39.8706 9.418 40.4446 10.104C41.0186 10.79 41.8166 11.126 42.8386 11.126ZM40.8366 6.8C40.8786 5.61 41.5506 4.77 42.8246 4.77C44.0426 4.77 44.7006 5.61 44.7006 6.8H40.8366ZM49.0512 11V7.052C49.0512 5.61 49.7512 4.77 50.9412 4.77C52.0472 4.77 52.5932 5.358 52.5932 6.534V11H53.7692V6.352C53.7692 4.714 52.8312 3.72 51.2632 3.72C50.2132 3.72 49.4852 4.14 49.0512 4.966H48.9952L48.8972 3.846H47.8752V11H49.0512ZM58.8347 11.126C60.6407 11.126 61.6347 10.16 61.7887 8.592H60.6127C60.5147 9.544 59.8847 10.09 58.8207 10.09C57.4207 10.09 56.7767 9.04 56.7767 7.43C56.7767 5.848 57.4207 4.77 58.8207 4.77C59.8427 4.77 60.5147 5.344 60.5847 6.296H61.7607C61.6487 4.77 60.6547 3.72 58.8207 3.72C56.7347 3.72 55.5867 5.148 55.5867 7.43C55.5867 9.726 56.7207 11.126 58.8347 11.126ZM65.4876 14.206L69.4496 3.986V3.846H68.2176L66.1176 9.46H66.0616L63.8916 3.846H62.6316V3.986L65.5016 10.916L65.5156 10.944L64.2976 14.066V14.206H65.4876Z" fill="white"/>
<path d="M248.41 11.126C250.692 11.126 252.078 10.062 252.078 8.312C252.078 6.814 251.154 5.876 249.292 5.498L247.962 5.218C246.856 4.98 246.296 4.49 246.296 3.762C246.296 2.712 246.996 2.194 248.396 2.194C249.852 2.194 250.608 2.88 250.664 3.986H251.91C251.896 3.118 251.574 2.418 250.944 1.886C250.314 1.34 249.474 1.074 248.424 1.074C246.282 1.074 245.022 2.096 245.022 3.762C245.022 5.218 245.89 6.03 247.626 6.408L249.054 6.716C250.188 6.954 250.804 7.416 250.804 8.312C250.804 9.446 250.006 10.02 248.41 10.02C246.898 10.02 246.016 9.292 245.946 8.06H244.7C244.756 9.95 246.072 11.126 248.41 11.126ZM256.794 11.126C257.564 11.126 258.236 10.93 258.796 10.524C259.356 10.118 259.678 9.586 259.776 8.928H258.6C258.418 9.67 257.746 10.076 256.794 10.076C255.492 10.076 254.778 9.18 254.778 7.78H259.874V7.206C259.874 6.184 259.608 5.344 259.062 4.7C258.516 4.042 257.76 3.72 256.78 3.72C255.73 3.72 254.918 4.07 254.372 4.756C253.826 5.442 253.546 6.338 253.546 7.43C253.546 8.522 253.826 9.418 254.4 10.104C254.974 10.79 255.772 11.126 256.794 11.126ZM254.792 6.8C254.834 5.61 255.506 4.77 256.78 4.77C257.998 4.77 258.656 5.61 258.656 6.8H254.792ZM263.006 11V7.052C263.006 5.61 263.706 4.77 264.896 4.77C266.002 4.77 266.548 5.358 266.548 6.534V11H267.724V6.352C267.724 4.714 266.786 3.72 265.218 3.72C264.168 3.72 263.44 4.14 263.006 4.966H262.95L262.852 3.846H261.83V11H263.006ZM272.482 11.126C272.888 11.126 273.252 11.084 273.546 11.014V10.006H273.406C273.196 10.062 272.972 10.09 272.706 10.09C272.048 10.09 271.768 9.796 271.768 9.11V4.84H273.518V3.846H271.768V1.928H271.628L270.62 2.32V3.846H269.402V4.84H270.592V9.208C270.592 10.454 271.124 11.126 272.482 11.126ZM276.022 2.474C276.54 2.474 276.834 2.152 276.834 1.648C276.834 1.144 276.54 0.836 276.022 0.836C275.476 0.836 275.21 1.102 275.21 1.648C275.21 2.194 275.476 2.474 276.022 2.474ZM276.61 11V3.846H275.434V11H276.61ZM286.829 3.72C285.723 3.72 284.953 4.14 284.519 4.966H284.463C284.057 4.14 283.343 3.72 282.307 3.72C281.313 3.72 280.599 4.14 280.165 4.966H280.109L280.011 3.846H278.989V11H280.165V7.052C280.165 5.61 280.865 4.77 281.985 4.77C283.035 4.77 283.567 5.358 283.567 6.534V11H284.743V7.052C284.743 5.61 285.415 4.77 286.535 4.77C287.585 4.77 288.117 5.358 288.117 6.534V11H289.293V6.352C289.293 4.728 288.397 3.72 286.829 3.72ZM294.364 11.126C295.134 11.126 295.806 10.93 296.366 10.524C296.926 10.118 297.248 9.586 297.346 8.928H296.17C295.988 9.67 295.316 10.076 294.364 10.076C293.062 10.076 292.348 9.18 292.348 7.78H297.444V7.206C297.444 6.184 297.178 5.344 296.632 4.7C296.086 4.042 295.33 3.72 294.35 3.72C293.3 3.72 292.488 4.07 291.942 4.756C291.396 5.442 291.116 6.338 291.116 7.43C291.116 8.522 291.396 9.418 291.97 10.104C292.544 10.79 293.342 11.126 294.364 11.126ZM292.362 6.8C292.404 5.61 293.076 4.77 294.35 4.77C295.568 4.77 296.226 5.61 296.226 6.8H292.362ZM300.577 11V7.052C300.577 5.61 301.277 4.77 302.467 4.77C303.573 4.77 304.119 5.358 304.119 6.534V11H305.295V6.352C305.295 4.714 304.357 3.72 302.789 3.72C301.739 3.72 301.011 4.14 300.577 4.966H300.521L300.423 3.846H299.401V11H300.577ZM310.052 11.126C310.458 11.126 310.822 11.084 311.116 11.014V10.006H310.976C310.766 10.062 310.542 10.09 310.276 10.09C309.618 10.09 309.338 9.796 309.338 9.11V4.84H311.088V3.846H309.338V1.928H309.198L308.19 2.32V3.846H306.972V4.84H308.162V9.208C308.162 10.454 308.694 11.126 310.052 11.126Z" fill="white"/>
<path d="M243.98 71.072C243.98 74.446 245.114 76.126 247.396 76.126C249.678 76.126 250.812 74.446 250.812 71.072C250.812 67.712 249.678 66.032 247.396 66.032C245.114 66.032 243.98 67.712 243.98 71.072ZM249.594 71.072C249.594 72.234 249.482 73.088 249.16 73.858C248.866 74.628 248.25 75.062 247.396 75.062C246.542 75.062 245.94 74.628 245.618 73.858C245.324 73.088 245.198 72.234 245.198 71.072C245.198 68.426 245.926 67.096 247.396 67.096C248.866 67.096 249.594 68.426 249.594 71.072Z" fill="white"/>
<path d="M432.463 76V66.2H431.259L428.823 68.09V69.294H428.963L431.217 67.53H431.273V76H432.463Z" fill="white"/>
<path d="M323.98 71.072C323.98 74.446 325.114 76.126 327.396 76.126C329.678 76.126 330.812 74.446 330.812 71.072C330.812 67.712 329.678 66.032 327.396 66.032C325.114 66.032 323.98 67.712 323.98 71.072ZM329.594 71.072C329.594 72.234 329.482 73.088 329.16 73.858C328.866 74.628 328.25 75.062 327.396 75.062C326.542 75.062 325.94 74.628 325.618 73.858C325.324 73.088 325.198 72.234 325.198 71.072C325.198 68.426 325.926 67.096 327.396 67.096C328.866 67.096 329.594 68.426 329.594 71.072ZM333.457 76.126C333.975 76.126 334.283 75.79 334.283 75.272C334.283 74.768 333.975 74.432 333.457 74.432C332.939 74.432 332.631 74.768 332.631 75.272C332.631 75.79 332.911 76.126 333.457 76.126ZM339.271 76.126C341.399 76.126 342.533 74.824 342.533 72.794C342.533 71.856 342.267 71.086 341.721 70.498C341.175 69.896 340.433 69.602 339.467 69.602C338.613 69.602 337.941 69.868 337.451 70.4H337.395L337.619 67.278H342.071V66.2H336.583L336.205 71.618H337.437C337.899 70.974 338.515 70.652 339.285 70.652C340.643 70.652 341.329 71.534 341.329 72.836C341.329 74.194 340.685 75.062 339.271 75.062C337.997 75.062 337.227 74.278 337.227 73.228H336.037C336.037 74.068 336.331 74.768 336.919 75.314C337.507 75.86 338.291 76.126 339.271 76.126ZM344.419 71.072C344.419 74.446 345.553 76.126 347.835 76.126C350.117 76.126 351.251 74.446 351.251 71.072C351.251 67.712 350.117 66.032 347.835 66.032C345.553 66.032 344.419 67.712 344.419 71.072ZM350.033 71.072C350.033 72.234 349.921 73.088 349.599 73.858C349.305 74.628 348.689 75.062 347.835 75.062C346.981 75.062 346.379 74.628 346.057 73.858C345.763 73.088 345.637 72.234 345.637 71.072C345.637 68.426 346.365 67.096 347.835 67.096C349.305 67.096 350.033 68.426 350.033 71.072Z" fill="white"/>
<path d="M430.704 41.88L431.376 38.568H434.432L434.672 37.416H431.616L432.288 34.104H431.008L430.336 37.416H427.216L426.976 38.568H430.096L429.424 41.88H430.704Z" fill="white"/>
<path d="M250.008 38.936L250.264 37.688H245.368L245.112 38.936H250.008Z" fill="white"/>
<rect x="243" y="50" width="191" height="10" fill="url(#paint0_linear)"/>
<defs>
<linearGradient id="paint0_linear" x1="434" y1="54.9999" x2="243" y2="54.9999" gradientUnits="userSpaceOnUse">
<stop stop-color="#A8E8EC"/>
<stop offset="0.5" stop-color="#7A6A7D"/>
<stop offset="1" stop-color="#FFC1A6"/>
</linearGradient>
</defs>
</svg>
