<svg width="835" height="150" viewBox="0 0 835 150" fill="none" xmlns="http://www.w3.org/2000/svg">
<rect width="835" height="150" fill="#452947"/>
<path d="M128.522 103C129.978 103 131.126 102.538 131.952 101.614C132.778 100.69 133.198 99.514 133.198 98.1C133.198 96.63 132.778 95.44 131.924 94.544C131.07 93.648 129.936 93.2 128.522 93.2H125.218V103H128.522ZM126.8 94.684H128.396C130.426 94.684 131.518 96.014 131.518 98.1C131.518 100.214 130.426 101.53 128.396 101.53H126.8V94.684ZM137.819 103.126C138.659 103.126 139.359 102.902 139.933 102.468C140.507 102.034 140.857 101.474 140.955 100.802H139.401C139.219 101.46 138.687 101.782 137.819 101.782C136.685 101.782 136.055 101.026 136.055 99.836H141.053V99.164C141.053 98.142 140.759 97.302 140.185 96.644C139.611 95.986 138.813 95.65 137.791 95.65C136.699 95.65 135.859 96 135.271 96.7C134.697 97.4 134.403 98.296 134.403 99.388C134.403 100.48 134.711 101.376 135.313 102.076C135.915 102.776 136.755 103.126 137.819 103.126ZM136.069 98.702C136.111 97.694 136.685 97.008 137.791 97.008C138.841 97.008 139.401 97.694 139.415 98.702H136.069ZM144.227 103V92.64H142.631V103H144.227ZM145.907 93.662C145.907 94.292 146.271 94.67 146.929 94.67C147.251 94.67 147.503 94.586 147.685 94.404C147.867 94.222 147.951 93.97 147.951 93.662C147.951 93.354 147.867 93.116 147.685 92.934C147.503 92.752 147.251 92.668 146.929 92.668C146.257 92.668 145.907 93.046 145.907 93.662ZM147.727 103V95.776H146.131V103H147.727ZM153.313 103L155.875 95.916V95.776H154.251L152.417 101.348H152.361L150.471 95.776H148.833V95.916L151.437 103H153.313ZM159.831 103.126C160.671 103.126 161.371 102.902 161.945 102.468C162.519 102.034 162.869 101.474 162.967 100.802H161.413C161.231 101.46 160.699 101.782 159.831 101.782C158.697 101.782 158.067 101.026 158.067 99.836H163.065V99.164C163.065 98.142 162.771 97.302 162.197 96.644C161.623 95.986 160.825 95.65 159.803 95.65C158.711 95.65 157.871 96 157.283 96.7C156.709 97.4 156.415 98.296 156.415 99.388C156.415 100.48 156.723 101.376 157.325 102.076C157.927 102.776 158.767 103.126 159.831 103.126ZM158.081 98.702C158.123 97.694 158.697 97.008 159.803 97.008C160.853 97.008 161.413 97.694 161.427 98.702H158.081ZM166.183 103V99.472C166.183 98.002 166.813 97.162 168.031 97.162H168.647V95.678H168.059C167.163 95.678 166.477 96.154 166.183 96.924H166.127L165.987 95.776H164.643V103H166.183ZM172.714 106.206L176.55 95.916V95.776H174.856L172.98 101.208H172.924L171.048 95.776H169.382V95.916L172.014 102.958L172.182 102.972L171.034 106.066V106.206H172.714Z" fill="white"/>
<circle cx="105" cy="99" r="11.5" fill="url(#paint0_linear)" stroke="url(#paint1_linear)"/>
<path d="M101.167 105.999C102.363 105.999 103.333 105.029 103.333 103.833C103.333 102.636 102.363 101.666 101.167 101.666C99.97 101.666 99 102.636 99 103.833C99 105.029 99.97 105.999 101.167 105.999Z" stroke="#136F63" stroke-miterlimit="10" stroke-linecap="round" stroke-linejoin="round"/>
<path d="M99 93H101.6V99.9333" stroke="#136F63" stroke-miterlimit="10" stroke-linecap="round" stroke-linejoin="round"/>
<path d="M105.066 104.268H112" stroke="#136F63" stroke-miterlimit="10" stroke-linecap="round" stroke-linejoin="round"/>
<path d="M111.134 95.5996H104.2V100.8H111.134V95.5996Z" stroke="#136F63" stroke-miterlimit="10" stroke-linecap="round" stroke-linejoin="round"/>
<path d="M607.55 103L609.454 95.748H609.51L611.372 103H613.29L615.642 93.34V93.2H613.948L612.338 100.606H612.282L610.35 93.2H608.586L606.682 100.606H606.626L604.988 93.2H603.294V93.34L605.632 103H607.55ZM618.521 103.126C619.487 103.126 620.201 102.804 620.649 102.146H620.705L620.817 103H622.217V98.184C622.217 97.442 621.951 96.84 621.419 96.364C620.887 95.888 620.159 95.65 619.235 95.65C617.443 95.65 616.337 96.644 616.337 98.044H617.849C617.863 97.428 618.367 96.966 619.207 96.966C620.159 96.966 620.635 97.47 620.635 98.198V98.87C620.103 98.716 619.543 98.632 618.955 98.632C616.981 98.632 616.001 99.528 616.001 100.872C616.001 101.53 616.225 102.062 616.673 102.496C617.135 102.916 617.751 103.126 618.521 103.126ZM618.885 101.852C618.045 101.852 617.597 101.432 617.597 100.816C617.597 100.158 618.115 99.78 619.067 99.78C619.613 99.78 620.145 99.864 620.635 100.032V100.27C620.635 101.152 619.935 101.852 618.885 101.852ZM625.66 103V99.472C625.66 98.002 626.29 97.162 627.508 97.162H628.124V95.678H627.536C626.64 95.678 625.954 96.154 625.66 96.924H625.604L625.464 95.776H624.12V103H625.66ZM631.566 103V99.472C631.566 98.002 632.196 97.162 633.414 97.162H634.03V95.678H633.442C632.546 95.678 631.86 96.154 631.566 96.924H631.51L631.37 95.776H630.026V103H631.566ZM637.443 103.126C638.409 103.126 639.123 102.804 639.571 102.146H639.627L639.739 103H641.139V98.184C641.139 97.442 640.873 96.84 640.341 96.364C639.809 95.888 639.081 95.65 638.157 95.65C636.365 95.65 635.259 96.644 635.259 98.044H636.771C636.785 97.428 637.289 96.966 638.129 96.966C639.081 96.966 639.557 97.47 639.557 98.198V98.87C639.025 98.716 638.465 98.632 637.877 98.632C635.903 98.632 634.923 99.528 634.923 100.872C634.923 101.53 635.147 102.062 635.595 102.496C636.057 102.916 636.673 103.126 637.443 103.126ZM637.807 101.852C636.967 101.852 636.519 101.432 636.519 100.816C636.519 100.158 637.037 99.78 637.989 99.78C638.535 99.78 639.067 99.864 639.557 100.032V100.27C639.557 101.152 638.857 101.852 637.807 101.852ZM644.638 103V99.01C644.638 97.82 645.282 97.092 646.29 97.092C647.27 97.092 647.76 97.624 647.76 98.674V103H649.356V98.282C649.356 96.644 648.362 95.65 646.752 95.65C645.786 95.65 645.086 96 644.638 96.714H644.582L644.456 95.776H643.042V103H644.638ZM654.002 103.126C654.492 103.126 654.912 103.07 655.234 102.972V101.628H655.094C654.884 101.698 654.646 101.726 654.394 101.726C653.736 101.726 653.456 101.432 653.456 100.746V97.134H655.206V95.776H653.456V93.858H653.316L651.93 94.25V95.776H650.67V97.134H651.86V101.026C651.86 102.426 652.574 103.126 654.002 103.126ZM659.425 106.206L663.261 95.916V95.776H661.567L659.691 101.208H659.635L657.759 95.776H656.093V95.916L658.725 102.958L658.893 102.972L657.745 106.066V106.206H659.425ZM671.521 103.126C672.361 103.126 673.061 102.902 673.635 102.468C674.209 102.034 674.559 101.474 674.657 100.802H673.103C672.921 101.46 672.389 101.782 671.521 101.782C670.387 101.782 669.757 101.026 669.757 99.836H674.755V99.164C674.755 98.142 674.461 97.302 673.887 96.644C673.313 95.986 672.515 95.65 671.493 95.65C670.401 95.65 669.561 96 668.973 96.7C668.399 97.4 668.105 98.296 668.105 99.388C668.105 100.48 668.413 101.376 669.015 102.076C669.617 102.776 670.457 103.126 671.521 103.126ZM669.771 98.702C669.813 97.694 670.387 97.008 671.493 97.008C672.543 97.008 673.103 97.694 673.117 98.702H669.771ZM677.023 103L678.731 100.368H678.787L680.467 103H682.203V102.86L679.823 99.346L682.133 95.916V95.776H680.411L678.787 98.338H678.731L677.093 95.776H675.371V95.916L677.681 99.36L675.287 102.86V103H677.023ZM686.131 103.126C686.621 103.126 687.041 103.07 687.363 102.972V101.628H687.223C687.013 101.698 686.775 101.726 686.523 101.726C685.865 101.726 685.585 101.432 685.585 100.746V97.134H687.335V95.776H685.585V93.858H685.445L684.059 94.25V95.776H682.799V97.134H683.989V101.026C683.989 102.426 684.703 103.126 686.131 103.126ZM691.96 103.126C692.8 103.126 693.5 102.902 694.074 102.468C694.648 102.034 694.998 101.474 695.096 100.802H693.542C693.36 101.46 692.828 101.782 691.96 101.782C690.826 101.782 690.196 101.026 690.196 99.836H695.194V99.164C695.194 98.142 694.9 97.302 694.326 96.644C693.752 95.986 692.954 95.65 691.932 95.65C690.84 95.65 690 96 689.412 96.7C688.838 97.4 688.544 98.296 688.544 99.388C688.544 100.48 688.852 101.376 689.454 102.076C690.056 102.776 690.896 103.126 691.96 103.126ZM690.21 98.702C690.252 97.694 690.826 97.008 691.932 97.008C692.982 97.008 693.542 97.694 693.556 98.702H690.21ZM698.368 103V99.01C698.368 97.82 699.012 97.092 700.02 97.092C701 97.092 701.49 97.624 701.49 98.674V103H703.086V98.282C703.086 96.644 702.092 95.65 700.482 95.65C699.516 95.65 698.816 96 698.368 96.714H698.312L698.186 95.776H696.772V103H698.368ZM707.579 103.126C708.447 103.126 709.161 102.93 709.721 102.552C710.295 102.16 710.575 101.628 710.575 100.942C710.575 99.654 709.861 99.08 708.475 98.786L707.243 98.548C706.613 98.45 706.291 98.184 706.291 97.764C706.291 97.246 706.767 96.938 707.495 96.938C708.321 96.938 708.797 97.344 708.839 98.016H710.407C710.407 96.616 709.259 95.65 707.523 95.65C705.801 95.65 704.737 96.532 704.737 97.75C704.737 98.898 705.409 99.612 706.739 99.878L708.013 100.116C708.643 100.242 708.965 100.522 708.965 100.942C708.965 101.488 708.503 101.754 707.579 101.754C706.669 101.754 706.109 101.306 706.109 100.592H704.513C704.555 102.146 705.675 103.126 707.579 103.126ZM711.915 93.662C711.915 94.292 712.279 94.67 712.937 94.67C713.259 94.67 713.511 94.586 713.693 94.404C713.875 94.222 713.959 93.97 713.959 93.662C713.959 93.354 713.875 93.116 713.693 92.934C713.511 92.752 713.259 92.668 712.937 92.668C712.265 92.668 711.915 93.046 711.915 93.662ZM713.735 103V95.776H712.139V103H713.735ZM718.579 103.126C719.685 103.126 720.525 102.776 721.113 102.09C721.701 101.404 721.995 100.494 721.995 99.388C721.995 98.282 721.701 97.386 721.099 96.7C720.511 96 719.671 95.65 718.579 95.65C717.487 95.65 716.647 96 716.045 96.7C715.457 97.386 715.163 98.282 715.163 99.388C715.163 100.494 715.457 101.404 716.031 102.09C716.619 102.776 717.473 103.126 718.579 103.126ZM718.579 101.712C717.403 101.712 716.787 100.858 716.787 99.388C716.787 98.646 716.941 98.086 717.235 97.68C717.529 97.274 717.977 97.064 718.579 97.064C719.181 97.064 719.629 97.274 719.923 97.68C720.217 98.086 720.371 98.646 720.371 99.388C720.371 100.942 719.769 101.712 718.579 101.712ZM725.165 103V99.01C725.165 97.82 725.809 97.092 726.817 97.092C727.797 97.092 728.287 97.624 728.287 98.674V103H729.883V98.282C729.883 96.644 728.889 95.65 727.279 95.65C726.313 95.65 725.613 96 725.165 96.714H725.109L724.983 95.776H723.569V103H725.165Z" fill="white"/>
<circle cx="584" cy="99" r="11.5" fill="url(#paint2_linear)" stroke="url(#paint3_linear)"/>
<path d="M578.733 105C577.776 105 577 104.225 577 103.267V98.9336H580.467V103.267C580.467 104.225 579.691 105 578.733 105Z" stroke="#F97068" stroke-miterlimit="10" stroke-linecap="round" stroke-linejoin="round"/>
<path d="M580.467 98.9333V92H590V103.267C590 104.224 589.224 105 588.267 105H578.733" stroke="#F97068" stroke-miterlimit="10" stroke-linecap="round" stroke-linejoin="round"/>
<path d="M583.066 94.5996H587.4" stroke="#F97068" stroke-miterlimit="10" stroke-linecap="round" stroke-linejoin="round"/>
<path d="M583.066 97.1992H587.4" stroke="#F97068" stroke-miterlimit="10" stroke-linecap="round" stroke-linejoin="round"/>
<path d="M583.066 99.8008H587.4" stroke="#F97068" stroke-miterlimit="10" stroke-linecap="round" stroke-linejoin="round"/>
<path d="M583.066 102.4H584.8" stroke="#F97068" stroke-miterlimit="10" stroke-linecap="round" stroke-linejoin="round"/>
<path d="M250.856 103V99.57H253.194C254.174 99.57 254.958 99.276 255.546 98.674C256.134 98.072 256.428 97.302 256.428 96.35C256.428 95.426 256.134 94.67 255.546 94.082C254.972 93.494 254.188 93.2 253.194 93.2H249.218V103H250.856ZM250.856 94.67H252.914C254.048 94.67 254.748 95.286 254.748 96.35C254.748 97.47 254.09 98.086 252.914 98.086H250.856V94.67ZM259.654 103V99.472C259.654 98.002 260.284 97.162 261.502 97.162H262.118V95.678H261.53C260.634 95.678 259.948 96.154 259.654 96.924H259.598L259.458 95.776H258.114V103H259.654ZM266.358 103.126C267.464 103.126 268.304 102.776 268.892 102.09C269.48 101.404 269.774 100.494 269.774 99.388C269.774 98.282 269.48 97.386 268.878 96.7C268.29 96 267.45 95.65 266.358 95.65C265.266 95.65 264.426 96 263.824 96.7C263.236 97.386 262.942 98.282 262.942 99.388C262.942 100.494 263.236 101.404 263.81 102.09C264.398 102.776 265.252 103.126 266.358 103.126ZM266.358 101.712C265.182 101.712 264.566 100.858 264.566 99.388C264.566 98.646 264.72 98.086 265.014 97.68C265.308 97.274 265.756 97.064 266.358 97.064C266.96 97.064 267.408 97.274 267.702 97.68C267.996 98.086 268.15 98.646 268.15 99.388C268.15 100.942 267.548 101.712 266.358 101.712ZM273.882 103.126C274.82 103.126 275.52 102.79 275.954 102.132H276.01L276.192 103H277.606V92.64H276.01V96.644H275.954C275.52 95.986 274.82 95.65 273.882 95.65C272.944 95.65 272.202 96 271.67 96.686C271.152 97.372 270.886 98.268 270.872 99.374C270.886 100.508 271.152 101.418 271.684 102.104C272.23 102.79 272.958 103.126 273.882 103.126ZM274.274 101.712C273.042 101.712 272.496 100.76 272.496 99.374C272.496 98.016 273.042 97.064 274.274 97.064C275.492 97.064 276.066 98.016 276.066 99.374C276.066 100.732 275.464 101.712 274.274 101.712ZM284.046 100.004C284.046 101.096 283.542 101.642 282.534 101.642C281.526 101.642 281.022 101.096 281.022 100.004V95.776H279.426V100.256C279.426 101.082 279.692 101.768 280.238 102.314C280.784 102.846 281.554 103.112 282.534 103.112C284.494 103.112 285.642 101.936 285.642 100.256V95.776H284.046V100.004ZM290.572 103.126C292.476 103.126 293.554 102.048 293.68 100.382H292.084C291.986 101.222 291.426 101.726 290.53 101.726C289.34 101.726 288.752 100.858 288.752 99.388C288.752 97.932 289.34 97.064 290.53 97.064C291.426 97.064 292 97.582 292.07 98.408H293.666C293.554 96.77 292.476 95.65 290.53 95.65C288.36 95.65 287.128 97.106 287.128 99.388C287.128 100.522 287.422 101.432 288.024 102.118C288.626 102.79 289.48 103.126 290.572 103.126ZM297.991 103.126C298.481 103.126 298.901 103.07 299.223 102.972V101.628H299.083C298.873 101.698 298.635 101.726 298.383 101.726C297.725 101.726 297.445 101.432 297.445 100.746V97.134H299.195V95.776H297.445V93.858H297.305L295.919 94.25V95.776H294.659V97.134H295.849V101.026C295.849 102.426 296.563 103.126 297.991 103.126Z" fill="white"/>
<circle cx="229" cy="99" r="11.5" fill="url(#paint4_linear)" stroke="url(#paint5_linear)"/>
<path d="M227.6 96.667C226.362 96.667 225.175 97.1587 224.3 98.0338C223.425 98.909 222.933 100.096 222.933 101.334H232.266C232.266 100.721 232.146 100.114 231.911 99.5478C231.677 98.9816 231.333 98.4672 230.9 98.0338C230.466 97.6005 229.952 97.2567 229.386 97.0222C228.819 96.7877 228.213 96.667 227.6 96.667Z" stroke="#DDCAD9" stroke-linecap="round" stroke-linejoin="round"/>
<path d="M227.6 96.6667V95.7333C227.6 94.7432 227.993 93.7936 228.693 93.0935C229.393 92.3933 230.343 92 231.333 92V92C232.323 92 233.273 92.3933 233.973 93.0935C234.673 93.7936 235.066 94.7432 235.066 95.7333V106" stroke="#DDCAD9" stroke-linecap="round" stroke-linejoin="round"/>
<path d="M224.8 103.2V104.134" stroke="#DDCAD9" stroke-linecap="round" stroke-linejoin="round"/>
<path d="M227.6 105.066V106" stroke="#DDCAD9" stroke-linecap="round" stroke-linejoin="round"/>
<path d="M230.4 103.2V104.134" stroke="#DDCAD9" stroke-linecap="round" stroke-linejoin="round"/>
<path d="M380.702 98.1C380.702 96.616 380.31 95.412 379.54 94.474C378.77 93.536 377.65 93.074 376.18 93.074C374.71 93.074 373.576 93.536 372.806 94.474C372.036 95.412 371.658 96.616 371.658 98.1C371.658 99.57 372.036 100.788 372.806 101.726C373.576 102.664 374.71 103.126 376.18 103.126C376.866 103.126 377.468 103.014 378.014 102.804L378.882 104.022H380.576V103.882L379.26 102.02C380.226 101.096 380.702 99.794 380.702 98.1ZM376.18 101.614C374.262 101.614 373.338 100.214 373.338 98.1C373.338 97.05 373.562 96.196 374.024 95.552C374.486 94.908 375.214 94.586 376.18 94.586C378.098 94.586 379.022 95.986 379.022 98.1C379.022 99.192 378.784 100.046 378.308 100.676L377.552 99.598H375.858V99.738L377.09 101.488C376.824 101.572 376.516 101.614 376.18 101.614ZM386.921 100.004C386.921 101.096 386.417 101.642 385.409 101.642C384.401 101.642 383.897 101.096 383.897 100.004V95.776H382.301V100.256C382.301 101.082 382.567 101.768 383.113 102.314C383.659 102.846 384.429 103.112 385.409 103.112C387.369 103.112 388.517 101.936 388.517 100.256V95.776H386.921V100.004ZM392.523 103.126C393.489 103.126 394.203 102.804 394.651 102.146H394.707L394.819 103H396.219V98.184C396.219 97.442 395.953 96.84 395.421 96.364C394.889 95.888 394.161 95.65 393.237 95.65C391.445 95.65 390.339 96.644 390.339 98.044H391.851C391.865 97.428 392.369 96.966 393.209 96.966C394.161 96.966 394.637 97.47 394.637 98.198V98.87C394.105 98.716 393.545 98.632 392.957 98.632C390.983 98.632 390.003 99.528 390.003 100.872C390.003 101.53 390.227 102.062 390.675 102.496C391.137 102.916 391.753 103.126 392.523 103.126ZM392.887 101.852C392.047 101.852 391.599 101.432 391.599 100.816C391.599 100.158 392.117 99.78 393.069 99.78C393.615 99.78 394.147 99.864 394.637 100.032V100.27C394.637 101.152 393.937 101.852 392.887 101.852ZM399.718 103V92.64H398.122V103H399.718ZM401.398 93.662C401.398 94.292 401.762 94.67 402.42 94.67C402.742 94.67 402.994 94.586 403.176 94.404C403.358 94.222 403.442 93.97 403.442 93.662C403.442 93.354 403.358 93.116 403.176 92.934C402.994 92.752 402.742 92.668 402.42 92.668C401.748 92.668 401.398 93.046 401.398 93.662ZM403.218 103V95.776H401.622V103H403.218ZM407.866 103.126C408.356 103.126 408.776 103.07 409.098 102.972V101.628H408.958C408.748 101.698 408.51 101.726 408.258 101.726C407.6 101.726 407.32 101.432 407.32 100.746V97.134H409.07V95.776H407.32V93.858H407.18L405.794 94.25V95.776H404.534V97.134H405.724V101.026C405.724 102.426 406.438 103.126 407.866 103.126ZM413.288 106.206L417.124 95.916V95.776H415.43L413.554 101.208H413.498L411.622 95.776H409.956V95.916L412.588 102.958L412.756 102.972L411.608 106.066V106.206H413.288Z" fill="white"/>
<circle cx="352" cy="99" r="11.5" fill="url(#paint6_linear)" stroke="url(#paint7_linear)"/>
<path d="M352 92.9968L353.87 96.7845L353.986 97.0202L354.246 97.058L358.425 97.6653L355.401 100.613L355.213 100.797L355.257 101.056L355.971 105.219L352.233 103.254L352 103.131L351.767 103.254L348.029 105.219L348.743 101.056L348.787 100.797L348.599 100.613L345.575 97.6653L349.754 97.058L350.014 97.0202L350.13 96.7845L352 92.9968Z" stroke="white"/>
<path d="M495.538 99.108C496.784 98.702 497.568 97.624 497.568 96.224C497.568 95.37 497.274 94.642 496.7 94.068C496.126 93.494 495.342 93.2 494.362 93.2H490.218V103H491.856V99.304H493.816L496.182 103H498.044V102.86L495.538 99.108ZM494.264 94.684C495.314 94.684 495.874 95.286 495.874 96.238C495.874 97.204 495.328 97.82 494.264 97.82H491.856V94.684H494.264ZM502.341 103.126C503.181 103.126 503.881 102.902 504.455 102.468C505.029 102.034 505.379 101.474 505.477 100.802H503.923C503.741 101.46 503.209 101.782 502.341 101.782C501.207 101.782 500.577 101.026 500.577 99.836H505.575V99.164C505.575 98.142 505.281 97.302 504.707 96.644C504.133 95.986 503.335 95.65 502.313 95.65C501.221 95.65 500.381 96 499.793 96.7C499.219 97.4 498.925 98.296 498.925 99.388C498.925 100.48 499.233 101.376 499.835 102.076C500.437 102.776 501.277 103.126 502.341 103.126ZM500.591 98.702C500.633 97.694 501.207 97.008 502.313 97.008C503.363 97.008 503.923 97.694 503.937 98.702H500.591ZM508.749 106.206V102.132H508.805C509.239 102.79 509.925 103.126 510.863 103.126C511.815 103.126 512.557 102.776 513.075 102.09C513.607 101.404 513.873 100.494 513.873 99.388C513.873 98.254 513.607 97.344 513.061 96.672C512.515 95.986 511.787 95.65 510.863 95.65C509.925 95.65 509.239 95.986 508.805 96.644H508.749L508.567 95.776H507.153V106.206H508.749ZM510.471 101.712C509.281 101.712 508.693 100.746 508.693 99.388C508.693 98.03 509.281 97.064 510.471 97.064C511.703 97.064 512.263 98.002 512.263 99.388C512.263 100.774 511.703 101.712 510.471 101.712ZM517.496 103.126C518.462 103.126 519.176 102.804 519.624 102.146H519.68L519.792 103H521.192V98.184C521.192 97.442 520.926 96.84 520.394 96.364C519.862 95.888 519.134 95.65 518.21 95.65C516.418 95.65 515.312 96.644 515.312 98.044H516.824C516.838 97.428 517.342 96.966 518.182 96.966C519.134 96.966 519.61 97.47 519.61 98.198V98.87C519.078 98.716 518.518 98.632 517.93 98.632C515.956 98.632 514.976 99.528 514.976 100.872C514.976 101.53 515.2 102.062 515.648 102.496C516.11 102.916 516.726 103.126 517.496 103.126ZM517.86 101.852C517.02 101.852 516.572 101.432 516.572 100.816C516.572 100.158 517.09 99.78 518.042 99.78C518.588 99.78 519.12 99.864 519.61 100.032V100.27C519.61 101.152 518.91 101.852 517.86 101.852ZM522.87 93.662C522.87 94.292 523.234 94.67 523.892 94.67C524.214 94.67 524.466 94.586 524.648 94.404C524.83 94.222 524.914 93.97 524.914 93.662C524.914 93.354 524.83 93.116 524.648 92.934C524.466 92.752 524.214 92.668 523.892 92.668C523.22 92.668 522.87 93.046 522.87 93.662ZM524.69 103V95.776H523.094V103H524.69ZM528.134 103V99.472C528.134 98.002 528.764 97.162 529.982 97.162H530.598V95.678H530.01C529.114 95.678 528.428 96.154 528.134 96.924H528.078L527.938 95.776H526.594V103H528.134Z" fill="white"/>
<circle cx="470" cy="99" r="11.5" fill="url(#paint8_linear)" stroke="url(#paint9_linear)"/>
<path d="M464 103.4L465.6 105L472.79 97.7895L471.21 96.1895L464 103.4Z" stroke="#A8E8EC" stroke-linecap="round" stroke-linejoin="round"/>
<path d="M469.61 97.79L471.21 99.39" stroke="#A8E8EC" stroke-linecap="round" stroke-linejoin="round"/>
<path d="M476 93L473.6 95.4" stroke="#A8E8EC" stroke-linecap="round" stroke-linejoin="round"/>
<path d="M473.6 93L476 95.4" stroke="#A8E8EC" stroke-linecap="round" stroke-linejoin="round"/>
<path d="M476 101L473.6 103.4" stroke="#A8E8EC" stroke-linecap="round" stroke-linejoin="round"/>
<path d="M473.6 101L476 103.4" stroke="#A8E8EC" stroke-linecap="round" stroke-linejoin="round"/>
<path d="M468.8 93L466.4 95.4" stroke="#A8E8EC" stroke-linecap="round" stroke-linejoin="round"/>
<path d="M466.4 93L468.8 95.4" stroke="#A8E8EC" stroke-linecap="round" stroke-linejoin="round"/>
<path d="M221.614 55C223.56 55 224.736 53.95 224.736 52.172C224.736 51.01 224.246 50.226 223.252 49.806V49.75C223.994 49.344 224.372 48.686 224.372 47.748C224.372 46.166 223.21 45.2 221.474 45.2H217.218V55H221.614ZM218.842 46.656H221.264C222.202 46.656 222.706 47.104 222.706 47.874C222.706 48.756 222.16 49.218 221.166 49.218H218.842V46.656ZM218.842 50.646H221.376C222.482 50.646 223.056 51.192 223.056 52.088C223.056 52.984 222.44 53.53 221.376 53.53H218.842V50.646ZM227.886 55V51.472C227.886 50.002 228.516 49.162 229.734 49.162H230.35V47.678H229.762C228.866 47.678 228.18 48.154 227.886 48.924H227.83L227.69 47.776H226.346V55H227.886ZM233.763 55.126C234.729 55.126 235.443 54.804 235.891 54.146H235.947L236.059 55H237.459V50.184C237.459 49.442 237.193 48.84 236.661 48.364C236.129 47.888 235.401 47.65 234.477 47.65C232.685 47.65 231.579 48.644 231.579 50.044H233.091C233.105 49.428 233.609 48.966 234.449 48.966C235.401 48.966 235.877 49.47 235.877 50.198V50.87C235.345 50.716 234.785 50.632 234.197 50.632C232.223 50.632 231.243 51.528 231.243 52.872C231.243 53.53 231.467 54.062 231.915 54.496C232.377 54.916 232.993 55.126 233.763 55.126ZM234.127 53.852C233.287 53.852 232.839 53.432 232.839 52.816C232.839 52.158 233.357 51.78 234.309 51.78C234.855 51.78 235.387 51.864 235.877 52.032V52.27C235.877 53.152 235.177 53.852 234.127 53.852ZM240.958 55V51.01C240.958 49.82 241.602 49.092 242.61 49.092C243.59 49.092 244.08 49.624 244.08 50.674V55H245.676V50.282C245.676 48.644 244.682 47.65 243.072 47.65C242.106 47.65 241.406 48 240.958 48.714H240.902L240.776 47.776H239.362V55H240.958ZM250.113 55.126C251.051 55.126 251.751 54.79 252.185 54.132H252.241L252.423 55H253.837V44.64H252.241V48.644H252.185C251.751 47.986 251.051 47.65 250.113 47.65C249.175 47.65 248.433 48 247.901 48.686C247.383 49.372 247.117 50.268 247.103 51.374C247.117 52.508 247.383 53.418 247.915 54.104C248.461 54.79 249.189 55.126 250.113 55.126ZM250.505 53.712C249.273 53.712 248.727 52.76 248.727 51.374C248.727 50.016 249.273 49.064 250.505 49.064C251.723 49.064 252.297 50.016 252.297 51.374C252.297 52.732 251.695 53.712 250.505 53.712Z" fill="white"/>
<circle cx="197" cy="51" r="11.5" fill="url(#paint10_linear)" stroke="url(#paint11_linear)"/>
<path d="M192.5 43.5L197.5 44.5L204.5 51.5L197.5 58.5L190.5 51.5L189.5 46.5L192.5 43.5Z" stroke="#FFE8A3" stroke-miterlimit="10" stroke-linecap="round" stroke-linejoin="round"/>
<path d="M194 49C194.552 49 195 48.5523 195 48C195 47.4477 194.552 47 194 47C193.448 47 193 47.4477 193 48C193 48.5523 193.448 49 194 49Z" fill="#FFE8A3"/>
<path d="M62.794 45.2L59.294 54.86V55H61.03L61.8 52.732H65.804L66.574 55H68.366V54.86L64.852 45.2H62.794ZM63.774 46.922H63.83L65.314 51.29H62.29L63.774 46.922ZM71.2157 58.206V54.132H71.2717C71.7057 54.79 72.3917 55.126 73.3297 55.126C74.2817 55.126 75.0237 54.776 75.5417 54.09C76.0737 53.404 76.3397 52.494 76.3397 51.388C76.3397 50.254 76.0737 49.344 75.5277 48.672C74.9817 47.986 74.2537 47.65 73.3297 47.65C72.3917 47.65 71.7057 47.986 71.2717 48.644H71.2157L71.0337 47.776H69.6197V58.206H71.2157ZM72.9377 53.712C71.7477 53.712 71.1597 52.746 71.1597 51.388C71.1597 50.03 71.7477 49.064 72.9377 49.064C74.1697 49.064 74.7297 50.002 74.7297 51.388C74.7297 52.774 74.1697 53.712 72.9377 53.712ZM79.5145 58.206V54.132H79.5705C80.0045 54.79 80.6905 55.126 81.6285 55.126C82.5805 55.126 83.3225 54.776 83.8405 54.09C84.3725 53.404 84.6385 52.494 84.6385 51.388C84.6385 50.254 84.3725 49.344 83.8265 48.672C83.2805 47.986 82.5525 47.65 81.6285 47.65C80.6905 47.65 80.0045 47.986 79.5705 48.644H79.5145L79.3325 47.776H77.9185V58.206H79.5145ZM81.2365 53.712C80.0465 53.712 79.4585 52.746 79.4585 51.388C79.4585 50.03 80.0465 49.064 81.2365 49.064C82.4685 49.064 83.0285 50.002 83.0285 51.388C83.0285 52.774 82.4685 53.712 81.2365 53.712ZM89.1573 55.126C90.2633 55.126 91.1033 54.776 91.6913 54.09C92.2793 53.404 92.5733 52.494 92.5733 51.388C92.5733 50.282 92.2793 49.386 91.6773 48.7C91.0893 48 90.2493 47.65 89.1573 47.65C88.0653 47.65 87.2253 48 86.6233 48.7C86.0353 49.386 85.7413 50.282 85.7413 51.388C85.7413 52.494 86.0353 53.404 86.6093 54.09C87.1973 54.776 88.0513 55.126 89.1573 55.126ZM89.1573 53.712C87.9813 53.712 87.3653 52.858 87.3653 51.388C87.3653 50.646 87.5193 50.086 87.8133 49.68C88.1073 49.274 88.5553 49.064 89.1573 49.064C89.7593 49.064 90.2073 49.274 90.5013 49.68C90.7953 50.086 90.9493 50.646 90.9493 51.388C90.9493 52.942 90.3473 53.712 89.1573 53.712ZM93.923 45.662C93.923 46.292 94.287 46.67 94.945 46.67C95.267 46.67 95.519 46.586 95.701 46.404C95.883 46.222 95.967 45.97 95.967 45.662C95.967 45.354 95.883 45.116 95.701 44.934C95.519 44.752 95.267 44.668 94.945 44.668C94.273 44.668 93.923 45.046 93.923 45.662ZM95.743 55V47.776H94.147V55H95.743ZM99.243 55V51.01C99.243 49.82 99.887 49.092 100.895 49.092C101.875 49.092 102.365 49.624 102.365 50.674V55H103.961V50.282C103.961 48.644 102.967 47.65 101.357 47.65C100.391 47.65 99.691 48 99.243 48.714H99.187L99.061 47.776H97.647V55H99.243ZM108.608 55.126C109.098 55.126 109.518 55.07 109.84 54.972V53.628H109.7C109.49 53.698 109.252 53.726 109 53.726C108.342 53.726 108.062 53.432 108.062 52.746V49.134H109.812V47.776H108.062V45.858H107.922L106.536 46.25V47.776H105.276V49.134H106.466V53.026C106.466 54.426 107.18 55.126 108.608 55.126ZM119.645 47.65C118.609 47.65 117.853 48.028 117.391 48.784H117.349C116.929 48.028 116.201 47.65 115.179 47.65C114.241 47.65 113.541 48 113.093 48.714H113.037L112.911 47.776H111.497V55H113.093V51.01C113.093 49.82 113.737 49.092 114.703 49.092C115.641 49.092 116.103 49.624 116.103 50.674V55H117.685V51.01C117.685 49.82 118.259 49.092 119.225 49.092C120.163 49.092 120.625 49.624 120.625 50.674V55H122.221V50.282C122.221 48.658 121.227 47.65 119.645 47.65ZM127.069 55.126C127.909 55.126 128.609 54.902 129.183 54.468C129.757 54.034 130.107 53.474 130.205 52.802H128.651C128.469 53.46 127.937 53.782 127.069 53.782C125.935 53.782 125.305 53.026 125.305 51.836H130.303V51.164C130.303 50.142 130.009 49.302 129.435 48.644C128.861 47.986 128.063 47.65 127.041 47.65C125.949 47.65 125.109 48 124.521 48.7C123.947 49.4 123.653 50.296 123.653 51.388C123.653 52.48 123.961 53.376 124.563 54.076C125.165 54.776 126.005 55.126 127.069 55.126ZM125.319 50.702C125.361 49.694 125.935 49.008 127.041 49.008C128.091 49.008 128.651 49.694 128.665 50.702H125.319ZM133.477 55V51.01C133.477 49.82 134.121 49.092 135.129 49.092C136.109 49.092 136.599 49.624 136.599 50.674V55H138.195V50.282C138.195 48.644 137.201 47.65 135.591 47.65C134.625 47.65 133.925 48 133.477 48.714H133.421L133.295 47.776H131.881V55H133.477ZM142.842 55.126C143.332 55.126 143.752 55.07 144.074 54.972V53.628H143.934C143.724 53.698 143.486 53.726 143.234 53.726C142.576 53.726 142.296 53.432 142.296 52.746V49.134H144.046V47.776H142.296V45.858H142.156L140.77 46.25V47.776H139.51V49.134H140.7V53.026C140.7 54.426 141.414 55.126 142.842 55.126Z" fill="white"/>
<circle cx="40" cy="51" r="11.5" fill="url(#paint12_linear)" stroke="url(#paint13_linear)"/>
<path d="M35 49.001H46.2004" stroke="#FFC1A6" stroke-miterlimit="10" stroke-linecap="round" stroke-linejoin="round"/>
<path d="M45.4003 46.5996H35.8C35.3584 46.5996 35 46.958 35 47.3996V56.1999C35 56.6415 35.3584 56.9999 35.8 56.9999H45.4003C45.842 56.9999 46.2004 56.6415 46.2004 56.1999V47.3996C46.2004 46.958 45.842 46.5996 45.4003 46.5996Z" stroke="#FFC1A6" stroke-miterlimit="10" stroke-linecap="round" stroke-linejoin="round"/>
<path d="M37.3999 45V46.6001" stroke="#FFC1A6" stroke-miterlimit="10" stroke-linecap="round" stroke-linejoin="round"/>
<path d="M43.8003 45V46.6001" stroke="#FFC1A6" stroke-miterlimit="10" stroke-linecap="round" stroke-linejoin="round"/>
<path d="M40.6001 45V46.6001" stroke="#FFC1A6" stroke-miterlimit="10" stroke-linecap="round" stroke-linejoin="round"/>
<path d="M504.166 55.126C505.342 55.126 506.294 54.804 507.008 54.16C507.722 53.516 508.142 52.676 508.268 51.64H506.602C506.378 52.872 505.58 53.628 504.166 53.628C502.262 53.628 501.338 52.228 501.338 50.114C501.338 49.064 501.576 48.21 502.038 47.566C502.5 46.908 503.214 46.586 504.166 46.586C505.622 46.586 506.462 47.412 506.588 48.658H508.268C508.17 47.594 507.764 46.726 507.036 46.068C506.308 45.41 505.356 45.074 504.166 45.074C502.724 45.074 501.618 45.536 500.834 46.46C500.05 47.384 499.658 48.602 499.658 50.114C499.658 51.612 500.05 52.83 500.834 53.754C501.618 54.664 502.724 55.126 504.166 55.126ZM512.888 55.126C513.994 55.126 514.834 54.776 515.422 54.09C516.01 53.404 516.304 52.494 516.304 51.388C516.304 50.282 516.01 49.386 515.408 48.7C514.82 48 513.98 47.65 512.888 47.65C511.796 47.65 510.956 48 510.354 48.7C509.766 49.386 509.472 50.282 509.472 51.388C509.472 52.494 509.766 53.404 510.34 54.09C510.928 54.776 511.782 55.126 512.888 55.126ZM512.888 53.712C511.712 53.712 511.096 52.858 511.096 51.388C511.096 50.646 511.25 50.086 511.544 49.68C511.838 49.274 512.286 49.064 512.888 49.064C513.49 49.064 513.938 49.274 514.232 49.68C514.526 50.086 514.68 50.646 514.68 51.388C514.68 52.942 514.078 53.712 512.888 53.712ZM519.473 55V51.01C519.473 49.82 520.117 49.092 521.125 49.092C522.105 49.092 522.595 49.624 522.595 50.674V55H524.191V50.282C524.191 48.644 523.197 47.65 521.587 47.65C520.621 47.65 519.921 48 519.473 48.714H519.417L519.291 47.776H517.877V55H519.473ZM528.838 55.126C529.328 55.126 529.748 55.07 530.07 54.972V53.628H529.93C529.72 53.698 529.482 53.726 529.23 53.726C528.572 53.726 528.292 53.432 528.292 52.746V49.134H530.042V47.776H528.292V45.858H528.152L526.766 46.25V47.776H525.506V49.134H526.696V53.026C526.696 54.426 527.41 55.126 528.838 55.126ZM533.771 55.126C534.737 55.126 535.451 54.804 535.899 54.146H535.955L536.067 55H537.467V50.184C537.467 49.442 537.201 48.84 536.669 48.364C536.137 47.888 535.409 47.65 534.485 47.65C532.693 47.65 531.587 48.644 531.587 50.044H533.099C533.113 49.428 533.617 48.966 534.457 48.966C535.409 48.966 535.885 49.47 535.885 50.198V50.87C535.353 50.716 534.793 50.632 534.205 50.632C532.231 50.632 531.251 51.528 531.251 52.872C531.251 53.53 531.475 54.062 531.923 54.496C532.385 54.916 533.001 55.126 533.771 55.126ZM534.135 53.852C533.295 53.852 532.847 53.432 532.847 52.816C532.847 52.158 533.365 51.78 534.317 51.78C534.863 51.78 535.395 51.864 535.885 52.032V52.27C535.885 53.152 535.185 53.852 534.135 53.852ZM542.338 55.126C544.242 55.126 545.32 54.048 545.446 52.382H543.85C543.752 53.222 543.192 53.726 542.296 53.726C541.106 53.726 540.518 52.858 540.518 51.388C540.518 49.932 541.106 49.064 542.296 49.064C543.192 49.064 543.766 49.582 543.836 50.408H545.432C545.32 48.77 544.242 47.65 542.296 47.65C540.126 47.65 538.894 49.106 538.894 51.388C538.894 52.522 539.188 53.432 539.79 54.118C540.392 54.79 541.246 55.126 542.338 55.126ZM549.756 55.126C550.246 55.126 550.666 55.07 550.988 54.972V53.628H550.848C550.638 53.698 550.4 53.726 550.148 53.726C549.49 53.726 549.21 53.432 549.21 52.746V49.134H550.96V47.776H549.21V45.858H549.07L547.684 46.25V47.776H546.424V49.134H547.614V53.026C547.614 54.426 548.328 55.126 549.756 55.126ZM553.317 56.862L557.265 44.822V44.682H555.767L551.833 56.722V56.862H553.317ZM562.025 55L563.929 47.748H563.985L565.847 55H567.765L570.117 45.34V45.2H568.423L566.813 52.606H566.757L564.825 45.2H563.061L561.157 52.606H561.101L559.463 45.2H557.769V45.34L560.107 55H562.025ZM572.996 55.126C573.962 55.126 574.676 54.804 575.124 54.146H575.18L575.292 55H576.692V50.184C576.692 49.442 576.426 48.84 575.894 48.364C575.362 47.888 574.634 47.65 573.71 47.65C571.918 47.65 570.812 48.644 570.812 50.044H572.324C572.338 49.428 572.842 48.966 573.682 48.966C574.634 48.966 575.11 49.47 575.11 50.198V50.87C574.578 50.716 574.018 50.632 573.43 50.632C571.456 50.632 570.476 51.528 570.476 52.872C570.476 53.53 570.7 54.062 571.148 54.496C571.61 54.916 572.226 55.126 572.996 55.126ZM573.36 53.852C572.52 53.852 572.072 53.432 572.072 52.816C572.072 52.158 572.59 51.78 573.542 51.78C574.088 51.78 574.62 51.864 575.11 52.032V52.27C575.11 53.152 574.41 53.852 573.36 53.852ZM578.37 45.662C578.37 46.292 578.734 46.67 579.392 46.67C579.714 46.67 579.966 46.586 580.148 46.404C580.33 46.222 580.414 45.97 580.414 45.662C580.414 45.354 580.33 45.116 580.148 44.934C579.966 44.752 579.714 44.668 579.392 44.668C578.72 44.668 578.37 45.046 578.37 45.662ZM580.19 55V47.776H578.594V55H580.19ZM584.838 55.126C585.328 55.126 585.748 55.07 586.07 54.972V53.628H585.93C585.72 53.698 585.482 53.726 585.23 53.726C584.572 53.726 584.292 53.432 584.292 52.746V49.134H586.042V47.776H584.292V45.858H584.152L582.766 46.25V47.776H581.506V49.134H582.696V53.026C582.696 54.426 583.41 55.126 584.838 55.126ZM587.503 45.662C587.503 46.292 587.867 46.67 588.525 46.67C588.847 46.67 589.099 46.586 589.281 46.404C589.463 46.222 589.547 45.97 589.547 45.662C589.547 45.354 589.463 45.116 589.281 44.934C589.099 44.752 588.847 44.668 588.525 44.668C587.853 44.668 587.503 45.046 587.503 45.662ZM589.323 55V47.776H587.727V55H589.323ZM592.823 55V51.01C592.823 49.82 593.467 49.092 594.475 49.092C595.455 49.092 595.945 49.624 595.945 50.674V55H597.541V50.282C597.541 48.644 596.547 47.65 594.937 47.65C593.971 47.65 593.271 48 592.823 48.714H592.767L592.641 47.776H591.227V55H592.823ZM602.356 58.332C603.364 58.332 604.176 58.052 604.778 57.506C605.394 56.96 605.702 56.26 605.702 55.392V47.776H604.288L604.106 48.644H604.05C603.616 47.986 602.916 47.65 601.978 47.65C601.054 47.65 600.326 47.986 599.78 48.672C599.248 49.344 598.982 50.254 598.968 51.388C598.982 52.494 599.248 53.404 599.766 54.09C600.298 54.776 601.04 55.126 601.978 55.126C602.916 55.126 603.616 54.79 604.05 54.132H604.106V55.364C604.106 56.316 603.49 56.96 602.356 56.96C601.39 56.96 600.788 56.442 600.732 55.784H599.178C599.192 56.54 599.5 57.156 600.074 57.618C600.662 58.094 601.418 58.332 602.356 58.332ZM602.37 53.712C601.138 53.712 600.592 52.774 600.592 51.388C600.592 50.002 601.138 49.064 602.37 49.064C603.56 49.064 604.162 50.044 604.162 51.388C604.162 52.746 603.588 53.712 602.37 53.712Z" fill="white"/>
<circle cx="480" cy="51" r="11.5" fill="url(#paint14_linear)" stroke="url(#paint15_linear)"/>
<path d="M483.8 57C483.8 57 483.8 56.3728 483.8 56.2C483.8 53.9256 483.036 51.888 481.8 51C483.036 50.112 483.8 48.0744 483.8 45.8C483.8 45.6272 483.8 45 483.8 45" stroke="#FF6375" stroke-miterlimit="10" stroke-linecap="round" stroke-linejoin="round"/>
<path d="M476.6 57C476.6 57 476.6 56.3728 476.6 56.2C476.6 53.9256 477.364 51.888 478.6 51C477.364 50.112 476.6 48.0744 476.6 45.8C476.6 45.6272 476.6 45 476.6 45" stroke="#FF6375" stroke-miterlimit="10" stroke-linecap="round" stroke-linejoin="round"/>
<path d="M475 45H485.4" stroke="#FF6375" stroke-miterlimit="10" stroke-linecap="round" stroke-linejoin="round"/>
<path d="M475 57H485.4" stroke="#FF6375" stroke-miterlimit="10" stroke-linecap="round" stroke-linejoin="round"/>
<path d="M683.166 55.126C684.342 55.126 685.294 54.804 686.008 54.16C686.722 53.516 687.142 52.676 687.268 51.64H685.602C685.378 52.872 684.58 53.628 683.166 53.628C681.262 53.628 680.338 52.228 680.338 50.114C680.338 49.064 680.576 48.21 681.038 47.566C681.5 46.908 682.214 46.586 683.166 46.586C684.622 46.586 685.462 47.412 685.588 48.658H687.268C687.17 47.594 686.764 46.726 686.036 46.068C685.308 45.41 684.356 45.074 683.166 45.074C681.724 45.074 680.618 45.536 679.834 46.46C679.05 47.384 678.658 48.602 678.658 50.114C678.658 51.612 679.05 52.83 679.834 53.754C680.618 54.664 681.724 55.126 683.166 55.126ZM693.484 52.004C693.484 53.096 692.98 53.642 691.972 53.642C690.964 53.642 690.46 53.096 690.46 52.004V47.776H688.864V52.256C688.864 53.082 689.13 53.768 689.676 54.314C690.222 54.846 690.992 55.112 691.972 55.112C693.932 55.112 695.08 53.936 695.08 52.256V47.776H693.484V52.004ZM699.632 55.126C700.5 55.126 701.214 54.93 701.774 54.552C702.348 54.16 702.628 53.628 702.628 52.942C702.628 51.654 701.914 51.08 700.528 50.786L699.296 50.548C698.666 50.45 698.344 50.184 698.344 49.764C698.344 49.246 698.82 48.938 699.548 48.938C700.374 48.938 700.85 49.344 700.892 50.016H702.46C702.46 48.616 701.312 47.65 699.576 47.65C697.854 47.65 696.79 48.532 696.79 49.75C696.79 50.898 697.462 51.612 698.792 51.878L700.066 52.116C700.696 52.242 701.018 52.522 701.018 52.942C701.018 53.488 700.556 53.754 699.632 53.754C698.722 53.754 698.162 53.306 698.162 52.592H696.566C696.608 54.146 697.728 55.126 699.632 55.126ZM706.936 55.126C707.426 55.126 707.846 55.07 708.168 54.972V53.628H708.028C707.818 53.698 707.58 53.726 707.328 53.726C706.67 53.726 706.39 53.432 706.39 52.746V49.134H708.14V47.776H706.39V45.858H706.25L704.864 46.25V47.776H703.604V49.134H704.794V53.026C704.794 54.426 705.508 55.126 706.936 55.126ZM712.765 55.126C713.871 55.126 714.711 54.776 715.299 54.09C715.887 53.404 716.181 52.494 716.181 51.388C716.181 50.282 715.887 49.386 715.285 48.7C714.697 48 713.857 47.65 712.765 47.65C711.673 47.65 710.833 48 710.231 48.7C709.643 49.386 709.349 50.282 709.349 51.388C709.349 52.494 709.643 53.404 710.217 54.09C710.805 54.776 711.659 55.126 712.765 55.126ZM712.765 53.712C711.589 53.712 710.973 52.858 710.973 51.388C710.973 50.646 711.127 50.086 711.421 49.68C711.715 49.274 712.163 49.064 712.765 49.064C713.367 49.064 713.815 49.274 714.109 49.68C714.403 50.086 714.557 50.646 714.557 51.388C714.557 52.942 713.955 53.712 712.765 53.712ZM725.902 47.65C724.866 47.65 724.11 48.028 723.648 48.784H723.606C723.186 48.028 722.458 47.65 721.436 47.65C720.498 47.65 719.798 48 719.35 48.714H719.294L719.168 47.776H717.754V55H719.35V51.01C719.35 49.82 719.994 49.092 720.96 49.092C721.898 49.092 722.36 49.624 722.36 50.674V55H723.942V51.01C723.942 49.82 724.516 49.092 725.482 49.092C726.42 49.092 726.882 49.624 726.882 50.674V55H728.478V50.282C728.478 48.658 727.484 47.65 725.902 47.65ZM733.327 55.126C734.167 55.126 734.867 54.902 735.441 54.468C736.015 54.034 736.365 53.474 736.463 52.802H734.909C734.727 53.46 734.195 53.782 733.327 53.782C732.193 53.782 731.563 53.026 731.563 51.836H736.561V51.164C736.561 50.142 736.267 49.302 735.693 48.644C735.119 47.986 734.321 47.65 733.299 47.65C732.207 47.65 731.367 48 730.779 48.7C730.205 49.4 729.911 50.296 729.911 51.388C729.911 52.48 730.219 53.376 730.821 54.076C731.423 54.776 732.263 55.126 733.327 55.126ZM731.577 50.702C731.619 49.694 732.193 49.008 733.299 49.008C734.349 49.008 734.909 49.694 734.923 50.702H731.577ZM739.679 55V51.472C739.679 50.002 740.309 49.162 741.527 49.162H742.143V47.678H741.555C740.659 47.678 739.973 48.154 739.679 48.924H739.623L739.483 47.776H738.139V55H739.679ZM751.056 55.126C753.562 55.126 754.906 54.02 754.906 52.228C754.906 50.702 753.912 49.722 751.938 49.316L750.608 49.036C749.656 48.826 749.18 48.42 749.18 47.818C749.18 46.978 749.796 46.558 751.042 46.558C752.344 46.558 753.016 47.16 753.072 48.112H754.738C754.724 47.202 754.388 46.474 753.702 45.914C753.03 45.354 752.148 45.074 751.07 45.074C749.964 45.074 749.096 45.326 748.452 45.83C747.808 46.32 747.486 46.992 747.486 47.818C747.486 49.386 748.466 50.198 750.272 50.59L751.7 50.898C752.722 51.122 753.212 51.514 753.212 52.256C753.212 53.194 752.498 53.656 751.056 53.656C749.712 53.656 748.9 53.012 748.83 51.878H747.164C747.262 53.88 748.634 55.126 751.056 55.126ZM759.454 55.126C760.294 55.126 760.994 54.902 761.568 54.468C762.142 54.034 762.492 53.474 762.59 52.802H761.036C760.854 53.46 760.322 53.782 759.454 53.782C758.32 53.782 757.69 53.026 757.69 51.836H762.688V51.164C762.688 50.142 762.394 49.302 761.82 48.644C761.246 47.986 760.448 47.65 759.426 47.65C758.334 47.65 757.494 48 756.906 48.7C756.332 49.4 756.038 50.296 756.038 51.388C756.038 52.48 756.346 53.376 756.948 54.076C757.55 54.776 758.39 55.126 759.454 55.126ZM757.704 50.702C757.746 49.694 758.32 49.008 759.426 49.008C760.476 49.008 761.036 49.694 761.05 50.702H757.704ZM765.806 55V51.472C765.806 50.002 766.436 49.162 767.654 49.162H768.27V47.678H767.682C766.786 47.678 766.1 48.154 765.806 48.924H765.75L765.61 47.776H764.266V55H765.806ZM773.526 55L776.088 47.916V47.776H774.464L772.63 53.348H772.574L770.684 47.776H769.046V47.916L771.65 55H773.526ZM777.112 45.662C777.112 46.292 777.476 46.67 778.134 46.67C778.456 46.67 778.708 46.586 778.89 46.404C779.072 46.222 779.156 45.97 779.156 45.662C779.156 45.354 779.072 45.116 778.89 44.934C778.708 44.752 778.456 44.668 778.134 44.668C777.462 44.668 777.112 45.046 777.112 45.662ZM778.932 55V47.776H777.336V55H778.932ZM783.804 55.126C785.708 55.126 786.786 54.048 786.912 52.382H785.316C785.218 53.222 784.658 53.726 783.762 53.726C782.572 53.726 781.984 52.858 781.984 51.388C781.984 49.932 782.572 49.064 783.762 49.064C784.658 49.064 785.232 49.582 785.302 50.408H786.898C786.786 48.77 785.708 47.65 783.762 47.65C781.592 47.65 780.36 49.106 780.36 51.388C780.36 52.522 780.654 53.432 781.256 54.118C781.858 54.79 782.712 55.126 783.804 55.126ZM791.419 55.126C792.259 55.126 792.959 54.902 793.533 54.468C794.107 54.034 794.457 53.474 794.555 52.802H793.001C792.819 53.46 792.287 53.782 791.419 53.782C790.285 53.782 789.655 53.026 789.655 51.836H794.653V51.164C794.653 50.142 794.359 49.302 793.785 48.644C793.211 47.986 792.413 47.65 791.391 47.65C790.299 47.65 789.459 48 788.871 48.7C788.297 49.4 788.003 50.296 788.003 51.388C788.003 52.48 788.311 53.376 788.913 54.076C789.515 54.776 790.355 55.126 791.419 55.126ZM789.669 50.702C789.711 49.694 790.285 49.008 791.391 49.008C792.441 49.008 793.001 49.694 793.015 50.702H789.669Z" fill="white"/>
<circle cx="659" cy="51" r="11.5" fill="url(#paint16_linear)" stroke="url(#paint17_linear)"/>
<path d="M654.308 47.7692C655.073 47.7692 655.693 47.1493 655.693 46.3846C655.693 45.6199 655.073 45 654.308 45C653.544 45 652.924 45.6199 652.924 46.3846C652.924 47.1493 653.544 47.7692 654.308 47.7692Z" stroke="#006E90" stroke-linecap="round" stroke-linejoin="round"/>
<path d="M655.693 53.3073V56.9996H652.001V51.4612C651.994 51.2168 652.037 50.9736 652.127 50.7464C652.217 50.5193 652.353 50.313 652.526 50.1401C652.699 49.9673 652.905 49.8315 653.132 49.7412C653.359 49.6509 653.603 49.608 653.847 49.615C655.532 49.615 655.878 51.1501 658.001 52.8458" stroke="#006E90" stroke-linecap="round" stroke-linejoin="round"/>
<path d="M662.155 53.3073V56.9996H665.847V51.4612C665.854 51.2168 665.811 50.9736 665.721 50.7464C665.631 50.5193 665.495 50.313 665.322 50.1401C665.149 49.9673 664.943 49.8315 664.716 49.7412C664.489 49.6509 664.245 49.608 664.001 49.615C662.315 49.615 661.97 51.1501 659.847 52.8458" stroke="#006E90" stroke-linecap="round" stroke-linejoin="round"/>
<path d="M663.539 47.7692C664.304 47.7692 664.924 47.1493 664.924 46.3846C664.924 45.6199 664.304 45 663.539 45C662.775 45 662.155 45.6199 662.155 46.3846C662.155 47.1493 662.775 47.7692 663.539 47.7692Z" stroke="#006E90" stroke-linecap="round" stroke-linejoin="round"/>
<path d="M331.166 55.126C332.342 55.126 333.294 54.804 334.008 54.16C334.722 53.516 335.142 52.676 335.268 51.64H333.602C333.378 52.872 332.58 53.628 331.166 53.628C329.262 53.628 328.338 52.228 328.338 50.114C328.338 49.064 328.576 48.21 329.038 47.566C329.5 46.908 330.214 46.586 331.166 46.586C332.622 46.586 333.462 47.412 333.588 48.658H335.268C335.17 47.594 334.764 46.726 334.036 46.068C333.308 45.41 332.356 45.074 331.166 45.074C329.724 45.074 328.618 45.536 327.834 46.46C327.05 47.384 326.658 48.602 326.658 50.114C326.658 51.612 327.05 52.83 327.834 53.754C328.618 54.664 329.724 55.126 331.166 55.126ZM339.888 55.126C340.994 55.126 341.834 54.776 342.422 54.09C343.01 53.404 343.304 52.494 343.304 51.388C343.304 50.282 343.01 49.386 342.408 48.7C341.82 48 340.98 47.65 339.888 47.65C338.796 47.65 337.956 48 337.354 48.7C336.766 49.386 336.472 50.282 336.472 51.388C336.472 52.494 336.766 53.404 337.34 54.09C337.928 54.776 338.782 55.126 339.888 55.126ZM339.888 53.712C338.712 53.712 338.096 52.858 338.096 51.388C338.096 50.646 338.25 50.086 338.544 49.68C338.838 49.274 339.286 49.064 339.888 49.064C340.49 49.064 340.938 49.274 341.232 49.68C341.526 50.086 341.68 50.646 341.68 51.388C341.68 52.942 341.078 53.712 339.888 53.712ZM346.473 55V51.01C346.473 49.82 347.117 49.092 348.125 49.092C349.105 49.092 349.595 49.624 349.595 50.674V55H351.191V50.282C351.191 48.644 350.197 47.65 348.587 47.65C347.621 47.65 346.921 48 346.473 48.714H346.417L346.291 47.776H344.877V55H346.473ZM355.838 55.126C356.328 55.126 356.748 55.07 357.07 54.972V53.628H356.93C356.72 53.698 356.482 53.726 356.23 53.726C355.572 53.726 355.292 53.432 355.292 52.746V49.134H357.042V47.776H355.292V45.858H355.152L353.766 46.25V47.776H352.506V49.134H353.696V53.026C353.696 54.426 354.41 55.126 355.838 55.126ZM360.771 55.126C361.737 55.126 362.451 54.804 362.899 54.146H362.955L363.067 55H364.467V50.184C364.467 49.442 364.201 48.84 363.669 48.364C363.137 47.888 362.409 47.65 361.485 47.65C359.693 47.65 358.587 48.644 358.587 50.044H360.099C360.113 49.428 360.617 48.966 361.457 48.966C362.409 48.966 362.885 49.47 362.885 50.198V50.87C362.353 50.716 361.793 50.632 361.205 50.632C359.231 50.632 358.251 51.528 358.251 52.872C358.251 53.53 358.475 54.062 358.923 54.496C359.385 54.916 360.001 55.126 360.771 55.126ZM361.135 53.852C360.295 53.852 359.847 53.432 359.847 52.816C359.847 52.158 360.365 51.78 361.317 51.78C361.863 51.78 362.395 51.864 362.885 52.032V52.27C362.885 53.152 362.185 53.852 361.135 53.852ZM369.338 55.126C371.242 55.126 372.32 54.048 372.446 52.382H370.85C370.752 53.222 370.192 53.726 369.296 53.726C368.106 53.726 367.518 52.858 367.518 51.388C367.518 49.932 368.106 49.064 369.296 49.064C370.192 49.064 370.766 49.582 370.836 50.408H372.432C372.32 48.77 371.242 47.65 369.296 47.65C367.126 47.65 365.894 49.106 365.894 51.388C365.894 52.522 366.188 53.432 366.79 54.118C367.392 54.79 368.246 55.126 369.338 55.126ZM376.756 55.126C377.246 55.126 377.666 55.07 377.988 54.972V53.628H377.848C377.638 53.698 377.4 53.726 377.148 53.726C376.49 53.726 376.21 53.432 376.21 52.746V49.134H377.96V47.776H376.21V45.858H376.07L374.684 46.25V47.776H373.424V49.134H374.614V53.026C374.614 54.426 375.328 55.126 376.756 55.126ZM387.863 55.126C389.039 55.126 389.991 54.804 390.705 54.16C391.419 53.516 391.839 52.676 391.965 51.64H390.299C390.075 52.872 389.277 53.628 387.863 53.628C385.959 53.628 385.035 52.228 385.035 50.114C385.035 49.064 385.273 48.21 385.735 47.566C386.197 46.908 386.911 46.586 387.863 46.586C389.319 46.586 390.159 47.412 390.285 48.658H391.965C391.867 47.594 391.461 46.726 390.733 46.068C390.005 45.41 389.053 45.074 387.863 45.074C386.421 45.074 385.315 45.536 384.531 46.46C383.747 47.384 383.355 48.602 383.355 50.114C383.355 51.612 383.747 52.83 384.531 53.754C385.315 54.664 386.421 55.126 387.863 55.126ZM396.585 55.126C397.425 55.126 398.125 54.902 398.699 54.468C399.273 54.034 399.623 53.474 399.721 52.802H398.167C397.985 53.46 397.453 53.782 396.585 53.782C395.451 53.782 394.821 53.026 394.821 51.836H399.819V51.164C399.819 50.142 399.525 49.302 398.951 48.644C398.377 47.986 397.579 47.65 396.557 47.65C395.465 47.65 394.625 48 394.037 48.7C393.463 49.4 393.169 50.296 393.169 51.388C393.169 52.48 393.477 53.376 394.079 54.076C394.681 54.776 395.521 55.126 396.585 55.126ZM394.835 50.702C394.877 49.694 395.451 49.008 396.557 49.008C397.607 49.008 398.167 49.694 398.181 50.702H394.835ZM402.993 55V51.01C402.993 49.82 403.637 49.092 404.645 49.092C405.625 49.092 406.115 49.624 406.115 50.674V55H407.711V50.282C407.711 48.644 406.717 47.65 405.107 47.65C404.141 47.65 403.441 48 402.993 48.714H402.937L402.811 47.776H401.397V55H402.993ZM412.358 55.126C412.848 55.126 413.268 55.07 413.59 54.972V53.628H413.45C413.24 53.698 413.002 53.726 412.75 53.726C412.092 53.726 411.812 53.432 411.812 52.746V49.134H413.562V47.776H411.812V45.858H411.672L410.286 46.25V47.776H409.026V49.134H410.216V53.026C410.216 54.426 410.93 55.126 412.358 55.126ZM418.187 55.126C419.027 55.126 419.727 54.902 420.301 54.468C420.875 54.034 421.225 53.474 421.323 52.802H419.769C419.587 53.46 419.055 53.782 418.187 53.782C417.053 53.782 416.423 53.026 416.423 51.836H421.421V51.164C421.421 50.142 421.127 49.302 420.553 48.644C419.979 47.986 419.181 47.65 418.159 47.65C417.067 47.65 416.227 48 415.639 48.7C415.065 49.4 414.771 50.296 414.771 51.388C414.771 52.48 415.079 53.376 415.681 54.076C416.283 54.776 417.123 55.126 418.187 55.126ZM416.437 50.702C416.479 49.694 417.053 49.008 418.159 49.008C419.209 49.008 419.769 49.694 419.783 50.702H416.437ZM424.539 55V51.472C424.539 50.002 425.169 49.162 426.387 49.162H427.003V47.678H426.415C425.519 47.678 424.833 48.154 424.539 48.924H424.483L424.343 47.776H422.999V55H424.539Z" fill="white"/>
<circle cx="307" cy="51" r="11.5" fill="url(#paint18_linear)" stroke="url(#paint19_linear)"/>
<circle cx="307" cy="51" r="11.5" fill="url(#paint20_linear)" stroke="url(#paint21_linear)"/>
<path d="M309.012 52.4119L308.034 53.6345C306.519 52.7443 305.257 51.4818 304.367 49.9667L305.589 48.989C305.733 48.8743 305.834 48.7154 305.877 48.537C305.921 48.3587 305.904 48.171 305.829 48.0032L304.715 45.4932C304.635 45.3134 304.494 45.1678 304.316 45.0823C304.139 44.9969 303.937 44.9772 303.747 45.0268L301.625 45.5765C301.427 45.6284 301.255 45.751 301.141 45.9211C301.027 46.0912 300.98 46.2971 301.008 46.4998C301.38 49.1512 302.605 51.6093 304.499 53.5025C306.392 55.3957 308.85 56.6211 311.501 56.9934C311.704 57.0213 311.91 56.974 312.08 56.8603C312.25 56.7466 312.372 56.5744 312.424 56.3765L312.974 54.2554C313.024 54.0649 313.004 53.863 312.919 53.6857C312.833 53.5084 312.688 53.3672 312.508 53.2872L309.998 52.1727C309.83 52.0983 309.643 52.0814 309.464 52.1247C309.286 52.168 309.127 52.2689 309.012 52.4119V52.4119Z" stroke="#6880C5" stroke-linecap="round" stroke-linejoin="round"/>
<defs>
<linearGradient id="paint0_linear" x1="117" y1="87" x2="92.5645" y2="110.548" gradientUnits="userSpaceOnUse">
<stop stop-color="#136F63" stop-opacity="0.3"/>
<stop offset="1" stop-color="#136F63" stop-opacity="0.1"/>
</linearGradient>
<linearGradient id="paint1_linear" x1="117" y1="87" x2="103.21" y2="100.569" gradientUnits="userSpaceOnUse">
<stop stop-color="#136F63" stop-opacity="0.75"/>
<stop offset="1" stop-color="#136F63" stop-opacity="0"/>
</linearGradient>
<linearGradient id="paint2_linear" x1="596" y1="87" x2="571.565" y2="110.548" gradientUnits="userSpaceOnUse">
<stop stop-color="#F97068" stop-opacity="0.3"/>
<stop offset="1" stop-color="#F97068" stop-opacity="0.1"/>
</linearGradient>
<linearGradient id="paint3_linear" x1="596" y1="87" x2="582.21" y2="100.569" gradientUnits="userSpaceOnUse">
<stop stop-color="#F97068" stop-opacity="0.75"/>
<stop offset="1" stop-color="#F97068" stop-opacity="0"/>
</linearGradient>
<linearGradient id="paint4_linear" x1="241" y1="87" x2="216.565" y2="110.548" gradientUnits="userSpaceOnUse">
<stop stop-color="#DDCAD9" stop-opacity="0.3"/>
<stop offset="1" stop-color="#DDCAD9" stop-opacity="0.1"/>
</linearGradient>
<linearGradient id="paint5_linear" x1="241" y1="87" x2="227.21" y2="100.569" gradientUnits="userSpaceOnUse">
<stop stop-color="#DDCAD9" stop-opacity="0.75"/>
<stop offset="1" stop-color="#DDCAD9" stop-opacity="0"/>
</linearGradient>
<linearGradient id="paint6_linear" x1="364" y1="87" x2="339.565" y2="110.548" gradientUnits="userSpaceOnUse">
<stop stop-color="white" stop-opacity="0.3"/>
<stop offset="1" stop-color="white" stop-opacity="0.1"/>
</linearGradient>
<linearGradient id="paint7_linear" x1="364" y1="87" x2="342.333" y2="110.599" gradientUnits="userSpaceOnUse">
<stop stop-color="white" stop-opacity="0.75"/>
<stop offset="1" stop-color="white" stop-opacity="0"/>
</linearGradient>
<linearGradient id="paint8_linear" x1="482" y1="87" x2="457.565" y2="110.548" gradientUnits="userSpaceOnUse">
<stop stop-color="#A8E8EC" stop-opacity="0.3"/>
<stop offset="1" stop-color="#A8E8EC" stop-opacity="0.1"/>
</linearGradient>
<linearGradient id="paint9_linear" x1="482" y1="87" x2="468.21" y2="100.569" gradientUnits="userSpaceOnUse">
<stop stop-color="#A8E8EC" stop-opacity="0.75"/>
<stop offset="1" stop-color="#A8E8EC" stop-opacity="0"/>
</linearGradient>
<linearGradient id="paint10_linear" x1="209" y1="39" x2="184.565" y2="62.5481" gradientUnits="userSpaceOnUse">
<stop stop-color="#FFE8A3" stop-opacity="0.3"/>
<stop offset="1" stop-color="#FFE8A3" stop-opacity="0.1"/>
</linearGradient>
<linearGradient id="paint11_linear" x1="209" y1="39" x2="195.21" y2="52.5689" gradientUnits="userSpaceOnUse">
<stop stop-color="#FFE8A3" stop-opacity="0.75"/>
<stop offset="1" stop-color="#FFE8A3" stop-opacity="0"/>
</linearGradient>
<linearGradient id="paint12_linear" x1="52" y1="39" x2="27.5645" y2="62.5481" gradientUnits="userSpaceOnUse">
<stop stop-color="#FFC1A6" stop-opacity="0.3"/>
<stop offset="1" stop-color="#FFC1A6" stop-opacity="0.1"/>
</linearGradient>
<linearGradient id="paint13_linear" x1="52" y1="39" x2="38.2098" y2="52.5689" gradientUnits="userSpaceOnUse">
<stop stop-color="#FFC1A6" stop-opacity="0.75"/>
<stop offset="1" stop-color="#FFC1A6" stop-opacity="0"/>
</linearGradient>
<linearGradient id="paint14_linear" x1="492" y1="39" x2="467.565" y2="62.5481" gradientUnits="userSpaceOnUse">
<stop stop-color="#FF6375" stop-opacity="0.3"/>
<stop offset="1" stop-color="#FF6375" stop-opacity="0.1"/>
</linearGradient>
<linearGradient id="paint15_linear" x1="492" y1="39" x2="478.21" y2="52.5689" gradientUnits="userSpaceOnUse">
<stop stop-color="#FF6375" stop-opacity="0.75"/>
<stop offset="1" stop-color="#FF6375" stop-opacity="0"/>
</linearGradient>
<linearGradient id="paint16_linear" x1="671" y1="39" x2="646.565" y2="62.5481" gradientUnits="userSpaceOnUse">
<stop stop-color="#006E90" stop-opacity="0.3"/>
<stop offset="1" stop-color="#006E90" stop-opacity="0.1"/>
</linearGradient>
<linearGradient id="paint17_linear" x1="671" y1="39" x2="657.21" y2="52.5689" gradientUnits="userSpaceOnUse">
<stop stop-color="#006E90" stop-opacity="0.75"/>
<stop offset="1" stop-color="#006E90" stop-opacity="0"/>
</linearGradient>
<linearGradient id="paint18_linear" x1="319" y1="39" x2="294.565" y2="62.5481" gradientUnits="userSpaceOnUse">
<stop stop-color="white" stop-opacity="0.3"/>
<stop offset="1" stop-color="white" stop-opacity="0.1"/>
</linearGradient>
<linearGradient id="paint19_linear" x1="319" y1="39" x2="297.333" y2="62.5993" gradientUnits="userSpaceOnUse">
<stop stop-color="white" stop-opacity="0.75"/>
<stop offset="1" stop-color="white" stop-opacity="0"/>
</linearGradient>
<linearGradient id="paint20_linear" x1="319" y1="39" x2="294.565" y2="62.5481" gradientUnits="userSpaceOnUse">
<stop stop-color="#7180AC" stop-opacity="0.3"/>
<stop offset="1" stop-color="#7180AC" stop-opacity="0.1"/>
</linearGradient>
<linearGradient id="paint21_linear" x1="319" y1="39" x2="305.21" y2="52.5689" gradientUnits="userSpaceOnUse">
<stop stop-color="#7180AC" stop-opacity="0.75"/>
<stop offset="1" stop-color="#7180AC" stop-opacity="0"/>
</linearGradient>
</defs>
</svg>
