<svg width="645" height="150" viewBox="0 0 645 150" fill="none" xmlns="http://www.w3.org/2000/svg">
<rect width="645" height="150" fill="#452947"/>
<path d="M394.55 103L396.454 95.748H396.51L398.372 103H400.29L402.642 93.34V93.2H400.948L399.338 100.606H399.282L397.35 93.2H395.586L393.682 100.606H393.626L391.988 93.2H390.294V93.34L392.632 103H394.55ZM405.521 103.126C406.487 103.126 407.201 102.804 407.649 102.146H407.705L407.817 103H409.217V98.184C409.217 97.442 408.951 96.84 408.419 96.364C407.887 95.888 407.159 95.65 406.235 95.65C404.443 95.65 403.337 96.644 403.337 98.044H404.849C404.863 97.428 405.367 96.966 406.207 96.966C407.159 96.966 407.635 97.47 407.635 98.198V98.87C407.103 98.716 406.543 98.632 405.955 98.632C403.981 98.632 403.001 99.528 403.001 100.872C403.001 101.53 403.225 102.062 403.673 102.496C404.135 102.916 404.751 103.126 405.521 103.126ZM405.885 101.852C405.045 101.852 404.597 101.432 404.597 100.816C404.597 100.158 405.115 99.78 406.067 99.78C406.613 99.78 407.145 99.864 407.635 100.032V100.27C407.635 101.152 406.935 101.852 405.885 101.852ZM412.66 103V99.472C412.66 98.002 413.29 97.162 414.508 97.162H415.124V95.678H414.536C413.64 95.678 412.954 96.154 412.66 96.924H412.604L412.464 95.776H411.12V103H412.66ZM418.566 103V99.472C418.566 98.002 419.196 97.162 420.414 97.162H421.03V95.678H420.442C419.546 95.678 418.86 96.154 418.566 96.924H418.51L418.37 95.776H417.026V103H418.566ZM424.443 103.126C425.409 103.126 426.123 102.804 426.571 102.146H426.627L426.739 103H428.139V98.184C428.139 97.442 427.873 96.84 427.341 96.364C426.809 95.888 426.081 95.65 425.157 95.65C423.365 95.65 422.259 96.644 422.259 98.044H423.771C423.785 97.428 424.289 96.966 425.129 96.966C426.081 96.966 426.557 97.47 426.557 98.198V98.87C426.025 98.716 425.465 98.632 424.877 98.632C422.903 98.632 421.923 99.528 421.923 100.872C421.923 101.53 422.147 102.062 422.595 102.496C423.057 102.916 423.673 103.126 424.443 103.126ZM424.807 101.852C423.967 101.852 423.519 101.432 423.519 100.816C423.519 100.158 424.037 99.78 424.989 99.78C425.535 99.78 426.067 99.864 426.557 100.032V100.27C426.557 101.152 425.857 101.852 424.807 101.852ZM431.638 103V99.01C431.638 97.82 432.282 97.092 433.29 97.092C434.27 97.092 434.76 97.624 434.76 98.674V103H436.356V98.282C436.356 96.644 435.362 95.65 433.752 95.65C432.786 95.65 432.086 96 431.638 96.714H431.582L431.456 95.776H430.042V103H431.638ZM441.002 103.126C441.492 103.126 441.912 103.07 442.234 102.972V101.628H442.094C441.884 101.698 441.646 101.726 441.394 101.726C440.736 101.726 440.456 101.432 440.456 100.746V97.134H442.206V95.776H440.456V93.858H440.316L438.93 94.25V95.776H437.67V97.134H438.86V101.026C438.86 102.426 439.574 103.126 441.002 103.126ZM446.425 106.206L450.261 95.916V95.776H448.567L446.691 101.208H446.635L444.759 95.776H443.093V95.916L445.725 102.958L445.893 102.972L444.745 106.066V106.206H446.425ZM458.521 103.126C459.361 103.126 460.061 102.902 460.635 102.468C461.209 102.034 461.559 101.474 461.657 100.802H460.103C459.921 101.46 459.389 101.782 458.521 101.782C457.387 101.782 456.757 101.026 456.757 99.836H461.755V99.164C461.755 98.142 461.461 97.302 460.887 96.644C460.313 95.986 459.515 95.65 458.493 95.65C457.401 95.65 456.561 96 455.973 96.7C455.399 97.4 455.105 98.296 455.105 99.388C455.105 100.48 455.413 101.376 456.015 102.076C456.617 102.776 457.457 103.126 458.521 103.126ZM456.771 98.702C456.813 97.694 457.387 97.008 458.493 97.008C459.543 97.008 460.103 97.694 460.117 98.702H456.771ZM464.023 103L465.731 100.368H465.787L467.467 103H469.203V102.86L466.823 99.346L469.133 95.916V95.776H467.411L465.787 98.338H465.731L464.093 95.776H462.371V95.916L464.681 99.36L462.287 102.86V103H464.023ZM473.131 103.126C473.621 103.126 474.041 103.07 474.363 102.972V101.628H474.223C474.013 101.698 473.775 101.726 473.523 101.726C472.865 101.726 472.585 101.432 472.585 100.746V97.134H474.335V95.776H472.585V93.858H472.445L471.059 94.25V95.776H469.799V97.134H470.989V101.026C470.989 102.426 471.703 103.126 473.131 103.126ZM478.96 103.126C479.8 103.126 480.5 102.902 481.074 102.468C481.648 102.034 481.998 101.474 482.096 100.802H480.542C480.36 101.46 479.828 101.782 478.96 101.782C477.826 101.782 477.196 101.026 477.196 99.836H482.194V99.164C482.194 98.142 481.9 97.302 481.326 96.644C480.752 95.986 479.954 95.65 478.932 95.65C477.84 95.65 477 96 476.412 96.7C475.838 97.4 475.544 98.296 475.544 99.388C475.544 100.48 475.852 101.376 476.454 102.076C477.056 102.776 477.896 103.126 478.96 103.126ZM477.21 98.702C477.252 97.694 477.826 97.008 478.932 97.008C479.982 97.008 480.542 97.694 480.556 98.702H477.21ZM485.368 103V99.01C485.368 97.82 486.012 97.092 487.02 97.092C488 97.092 488.49 97.624 488.49 98.674V103H490.086V98.282C490.086 96.644 489.092 95.65 487.482 95.65C486.516 95.65 485.816 96 485.368 96.714H485.312L485.186 95.776H483.772V103H485.368ZM494.579 103.126C495.447 103.126 496.161 102.93 496.721 102.552C497.295 102.16 497.575 101.628 497.575 100.942C497.575 99.654 496.861 99.08 495.475 98.786L494.243 98.548C493.613 98.45 493.291 98.184 493.291 97.764C493.291 97.246 493.767 96.938 494.495 96.938C495.321 96.938 495.797 97.344 495.839 98.016H497.407C497.407 96.616 496.259 95.65 494.523 95.65C492.801 95.65 491.737 96.532 491.737 97.75C491.737 98.898 492.409 99.612 493.739 99.878L495.013 100.116C495.643 100.242 495.965 100.522 495.965 100.942C495.965 101.488 495.503 101.754 494.579 101.754C493.669 101.754 493.109 101.306 493.109 100.592H491.513C491.555 102.146 492.675 103.126 494.579 103.126ZM498.915 93.662C498.915 94.292 499.279 94.67 499.937 94.67C500.259 94.67 500.511 94.586 500.693 94.404C500.875 94.222 500.959 93.97 500.959 93.662C500.959 93.354 500.875 93.116 500.693 92.934C500.511 92.752 500.259 92.668 499.937 92.668C499.265 92.668 498.915 93.046 498.915 93.662ZM500.735 103V95.776H499.139V103H500.735ZM505.579 103.126C506.685 103.126 507.525 102.776 508.113 102.09C508.701 101.404 508.995 100.494 508.995 99.388C508.995 98.282 508.701 97.386 508.099 96.7C507.511 96 506.671 95.65 505.579 95.65C504.487 95.65 503.647 96 503.045 96.7C502.457 97.386 502.163 98.282 502.163 99.388C502.163 100.494 502.457 101.404 503.031 102.09C503.619 102.776 504.473 103.126 505.579 103.126ZM505.579 101.712C504.403 101.712 503.787 100.858 503.787 99.388C503.787 98.646 503.941 98.086 504.235 97.68C504.529 97.274 504.977 97.064 505.579 97.064C506.181 97.064 506.629 97.274 506.923 97.68C507.217 98.086 507.371 98.646 507.371 99.388C507.371 100.942 506.769 101.712 505.579 101.712ZM512.165 103V99.01C512.165 97.82 512.809 97.092 513.817 97.092C514.797 97.092 515.287 97.624 515.287 98.674V103H516.883V98.282C516.883 96.644 515.889 95.65 514.279 95.65C513.313 95.65 512.613 96 512.165 96.714H512.109L511.983 95.776H510.569V103H512.165Z" fill="white"/>
<circle cx="371" cy="99" r="11.5" fill="url(#paint0_linear)" stroke="url(#paint1_linear)"/>
<path d="M365.733 105C364.776 105 364 104.225 364 103.267V98.9336H367.467V103.267C367.467 104.225 366.691 105 365.733 105Z" stroke="#F97068" stroke-miterlimit="10" stroke-linecap="round" stroke-linejoin="round"/>
<path d="M367.467 98.9333V92H377V103.267C377 104.224 376.224 105 375.267 105H365.733" stroke="#F97068" stroke-miterlimit="10" stroke-linecap="round" stroke-linejoin="round"/>
<path d="M370.066 94.5996H374.4" stroke="#F97068" stroke-miterlimit="10" stroke-linecap="round" stroke-linejoin="round"/>
<path d="M370.066 97.1992H374.4" stroke="#F97068" stroke-miterlimit="10" stroke-linecap="round" stroke-linejoin="round"/>
<path d="M370.066 99.8008H374.4" stroke="#F97068" stroke-miterlimit="10" stroke-linecap="round" stroke-linejoin="round"/>
<path d="M370.066 102.4H371.8" stroke="#F97068" stroke-miterlimit="10" stroke-linecap="round" stroke-linejoin="round"/>
<path d="M167.702 98.1C167.702 96.616 167.31 95.412 166.54 94.474C165.77 93.536 164.65 93.074 163.18 93.074C161.71 93.074 160.576 93.536 159.806 94.474C159.036 95.412 158.658 96.616 158.658 98.1C158.658 99.57 159.036 100.788 159.806 101.726C160.576 102.664 161.71 103.126 163.18 103.126C163.866 103.126 164.468 103.014 165.014 102.804L165.882 104.022H167.576V103.882L166.26 102.02C167.226 101.096 167.702 99.794 167.702 98.1ZM163.18 101.614C161.262 101.614 160.338 100.214 160.338 98.1C160.338 97.05 160.562 96.196 161.024 95.552C161.486 94.908 162.214 94.586 163.18 94.586C165.098 94.586 166.022 95.986 166.022 98.1C166.022 99.192 165.784 100.046 165.308 100.676L164.552 99.598H162.858V99.738L164.09 101.488C163.824 101.572 163.516 101.614 163.18 101.614ZM173.921 100.004C173.921 101.096 173.417 101.642 172.409 101.642C171.401 101.642 170.897 101.096 170.897 100.004V95.776H169.301V100.256C169.301 101.082 169.567 101.768 170.113 102.314C170.659 102.846 171.429 103.112 172.409 103.112C174.369 103.112 175.517 101.936 175.517 100.256V95.776H173.921V100.004ZM179.523 103.126C180.489 103.126 181.203 102.804 181.651 102.146H181.707L181.819 103H183.219V98.184C183.219 97.442 182.953 96.84 182.421 96.364C181.889 95.888 181.161 95.65 180.237 95.65C178.445 95.65 177.339 96.644 177.339 98.044H178.851C178.865 97.428 179.369 96.966 180.209 96.966C181.161 96.966 181.637 97.47 181.637 98.198V98.87C181.105 98.716 180.545 98.632 179.957 98.632C177.983 98.632 177.003 99.528 177.003 100.872C177.003 101.53 177.227 102.062 177.675 102.496C178.137 102.916 178.753 103.126 179.523 103.126ZM179.887 101.852C179.047 101.852 178.599 101.432 178.599 100.816C178.599 100.158 179.117 99.78 180.069 99.78C180.615 99.78 181.147 99.864 181.637 100.032V100.27C181.637 101.152 180.937 101.852 179.887 101.852ZM186.718 103V92.64H185.122V103H186.718ZM188.398 93.662C188.398 94.292 188.762 94.67 189.42 94.67C189.742 94.67 189.994 94.586 190.176 94.404C190.358 94.222 190.442 93.97 190.442 93.662C190.442 93.354 190.358 93.116 190.176 92.934C189.994 92.752 189.742 92.668 189.42 92.668C188.748 92.668 188.398 93.046 188.398 93.662ZM190.218 103V95.776H188.622V103H190.218ZM194.866 103.126C195.356 103.126 195.776 103.07 196.098 102.972V101.628H195.958C195.748 101.698 195.51 101.726 195.258 101.726C194.6 101.726 194.32 101.432 194.32 100.746V97.134H196.07V95.776H194.32V93.858H194.18L192.794 94.25V95.776H191.534V97.134H192.724V101.026C192.724 102.426 193.438 103.126 194.866 103.126ZM200.288 106.206L204.124 95.916V95.776H202.43L200.554 101.208H200.498L198.622 95.776H196.956V95.916L199.588 102.958L199.756 102.972L198.608 106.066V106.206H200.288Z" fill="white"/>
<circle cx="139" cy="99" r="11.5" fill="url(#paint2_linear)" stroke="url(#paint3_linear)"/>
<path d="M139 92.9968L140.87 96.7845L140.986 97.0202L141.246 97.058L145.425 97.6653L142.401 100.613L142.213 100.797L142.257 101.056L142.971 105.219L139.233 103.254L139 103.131L138.767 103.254L135.029 105.219L135.743 101.056L135.787 100.797L135.599 100.613L132.575 97.6653L136.754 97.058L137.014 97.0202L137.13 96.7845L139 92.9968Z" stroke="white"/>
<path d="M282.538 99.108C283.784 98.702 284.568 97.624 284.568 96.224C284.568 95.37 284.274 94.642 283.7 94.068C283.126 93.494 282.342 93.2 281.362 93.2H277.218V103H278.856V99.304H280.816L283.182 103H285.044V102.86L282.538 99.108ZM281.264 94.684C282.314 94.684 282.874 95.286 282.874 96.238C282.874 97.204 282.328 97.82 281.264 97.82H278.856V94.684H281.264ZM289.341 103.126C290.181 103.126 290.881 102.902 291.455 102.468C292.029 102.034 292.379 101.474 292.477 100.802H290.923C290.741 101.46 290.209 101.782 289.341 101.782C288.207 101.782 287.577 101.026 287.577 99.836H292.575V99.164C292.575 98.142 292.281 97.302 291.707 96.644C291.133 95.986 290.335 95.65 289.313 95.65C288.221 95.65 287.381 96 286.793 96.7C286.219 97.4 285.925 98.296 285.925 99.388C285.925 100.48 286.233 101.376 286.835 102.076C287.437 102.776 288.277 103.126 289.341 103.126ZM287.591 98.702C287.633 97.694 288.207 97.008 289.313 97.008C290.363 97.008 290.923 97.694 290.937 98.702H287.591ZM295.749 106.206V102.132H295.805C296.239 102.79 296.925 103.126 297.863 103.126C298.815 103.126 299.557 102.776 300.075 102.09C300.607 101.404 300.873 100.494 300.873 99.388C300.873 98.254 300.607 97.344 300.061 96.672C299.515 95.986 298.787 95.65 297.863 95.65C296.925 95.65 296.239 95.986 295.805 96.644H295.749L295.567 95.776H294.153V106.206H295.749ZM297.471 101.712C296.281 101.712 295.693 100.746 295.693 99.388C295.693 98.03 296.281 97.064 297.471 97.064C298.703 97.064 299.263 98.002 299.263 99.388C299.263 100.774 298.703 101.712 297.471 101.712ZM304.496 103.126C305.462 103.126 306.176 102.804 306.624 102.146H306.68L306.792 103H308.192V98.184C308.192 97.442 307.926 96.84 307.394 96.364C306.862 95.888 306.134 95.65 305.21 95.65C303.418 95.65 302.312 96.644 302.312 98.044H303.824C303.838 97.428 304.342 96.966 305.182 96.966C306.134 96.966 306.61 97.47 306.61 98.198V98.87C306.078 98.716 305.518 98.632 304.93 98.632C302.956 98.632 301.976 99.528 301.976 100.872C301.976 101.53 302.2 102.062 302.648 102.496C303.11 102.916 303.726 103.126 304.496 103.126ZM304.86 101.852C304.02 101.852 303.572 101.432 303.572 100.816C303.572 100.158 304.09 99.78 305.042 99.78C305.588 99.78 306.12 99.864 306.61 100.032V100.27C306.61 101.152 305.91 101.852 304.86 101.852ZM309.87 93.662C309.87 94.292 310.234 94.67 310.892 94.67C311.214 94.67 311.466 94.586 311.648 94.404C311.83 94.222 311.914 93.97 311.914 93.662C311.914 93.354 311.83 93.116 311.648 92.934C311.466 92.752 311.214 92.668 310.892 92.668C310.22 92.668 309.87 93.046 309.87 93.662ZM311.69 103V95.776H310.094V103H311.69ZM315.134 103V99.472C315.134 98.002 315.764 97.162 316.982 97.162H317.598V95.678H317.01C316.114 95.678 315.428 96.154 315.134 96.924H315.078L314.938 95.776H313.594V103H315.134Z" fill="white"/>
<circle cx="257" cy="99" r="11.5" fill="url(#paint4_linear)" stroke="url(#paint5_linear)"/>
<path d="M251 103.4L252.6 105L259.79 97.7895L258.21 96.1895L251 103.4Z" stroke="#A8E8EC" stroke-linecap="round" stroke-linejoin="round"/>
<path d="M256.61 97.7891L258.21 99.3891" stroke="#A8E8EC" stroke-linecap="round" stroke-linejoin="round"/>
<path d="M263 93L260.6 95.4" stroke="#A8E8EC" stroke-linecap="round" stroke-linejoin="round"/>
<path d="M260.6 93L263 95.4" stroke="#A8E8EC" stroke-linecap="round" stroke-linejoin="round"/>
<path d="M263 101L260.6 103.4" stroke="#A8E8EC" stroke-linecap="round" stroke-linejoin="round"/>
<path d="M260.6 101L263 103.4" stroke="#A8E8EC" stroke-linecap="round" stroke-linejoin="round"/>
<path d="M255.8 93L253.4 95.4" stroke="#A8E8EC" stroke-linecap="round" stroke-linejoin="round"/>
<path d="M253.4 93L255.8 95.4" stroke="#A8E8EC" stroke-linecap="round" stroke-linejoin="round"/>
<path d="M221.614 55C223.56 55 224.736 53.95 224.736 52.172C224.736 51.01 224.246 50.226 223.252 49.806V49.75C223.994 49.344 224.372 48.686 224.372 47.748C224.372 46.166 223.21 45.2 221.474 45.2H217.218V55H221.614ZM218.842 46.656H221.264C222.202 46.656 222.706 47.104 222.706 47.874C222.706 48.756 222.16 49.218 221.166 49.218H218.842V46.656ZM218.842 50.646H221.376C222.482 50.646 223.056 51.192 223.056 52.088C223.056 52.984 222.44 53.53 221.376 53.53H218.842V50.646ZM227.886 55V51.472C227.886 50.002 228.516 49.162 229.734 49.162H230.35V47.678H229.762C228.866 47.678 228.18 48.154 227.886 48.924H227.83L227.69 47.776H226.346V55H227.886ZM233.763 55.126C234.729 55.126 235.443 54.804 235.891 54.146H235.947L236.059 55H237.459V50.184C237.459 49.442 237.193 48.84 236.661 48.364C236.129 47.888 235.401 47.65 234.477 47.65C232.685 47.65 231.579 48.644 231.579 50.044H233.091C233.105 49.428 233.609 48.966 234.449 48.966C235.401 48.966 235.877 49.47 235.877 50.198V50.87C235.345 50.716 234.785 50.632 234.197 50.632C232.223 50.632 231.243 51.528 231.243 52.872C231.243 53.53 231.467 54.062 231.915 54.496C232.377 54.916 232.993 55.126 233.763 55.126ZM234.127 53.852C233.287 53.852 232.839 53.432 232.839 52.816C232.839 52.158 233.357 51.78 234.309 51.78C234.855 51.78 235.387 51.864 235.877 52.032V52.27C235.877 53.152 235.177 53.852 234.127 53.852ZM240.958 55V51.01C240.958 49.82 241.602 49.092 242.61 49.092C243.59 49.092 244.08 49.624 244.08 50.674V55H245.676V50.282C245.676 48.644 244.682 47.65 243.072 47.65C242.106 47.65 241.406 48 240.958 48.714H240.902L240.776 47.776H239.362V55H240.958ZM250.113 55.126C251.051 55.126 251.751 54.79 252.185 54.132H252.241L252.423 55H253.837V44.64H252.241V48.644H252.185C251.751 47.986 251.051 47.65 250.113 47.65C249.175 47.65 248.433 48 247.901 48.686C247.383 49.372 247.117 50.268 247.103 51.374C247.117 52.508 247.383 53.418 247.915 54.104C248.461 54.79 249.189 55.126 250.113 55.126ZM250.505 53.712C249.273 53.712 248.727 52.76 248.727 51.374C248.727 50.016 249.273 49.064 250.505 49.064C251.723 49.064 252.297 50.016 252.297 51.374C252.297 52.732 251.695 53.712 250.505 53.712Z" fill="white"/>
<circle cx="197" cy="51" r="11.5" fill="url(#paint6_linear)" stroke="url(#paint7_linear)"/>
<path d="M192.5 43.5L197.5 44.5L204.5 51.5L197.5 58.5L190.5 51.5L189.5 46.5L192.5 43.5Z" stroke="#FFE8A3" stroke-miterlimit="10" stroke-linecap="round" stroke-linejoin="round"/>
<path d="M194 49C194.552 49 195 48.5523 195 48C195 47.4477 194.552 47 194 47C193.448 47 193 47.4477 193 48C193 48.5523 193.448 49 194 49Z" fill="#FFE8A3"/>
<path d="M62.794 45.2L59.294 54.86V55H61.03L61.8 52.732H65.804L66.574 55H68.366V54.86L64.852 45.2H62.794ZM63.774 46.922H63.83L65.314 51.29H62.29L63.774 46.922ZM71.2157 58.206V54.132H71.2717C71.7057 54.79 72.3917 55.126 73.3297 55.126C74.2817 55.126 75.0237 54.776 75.5417 54.09C76.0737 53.404 76.3397 52.494 76.3397 51.388C76.3397 50.254 76.0737 49.344 75.5277 48.672C74.9817 47.986 74.2537 47.65 73.3297 47.65C72.3917 47.65 71.7057 47.986 71.2717 48.644H71.2157L71.0337 47.776H69.6197V58.206H71.2157ZM72.9377 53.712C71.7477 53.712 71.1597 52.746 71.1597 51.388C71.1597 50.03 71.7477 49.064 72.9377 49.064C74.1697 49.064 74.7297 50.002 74.7297 51.388C74.7297 52.774 74.1697 53.712 72.9377 53.712ZM79.5145 58.206V54.132H79.5705C80.0045 54.79 80.6905 55.126 81.6285 55.126C82.5805 55.126 83.3225 54.776 83.8405 54.09C84.3725 53.404 84.6385 52.494 84.6385 51.388C84.6385 50.254 84.3725 49.344 83.8265 48.672C83.2805 47.986 82.5525 47.65 81.6285 47.65C80.6905 47.65 80.0045 47.986 79.5705 48.644H79.5145L79.3325 47.776H77.9185V58.206H79.5145ZM81.2365 53.712C80.0465 53.712 79.4585 52.746 79.4585 51.388C79.4585 50.03 80.0465 49.064 81.2365 49.064C82.4685 49.064 83.0285 50.002 83.0285 51.388C83.0285 52.774 82.4685 53.712 81.2365 53.712ZM89.1573 55.126C90.2633 55.126 91.1033 54.776 91.6913 54.09C92.2793 53.404 92.5733 52.494 92.5733 51.388C92.5733 50.282 92.2793 49.386 91.6773 48.7C91.0893 48 90.2493 47.65 89.1573 47.65C88.0653 47.65 87.2253 48 86.6233 48.7C86.0353 49.386 85.7413 50.282 85.7413 51.388C85.7413 52.494 86.0353 53.404 86.6093 54.09C87.1973 54.776 88.0513 55.126 89.1573 55.126ZM89.1573 53.712C87.9813 53.712 87.3653 52.858 87.3653 51.388C87.3653 50.646 87.5193 50.086 87.8133 49.68C88.1073 49.274 88.5553 49.064 89.1573 49.064C89.7593 49.064 90.2073 49.274 90.5013 49.68C90.7953 50.086 90.9493 50.646 90.9493 51.388C90.9493 52.942 90.3473 53.712 89.1573 53.712ZM93.923 45.662C93.923 46.292 94.287 46.67 94.945 46.67C95.267 46.67 95.519 46.586 95.701 46.404C95.883 46.222 95.967 45.97 95.967 45.662C95.967 45.354 95.883 45.116 95.701 44.934C95.519 44.752 95.267 44.668 94.945 44.668C94.273 44.668 93.923 45.046 93.923 45.662ZM95.743 55V47.776H94.147V55H95.743ZM99.243 55V51.01C99.243 49.82 99.887 49.092 100.895 49.092C101.875 49.092 102.365 49.624 102.365 50.674V55H103.961V50.282C103.961 48.644 102.967 47.65 101.357 47.65C100.391 47.65 99.691 48 99.243 48.714H99.187L99.061 47.776H97.647V55H99.243ZM108.608 55.126C109.098 55.126 109.518 55.07 109.84 54.972V53.628H109.7C109.49 53.698 109.252 53.726 109 53.726C108.342 53.726 108.062 53.432 108.062 52.746V49.134H109.812V47.776H108.062V45.858H107.922L106.536 46.25V47.776H105.276V49.134H106.466V53.026C106.466 54.426 107.18 55.126 108.608 55.126ZM119.645 47.65C118.609 47.65 117.853 48.028 117.391 48.784H117.349C116.929 48.028 116.201 47.65 115.179 47.65C114.241 47.65 113.541 48 113.093 48.714H113.037L112.911 47.776H111.497V55H113.093V51.01C113.093 49.82 113.737 49.092 114.703 49.092C115.641 49.092 116.103 49.624 116.103 50.674V55H117.685V51.01C117.685 49.82 118.259 49.092 119.225 49.092C120.163 49.092 120.625 49.624 120.625 50.674V55H122.221V50.282C122.221 48.658 121.227 47.65 119.645 47.65ZM127.069 55.126C127.909 55.126 128.609 54.902 129.183 54.468C129.757 54.034 130.107 53.474 130.205 52.802H128.651C128.469 53.46 127.937 53.782 127.069 53.782C125.935 53.782 125.305 53.026 125.305 51.836H130.303V51.164C130.303 50.142 130.009 49.302 129.435 48.644C128.861 47.986 128.063 47.65 127.041 47.65C125.949 47.65 125.109 48 124.521 48.7C123.947 49.4 123.653 50.296 123.653 51.388C123.653 52.48 123.961 53.376 124.563 54.076C125.165 54.776 126.005 55.126 127.069 55.126ZM125.319 50.702C125.361 49.694 125.935 49.008 127.041 49.008C128.091 49.008 128.651 49.694 128.665 50.702H125.319ZM133.477 55V51.01C133.477 49.82 134.121 49.092 135.129 49.092C136.109 49.092 136.599 49.624 136.599 50.674V55H138.195V50.282C138.195 48.644 137.201 47.65 135.591 47.65C134.625 47.65 133.925 48 133.477 48.714H133.421L133.295 47.776H131.881V55H133.477ZM142.842 55.126C143.332 55.126 143.752 55.07 144.074 54.972V53.628H143.934C143.724 53.698 143.486 53.726 143.234 53.726C142.576 53.726 142.296 53.432 142.296 52.746V49.134H144.046V47.776H142.296V45.858H142.156L140.77 46.25V47.776H139.51V49.134H140.7V53.026C140.7 54.426 141.414 55.126 142.842 55.126Z" fill="white"/>
<circle cx="40" cy="51" r="11.5" fill="url(#paint8_linear)" stroke="url(#paint9_linear)"/>
<path d="M35 49H46.2004" stroke="#FFC1A6" stroke-miterlimit="10" stroke-linecap="round" stroke-linejoin="round"/>
<path d="M45.4003 46.5996H35.8C35.3584 46.5996 35 46.958 35 47.3996V56.1999C35 56.6415 35.3584 56.9999 35.8 56.9999H45.4003C45.842 56.9999 46.2004 56.6415 46.2004 56.1999V47.3996C46.2004 46.958 45.842 46.5996 45.4003 46.5996Z" stroke="#FFC1A6" stroke-miterlimit="10" stroke-linecap="round" stroke-linejoin="round"/>
<path d="M37.3999 45V46.6001" stroke="#FFC1A6" stroke-miterlimit="10" stroke-linecap="round" stroke-linejoin="round"/>
<path d="M43.8003 45V46.6001" stroke="#FFC1A6" stroke-miterlimit="10" stroke-linecap="round" stroke-linejoin="round"/>
<path d="M40.6001 45V46.6001" stroke="#FFC1A6" stroke-miterlimit="10" stroke-linecap="round" stroke-linejoin="round"/>
<path d="M504.166 55.126C505.342 55.126 506.294 54.804 507.008 54.16C507.722 53.516 508.142 52.676 508.268 51.64H506.602C506.378 52.872 505.58 53.628 504.166 53.628C502.262 53.628 501.338 52.228 501.338 50.114C501.338 49.064 501.576 48.21 502.038 47.566C502.5 46.908 503.214 46.586 504.166 46.586C505.622 46.586 506.462 47.412 506.588 48.658H508.268C508.17 47.594 507.764 46.726 507.036 46.068C506.308 45.41 505.356 45.074 504.166 45.074C502.724 45.074 501.618 45.536 500.834 46.46C500.05 47.384 499.658 48.602 499.658 50.114C499.658 51.612 500.05 52.83 500.834 53.754C501.618 54.664 502.724 55.126 504.166 55.126ZM514.484 52.004C514.484 53.096 513.98 53.642 512.972 53.642C511.964 53.642 511.46 53.096 511.46 52.004V47.776H509.864V52.256C509.864 53.082 510.13 53.768 510.676 54.314C511.222 54.846 511.992 55.112 512.972 55.112C514.932 55.112 516.08 53.936 516.08 52.256V47.776H514.484V52.004ZM520.632 55.126C521.5 55.126 522.214 54.93 522.774 54.552C523.348 54.16 523.628 53.628 523.628 52.942C523.628 51.654 522.914 51.08 521.528 50.786L520.296 50.548C519.666 50.45 519.344 50.184 519.344 49.764C519.344 49.246 519.82 48.938 520.548 48.938C521.374 48.938 521.85 49.344 521.892 50.016H523.46C523.46 48.616 522.312 47.65 520.576 47.65C518.854 47.65 517.79 48.532 517.79 49.75C517.79 50.898 518.462 51.612 519.792 51.878L521.066 52.116C521.696 52.242 522.018 52.522 522.018 52.942C522.018 53.488 521.556 53.754 520.632 53.754C519.722 53.754 519.162 53.306 519.162 52.592H517.566C517.608 54.146 518.728 55.126 520.632 55.126ZM527.936 55.126C528.426 55.126 528.846 55.07 529.168 54.972V53.628H529.028C528.818 53.698 528.58 53.726 528.328 53.726C527.67 53.726 527.39 53.432 527.39 52.746V49.134H529.14V47.776H527.39V45.858H527.25L525.864 46.25V47.776H524.604V49.134H525.794V53.026C525.794 54.426 526.508 55.126 527.936 55.126ZM533.765 55.126C534.871 55.126 535.711 54.776 536.299 54.09C536.887 53.404 537.181 52.494 537.181 51.388C537.181 50.282 536.887 49.386 536.285 48.7C535.697 48 534.857 47.65 533.765 47.65C532.673 47.65 531.833 48 531.231 48.7C530.643 49.386 530.349 50.282 530.349 51.388C530.349 52.494 530.643 53.404 531.217 54.09C531.805 54.776 532.659 55.126 533.765 55.126ZM533.765 53.712C532.589 53.712 531.973 52.858 531.973 51.388C531.973 50.646 532.127 50.086 532.421 49.68C532.715 49.274 533.163 49.064 533.765 49.064C534.367 49.064 534.815 49.274 535.109 49.68C535.403 50.086 535.557 50.646 535.557 51.388C535.557 52.942 534.955 53.712 533.765 53.712ZM546.902 47.65C545.866 47.65 545.11 48.028 544.648 48.784H544.606C544.186 48.028 543.458 47.65 542.436 47.65C541.498 47.65 540.798 48 540.35 48.714H540.294L540.168 47.776H538.754V55H540.35V51.01C540.35 49.82 540.994 49.092 541.96 49.092C542.898 49.092 543.36 49.624 543.36 50.674V55H544.942V51.01C544.942 49.82 545.516 49.092 546.482 49.092C547.42 49.092 547.882 49.624 547.882 50.674V55H549.478V50.282C549.478 48.658 548.484 47.65 546.902 47.65ZM554.327 55.126C555.167 55.126 555.867 54.902 556.441 54.468C557.015 54.034 557.365 53.474 557.463 52.802H555.909C555.727 53.46 555.195 53.782 554.327 53.782C553.193 53.782 552.563 53.026 552.563 51.836H557.561V51.164C557.561 50.142 557.267 49.302 556.693 48.644C556.119 47.986 555.321 47.65 554.299 47.65C553.207 47.65 552.367 48 551.779 48.7C551.205 49.4 550.911 50.296 550.911 51.388C550.911 52.48 551.219 53.376 551.821 54.076C552.423 54.776 553.263 55.126 554.327 55.126ZM552.577 50.702C552.619 49.694 553.193 49.008 554.299 49.008C555.349 49.008 555.909 49.694 555.923 50.702H552.577ZM560.679 55V51.472C560.679 50.002 561.309 49.162 562.527 49.162H563.143V47.678H562.555C561.659 47.678 560.973 48.154 560.679 48.924H560.623L560.483 47.776H559.139V55H560.679ZM572.056 55.126C574.562 55.126 575.906 54.02 575.906 52.228C575.906 50.702 574.912 49.722 572.938 49.316L571.608 49.036C570.656 48.826 570.18 48.42 570.18 47.818C570.18 46.978 570.796 46.558 572.042 46.558C573.344 46.558 574.016 47.16 574.072 48.112H575.738C575.724 47.202 575.388 46.474 574.702 45.914C574.03 45.354 573.148 45.074 572.07 45.074C570.964 45.074 570.096 45.326 569.452 45.83C568.808 46.32 568.486 46.992 568.486 47.818C568.486 49.386 569.466 50.198 571.272 50.59L572.7 50.898C573.722 51.122 574.212 51.514 574.212 52.256C574.212 53.194 573.498 53.656 572.056 53.656C570.712 53.656 569.9 53.012 569.83 51.878H568.164C568.262 53.88 569.634 55.126 572.056 55.126ZM580.454 55.126C581.294 55.126 581.994 54.902 582.568 54.468C583.142 54.034 583.492 53.474 583.59 52.802H582.036C581.854 53.46 581.322 53.782 580.454 53.782C579.32 53.782 578.69 53.026 578.69 51.836H583.688V51.164C583.688 50.142 583.394 49.302 582.82 48.644C582.246 47.986 581.448 47.65 580.426 47.65C579.334 47.65 578.494 48 577.906 48.7C577.332 49.4 577.038 50.296 577.038 51.388C577.038 52.48 577.346 53.376 577.948 54.076C578.55 54.776 579.39 55.126 580.454 55.126ZM578.704 50.702C578.746 49.694 579.32 49.008 580.426 49.008C581.476 49.008 582.036 49.694 582.05 50.702H578.704ZM586.806 55V51.472C586.806 50.002 587.436 49.162 588.654 49.162H589.27V47.678H588.682C587.786 47.678 587.1 48.154 586.806 48.924H586.75L586.61 47.776H585.266V55H586.806ZM594.526 55L597.088 47.916V47.776H595.464L593.63 53.348H593.574L591.684 47.776H590.046V47.916L592.65 55H594.526ZM598.112 45.662C598.112 46.292 598.476 46.67 599.134 46.67C599.456 46.67 599.708 46.586 599.89 46.404C600.072 46.222 600.156 45.97 600.156 45.662C600.156 45.354 600.072 45.116 599.89 44.934C599.708 44.752 599.456 44.668 599.134 44.668C598.462 44.668 598.112 45.046 598.112 45.662ZM599.932 55V47.776H598.336V55H599.932ZM604.804 55.126C606.708 55.126 607.786 54.048 607.912 52.382H606.316C606.218 53.222 605.658 53.726 604.762 53.726C603.572 53.726 602.984 52.858 602.984 51.388C602.984 49.932 603.572 49.064 604.762 49.064C605.658 49.064 606.232 49.582 606.302 50.408H607.898C607.786 48.77 606.708 47.65 604.762 47.65C602.592 47.65 601.36 49.106 601.36 51.388C601.36 52.522 601.654 53.432 602.256 54.118C602.858 54.79 603.712 55.126 604.804 55.126ZM612.419 55.126C613.259 55.126 613.959 54.902 614.533 54.468C615.107 54.034 615.457 53.474 615.555 52.802H614.001C613.819 53.46 613.287 53.782 612.419 53.782C611.285 53.782 610.655 53.026 610.655 51.836H615.653V51.164C615.653 50.142 615.359 49.302 614.785 48.644C614.211 47.986 613.413 47.65 612.391 47.65C611.299 47.65 610.459 48 609.871 48.7C609.297 49.4 609.003 50.296 609.003 51.388C609.003 52.48 609.311 53.376 609.913 54.076C610.515 54.776 611.355 55.126 612.419 55.126ZM610.669 50.702C610.711 49.694 611.285 49.008 612.391 49.008C613.441 49.008 614.001 49.694 614.015 50.702H610.669Z" fill="white"/>
<circle cx="480" cy="51" r="11.5" fill="url(#paint10_linear)" stroke="url(#paint11_linear)"/>
<path d="M475.308 47.7692C476.073 47.7692 476.693 47.1493 476.693 46.3846C476.693 45.6199 476.073 45 475.308 45C474.544 45 473.924 45.6199 473.924 46.3846C473.924 47.1493 474.544 47.7692 475.308 47.7692Z" stroke="#006E90" stroke-linecap="round" stroke-linejoin="round"/>
<path d="M476.693 53.3083V57.0006H473.001V51.4621C472.994 51.2178 473.037 50.9746 473.127 50.7474C473.217 50.5203 473.353 50.3139 473.526 50.1411C473.699 49.9682 473.905 49.8325 474.132 49.7422C474.359 49.6519 474.603 49.609 474.847 49.616C476.532 49.616 476.878 51.1511 479.001 52.8467" stroke="#006E90" stroke-linecap="round" stroke-linejoin="round"/>
<path d="M483.155 53.3083V57.0006H486.847V51.4621C486.854 51.2178 486.811 50.9746 486.721 50.7474C486.631 50.5203 486.495 50.3139 486.322 50.1411C486.149 49.9682 485.943 49.8325 485.716 49.7422C485.489 49.6519 485.245 49.609 485.001 49.616C483.315 49.616 482.97 51.1511 480.847 52.8467" stroke="#006E90" stroke-linecap="round" stroke-linejoin="round"/>
<path d="M484.539 47.7692C485.304 47.7692 485.924 47.1493 485.924 46.3846C485.924 45.6199 485.304 45 484.539 45C483.775 45 483.155 45.6199 483.155 46.3846C483.155 47.1493 483.775 47.7692 484.539 47.7692Z" stroke="#006E90" stroke-linecap="round" stroke-linejoin="round"/>
<path d="M331.166 55.126C332.342 55.126 333.294 54.804 334.008 54.16C334.722 53.516 335.142 52.676 335.268 51.64H333.602C333.378 52.872 332.58 53.628 331.166 53.628C329.262 53.628 328.338 52.228 328.338 50.114C328.338 49.064 328.576 48.21 329.038 47.566C329.5 46.908 330.214 46.586 331.166 46.586C332.622 46.586 333.462 47.412 333.588 48.658H335.268C335.17 47.594 334.764 46.726 334.036 46.068C333.308 45.41 332.356 45.074 331.166 45.074C329.724 45.074 328.618 45.536 327.834 46.46C327.05 47.384 326.658 48.602 326.658 50.114C326.658 51.612 327.05 52.83 327.834 53.754C328.618 54.664 329.724 55.126 331.166 55.126ZM339.888 55.126C340.994 55.126 341.834 54.776 342.422 54.09C343.01 53.404 343.304 52.494 343.304 51.388C343.304 50.282 343.01 49.386 342.408 48.7C341.82 48 340.98 47.65 339.888 47.65C338.796 47.65 337.956 48 337.354 48.7C336.766 49.386 336.472 50.282 336.472 51.388C336.472 52.494 336.766 53.404 337.34 54.09C337.928 54.776 338.782 55.126 339.888 55.126ZM339.888 53.712C338.712 53.712 338.096 52.858 338.096 51.388C338.096 50.646 338.25 50.086 338.544 49.68C338.838 49.274 339.286 49.064 339.888 49.064C340.49 49.064 340.938 49.274 341.232 49.68C341.526 50.086 341.68 50.646 341.68 51.388C341.68 52.942 341.078 53.712 339.888 53.712ZM346.473 55V51.01C346.473 49.82 347.117 49.092 348.125 49.092C349.105 49.092 349.595 49.624 349.595 50.674V55H351.191V50.282C351.191 48.644 350.197 47.65 348.587 47.65C347.621 47.65 346.921 48 346.473 48.714H346.417L346.291 47.776H344.877V55H346.473ZM355.838 55.126C356.328 55.126 356.748 55.07 357.07 54.972V53.628H356.93C356.72 53.698 356.482 53.726 356.23 53.726C355.572 53.726 355.292 53.432 355.292 52.746V49.134H357.042V47.776H355.292V45.858H355.152L353.766 46.25V47.776H352.506V49.134H353.696V53.026C353.696 54.426 354.41 55.126 355.838 55.126ZM360.771 55.126C361.737 55.126 362.451 54.804 362.899 54.146H362.955L363.067 55H364.467V50.184C364.467 49.442 364.201 48.84 363.669 48.364C363.137 47.888 362.409 47.65 361.485 47.65C359.693 47.65 358.587 48.644 358.587 50.044H360.099C360.113 49.428 360.617 48.966 361.457 48.966C362.409 48.966 362.885 49.47 362.885 50.198V50.87C362.353 50.716 361.793 50.632 361.205 50.632C359.231 50.632 358.251 51.528 358.251 52.872C358.251 53.53 358.475 54.062 358.923 54.496C359.385 54.916 360.001 55.126 360.771 55.126ZM361.135 53.852C360.295 53.852 359.847 53.432 359.847 52.816C359.847 52.158 360.365 51.78 361.317 51.78C361.863 51.78 362.395 51.864 362.885 52.032V52.27C362.885 53.152 362.185 53.852 361.135 53.852ZM369.338 55.126C371.242 55.126 372.32 54.048 372.446 52.382H370.85C370.752 53.222 370.192 53.726 369.296 53.726C368.106 53.726 367.518 52.858 367.518 51.388C367.518 49.932 368.106 49.064 369.296 49.064C370.192 49.064 370.766 49.582 370.836 50.408H372.432C372.32 48.77 371.242 47.65 369.296 47.65C367.126 47.65 365.894 49.106 365.894 51.388C365.894 52.522 366.188 53.432 366.79 54.118C367.392 54.79 368.246 55.126 369.338 55.126ZM376.756 55.126C377.246 55.126 377.666 55.07 377.988 54.972V53.628H377.848C377.638 53.698 377.4 53.726 377.148 53.726C376.49 53.726 376.21 53.432 376.21 52.746V49.134H377.96V47.776H376.21V45.858H376.07L374.684 46.25V47.776H373.424V49.134H374.614V53.026C374.614 54.426 375.328 55.126 376.756 55.126ZM387.863 55.126C389.039 55.126 389.991 54.804 390.705 54.16C391.419 53.516 391.839 52.676 391.965 51.64H390.299C390.075 52.872 389.277 53.628 387.863 53.628C385.959 53.628 385.035 52.228 385.035 50.114C385.035 49.064 385.273 48.21 385.735 47.566C386.197 46.908 386.911 46.586 387.863 46.586C389.319 46.586 390.159 47.412 390.285 48.658H391.965C391.867 47.594 391.461 46.726 390.733 46.068C390.005 45.41 389.053 45.074 387.863 45.074C386.421 45.074 385.315 45.536 384.531 46.46C383.747 47.384 383.355 48.602 383.355 50.114C383.355 51.612 383.747 52.83 384.531 53.754C385.315 54.664 386.421 55.126 387.863 55.126ZM396.585 55.126C397.425 55.126 398.125 54.902 398.699 54.468C399.273 54.034 399.623 53.474 399.721 52.802H398.167C397.985 53.46 397.453 53.782 396.585 53.782C395.451 53.782 394.821 53.026 394.821 51.836H399.819V51.164C399.819 50.142 399.525 49.302 398.951 48.644C398.377 47.986 397.579 47.65 396.557 47.65C395.465 47.65 394.625 48 394.037 48.7C393.463 49.4 393.169 50.296 393.169 51.388C393.169 52.48 393.477 53.376 394.079 54.076C394.681 54.776 395.521 55.126 396.585 55.126ZM394.835 50.702C394.877 49.694 395.451 49.008 396.557 49.008C397.607 49.008 398.167 49.694 398.181 50.702H394.835ZM402.993 55V51.01C402.993 49.82 403.637 49.092 404.645 49.092C405.625 49.092 406.115 49.624 406.115 50.674V55H407.711V50.282C407.711 48.644 406.717 47.65 405.107 47.65C404.141 47.65 403.441 48 402.993 48.714H402.937L402.811 47.776H401.397V55H402.993ZM412.358 55.126C412.848 55.126 413.268 55.07 413.59 54.972V53.628H413.45C413.24 53.698 413.002 53.726 412.75 53.726C412.092 53.726 411.812 53.432 411.812 52.746V49.134H413.562V47.776H411.812V45.858H411.672L410.286 46.25V47.776H409.026V49.134H410.216V53.026C410.216 54.426 410.93 55.126 412.358 55.126ZM418.187 55.126C419.027 55.126 419.727 54.902 420.301 54.468C420.875 54.034 421.225 53.474 421.323 52.802H419.769C419.587 53.46 419.055 53.782 418.187 53.782C417.053 53.782 416.423 53.026 416.423 51.836H421.421V51.164C421.421 50.142 421.127 49.302 420.553 48.644C419.979 47.986 419.181 47.65 418.159 47.65C417.067 47.65 416.227 48 415.639 48.7C415.065 49.4 414.771 50.296 414.771 51.388C414.771 52.48 415.079 53.376 415.681 54.076C416.283 54.776 417.123 55.126 418.187 55.126ZM416.437 50.702C416.479 49.694 417.053 49.008 418.159 49.008C419.209 49.008 419.769 49.694 419.783 50.702H416.437ZM424.539 55V51.472C424.539 50.002 425.169 49.162 426.387 49.162H427.003V47.678H426.415C425.519 47.678 424.833 48.154 424.539 48.924H424.483L424.343 47.776H422.999V55H424.539Z" fill="white"/>
<circle cx="307" cy="51" r="11.5" fill="url(#paint12_linear)" stroke="url(#paint13_linear)"/>
<circle cx="307" cy="51" r="11.5" fill="url(#paint14_linear)" stroke="url(#paint15_linear)"/>
<path d="M309.012 52.4119L308.034 53.6345C306.519 52.7443 305.257 51.4818 304.367 49.9667L305.589 48.989C305.733 48.8743 305.834 48.7154 305.877 48.537C305.921 48.3587 305.904 48.171 305.829 48.0032L304.715 45.4932C304.635 45.3134 304.494 45.1678 304.316 45.0823C304.139 44.9969 303.937 44.9772 303.747 45.0268L301.625 45.5765C301.427 45.6284 301.255 45.751 301.141 45.9211C301.027 46.0912 300.98 46.2971 301.008 46.4998C301.38 49.1512 302.605 51.6093 304.499 53.5025C306.392 55.3957 308.85 56.6211 311.501 56.9934C311.704 57.0213 311.91 56.974 312.08 56.8603C312.25 56.7466 312.372 56.5744 312.424 56.3765L312.974 54.2554C313.024 54.0649 313.004 53.863 312.919 53.6857C312.833 53.5084 312.688 53.3672 312.508 53.2872L309.998 52.1727C309.83 52.0983 309.643 52.0814 309.464 52.1247C309.286 52.168 309.127 52.2689 309.012 52.4119V52.4119Z" stroke="#6880C5" stroke-linecap="round" stroke-linejoin="round"/>
<defs>
<linearGradient id="paint0_linear" x1="383" y1="87" x2="358.565" y2="110.548" gradientUnits="userSpaceOnUse">
<stop stop-color="#F97068" stop-opacity="0.3"/>
<stop offset="1" stop-color="#F97068" stop-opacity="0.1"/>
</linearGradient>
<linearGradient id="paint1_linear" x1="383" y1="87" x2="369.21" y2="100.569" gradientUnits="userSpaceOnUse">
<stop stop-color="#F97068" stop-opacity="0.75"/>
<stop offset="1" stop-color="#F97068" stop-opacity="0"/>
</linearGradient>
<linearGradient id="paint2_linear" x1="151" y1="87" x2="126.565" y2="110.548" gradientUnits="userSpaceOnUse">
<stop stop-color="white" stop-opacity="0.3"/>
<stop offset="1" stop-color="white" stop-opacity="0.1"/>
</linearGradient>
<linearGradient id="paint3_linear" x1="151" y1="87" x2="129.333" y2="110.599" gradientUnits="userSpaceOnUse">
<stop stop-color="white" stop-opacity="0.75"/>
<stop offset="1" stop-color="white" stop-opacity="0"/>
</linearGradient>
<linearGradient id="paint4_linear" x1="269" y1="87" x2="244.565" y2="110.548" gradientUnits="userSpaceOnUse">
<stop stop-color="#A8E8EC" stop-opacity="0.3"/>
<stop offset="1" stop-color="#A8E8EC" stop-opacity="0.1"/>
</linearGradient>
<linearGradient id="paint5_linear" x1="269" y1="87" x2="255.21" y2="100.569" gradientUnits="userSpaceOnUse">
<stop stop-color="#A8E8EC" stop-opacity="0.75"/>
<stop offset="1" stop-color="#A8E8EC" stop-opacity="0"/>
</linearGradient>
<linearGradient id="paint6_linear" x1="209" y1="39" x2="184.565" y2="62.5481" gradientUnits="userSpaceOnUse">
<stop stop-color="#FFE8A3" stop-opacity="0.3"/>
<stop offset="1" stop-color="#FFE8A3" stop-opacity="0.1"/>
</linearGradient>
<linearGradient id="paint7_linear" x1="209" y1="39" x2="195.21" y2="52.5689" gradientUnits="userSpaceOnUse">
<stop stop-color="#FFE8A3" stop-opacity="0.75"/>
<stop offset="1" stop-color="#FFE8A3" stop-opacity="0"/>
</linearGradient>
<linearGradient id="paint8_linear" x1="52" y1="39" x2="27.5645" y2="62.5481" gradientUnits="userSpaceOnUse">
<stop stop-color="#FFC1A6" stop-opacity="0.3"/>
<stop offset="1" stop-color="#FFC1A6" stop-opacity="0.1"/>
</linearGradient>
<linearGradient id="paint9_linear" x1="52" y1="39" x2="38.2098" y2="52.5689" gradientUnits="userSpaceOnUse">
<stop stop-color="#FFC1A6" stop-opacity="0.75"/>
<stop offset="1" stop-color="#FFC1A6" stop-opacity="0"/>
</linearGradient>
<linearGradient id="paint10_linear" x1="492" y1="39" x2="467.565" y2="62.5481" gradientUnits="userSpaceOnUse">
<stop stop-color="#006E90" stop-opacity="0.3"/>
<stop offset="1" stop-color="#006E90" stop-opacity="0.1"/>
</linearGradient>
<linearGradient id="paint11_linear" x1="492" y1="39" x2="478.21" y2="52.5689" gradientUnits="userSpaceOnUse">
<stop stop-color="#006E90" stop-opacity="0.75"/>
<stop offset="1" stop-color="#006E90" stop-opacity="0"/>
</linearGradient>
<linearGradient id="paint12_linear" x1="319" y1="39" x2="294.565" y2="62.5481" gradientUnits="userSpaceOnUse">
<stop stop-color="white" stop-opacity="0.3"/>
<stop offset="1" stop-color="white" stop-opacity="0.1"/>
</linearGradient>
<linearGradient id="paint13_linear" x1="319" y1="39" x2="297.333" y2="62.5993" gradientUnits="userSpaceOnUse">
<stop stop-color="white" stop-opacity="0.75"/>
<stop offset="1" stop-color="white" stop-opacity="0"/>
</linearGradient>
<linearGradient id="paint14_linear" x1="319" y1="39" x2="294.565" y2="62.5481" gradientUnits="userSpaceOnUse">
<stop stop-color="#7180AC" stop-opacity="0.3"/>
<stop offset="1" stop-color="#7180AC" stop-opacity="0.1"/>
</linearGradient>
<linearGradient id="paint15_linear" x1="319" y1="39" x2="305.21" y2="52.5689" gradientUnits="userSpaceOnUse">
<stop stop-color="#7180AC" stop-opacity="0.75"/>
<stop offset="1" stop-color="#7180AC" stop-opacity="0"/>
</linearGradient>
</defs>
</svg>
