<svg width="562" height="562" viewBox="0 0 562 562" fill="none" xmlns="http://www.w3.org/2000/svg">
<path d="M281 561C206.739 561 135.52 531.5 83.0101 478.99C30.4999 426.48 1 355.261 1 281C1 206.739 30.4999 135.52 83.0101 83.0101C135.52 30.4999 206.739 1 281 1C355.261 1 426.48 30.4999 478.99 83.0101C531.5 135.52 561 206.739 561 281C561 355.261 531.5 426.48 478.99 478.99C426.48 531.5 355.261 561 281 561V561Z" stroke="white"/>
<path d="M177.476 431.307C139.308 431.307 102.703 416.145 75.7144 389.156C48.7256 362.167 33.5635 325.563 33.5635 287.395C33.5635 249.227 48.7256 212.622 75.7144 185.633C102.703 158.645 139.308 143.482 177.476 143.482C215.644 143.482 252.248 158.645 279.237 185.633C306.226 212.622 321.388 249.227 321.388 287.395C321.388 325.563 306.226 362.167 279.237 389.156C252.248 416.145 215.644 431.307 177.476 431.307Z" fill="white" fill-opacity="0.05"/>
<path d="M177.476 430.807C139.441 430.807 102.963 415.698 76.068 388.803C49.173 361.908 34.0635 325.43 34.0635 287.395C34.0635 249.359 49.173 212.882 76.068 185.987C102.963 159.092 139.441 143.982 177.476 143.982C215.511 143.982 251.989 159.092 278.884 185.987C305.779 212.882 320.888 249.359 320.888 287.395C320.888 325.43 305.779 361.908 278.884 388.803C251.989 415.698 215.511 430.807 177.476 430.807Z" stroke="white" stroke-opacity="0.3"/>
<path d="M441.13 405.238C409.876 405.238 379.902 392.823 357.802 370.723C335.702 348.623 323.287 318.649 323.287 287.395C323.287 256.14 335.702 226.166 357.802 204.066C379.902 181.966 409.876 169.551 441.13 169.551C472.384 169.551 502.359 181.966 524.458 204.066C546.558 226.166 558.974 256.14 558.974 287.395C558.974 318.649 546.558 348.623 524.458 370.723C502.359 392.823 472.384 405.238 441.13 405.238Z" fill="#A8E8EC" fill-opacity="0.1"/>
<path d="M441.13 404.738C410.009 404.738 380.162 392.375 358.156 370.369C336.15 348.363 323.787 318.516 323.787 287.395C323.787 256.273 336.15 226.426 358.156 204.42C380.162 182.414 410.009 170.051 441.13 170.051C472.252 170.051 502.099 182.414 524.105 204.42C546.111 226.426 558.474 256.273 558.474 287.395C558.474 318.516 546.111 348.363 524.105 370.369C502.099 392.375 472.252 404.738 441.13 404.738Z" stroke="#A8E8EC" stroke-opacity="0.3"/>
<path d="M329.304 509.566C310.87 509.566 293.192 502.243 280.158 489.209C267.124 476.175 259.802 458.497 259.802 440.064C259.802 421.631 267.124 403.953 280.158 390.919C293.192 377.885 310.87 370.562 329.304 370.562C347.737 370.562 365.415 377.885 378.449 390.919C391.483 403.953 398.805 421.631 398.805 440.064C398.805 458.497 391.483 476.175 378.449 489.209C365.415 502.243 347.737 509.566 329.304 509.566Z" fill="#006E90" fill-opacity="0.1"/>
<path d="M329.304 509.066C311.003 509.066 293.452 501.796 280.512 488.856C267.572 475.916 260.302 458.365 260.302 440.064C260.302 421.764 267.572 404.213 280.512 391.273C293.452 378.332 311.003 371.062 329.304 371.062C347.604 371.062 365.155 378.332 378.095 391.273C391.035 404.213 398.305 421.764 398.305 440.064C398.305 458.365 391.035 475.916 378.095 488.856C365.155 501.796 347.604 509.066 329.304 509.066Z" stroke="#006E90" stroke-opacity="0.3"/>
<path d="M329.613 203.274C310.35 203.274 291.877 195.622 278.256 182.001C264.635 168.381 256.983 149.907 256.983 130.645C256.983 111.382 264.635 92.9088 278.256 79.2882C291.877 65.6676 310.35 58.0156 329.613 58.0156C348.875 58.0156 367.349 65.6676 380.969 79.2882C394.59 92.9088 402.242 111.382 402.242 130.645C402.242 149.907 394.59 168.381 380.969 182.001C367.349 195.622 348.875 203.274 329.613 203.274Z" fill="#FFC1A6" fill-opacity="0.1"/>
<path d="M329.613 202.774C310.483 202.774 292.136 195.175 278.61 181.648C265.083 168.121 257.483 149.775 257.483 130.645C257.483 111.515 265.083 93.1686 278.61 79.6418C292.136 66.1149 310.483 58.5156 329.613 58.5156C348.742 58.5156 367.089 66.1149 380.616 79.6418C394.142 93.1686 401.742 111.515 401.742 130.645C401.742 149.775 394.142 168.121 380.616 181.648C367.089 195.175 348.742 202.774 329.613 202.774Z" stroke="#FFC1A6" stroke-opacity="0.3"/>
<path d="M209.571 546.076C194.266 546.076 179.587 539.996 168.765 529.173C157.942 518.351 151.862 503.672 151.862 488.367C151.862 473.062 157.942 458.383 168.765 447.561C179.587 436.738 194.266 430.658 209.571 430.658C224.876 430.658 239.555 436.738 250.377 447.561C261.2 458.383 267.28 473.062 267.28 488.367C267.28 503.672 261.2 518.351 250.377 529.173C239.555 539.996 224.876 546.076 209.571 546.076Z" fill="#7180AC" fill-opacity="0.1"/>
<path d="M209.571 545.576C194.398 545.576 179.847 539.548 169.118 528.82C158.39 518.091 152.362 503.54 152.362 488.367C152.362 473.194 158.39 458.643 169.118 447.914C179.847 437.186 194.398 431.158 209.571 431.158C224.744 431.158 239.295 437.186 250.024 447.914C260.753 458.643 266.78 473.194 266.78 488.367C266.78 503.54 260.753 518.091 250.024 528.82C239.295 539.548 224.744 545.576 209.571 545.576Z" stroke="#7180AC" stroke-opacity="0.3"/>
<path d="M202.026 143.035C185.431 143.035 169.515 136.442 157.78 124.708C146.046 112.973 139.453 97.0573 139.453 80.4618C139.453 63.8664 146.046 47.9507 157.78 36.2159C169.515 24.4812 185.431 17.8887 202.026 17.8887C218.622 17.8887 234.537 24.4812 246.272 36.2159C258.007 47.9507 264.599 63.8664 264.599 80.4618C264.599 97.0573 258.007 112.973 246.272 124.708C234.537 136.442 218.622 143.035 202.026 143.035Z" fill="#FF6375" fill-opacity="0.1"/>
<path d="M202.026 142.535C185.563 142.535 169.775 135.995 158.134 124.354C146.493 112.713 139.953 96.9247 139.953 80.4618C139.953 63.999 146.493 48.2105 158.134 36.5695C169.775 24.9285 185.563 18.3887 202.026 18.3887C218.489 18.3887 234.278 24.9285 245.919 36.5695C257.56 48.2105 264.099 63.999 264.099 80.4618C264.099 96.9247 257.56 112.713 245.919 124.354C234.278 135.995 218.489 142.535 202.026 142.535Z" stroke="#FF6375" stroke-opacity="0.3"/>
<path d="M434.865 475.343C425.803 475.343 417.112 471.743 410.705 465.336C404.297 458.928 400.697 450.237 400.697 441.175C400.697 432.114 404.297 423.423 410.705 417.015C417.112 410.608 425.803 407.008 434.865 407.008C443.927 407.008 452.617 410.608 459.025 417.015C465.433 423.423 469.033 432.114 469.033 441.175C469.033 450.237 465.433 458.928 459.025 465.336C452.617 471.743 443.927 475.343 434.865 475.343Z" fill="#FFE8A3" fill-opacity="0.1"/>
<path d="M434.865 474.843C425.936 474.843 417.372 471.296 411.058 464.982C404.744 458.668 401.197 450.105 401.197 441.175C401.197 432.246 404.744 423.683 411.058 417.369C417.372 411.055 425.936 407.508 434.865 407.508C443.794 407.508 452.358 411.055 458.671 417.369C464.985 423.683 468.533 432.246 468.533 441.175C468.533 450.105 464.985 458.668 458.671 464.982C452.358 471.296 443.794 474.843 434.865 474.843Z" stroke="#FFE8A3" stroke-opacity="0.3"/>
<path d="M435.881 167.743C431.696 167.743 427.551 166.919 423.685 165.317C419.818 163.715 416.305 161.368 413.346 158.409C410.386 155.449 408.039 151.936 406.437 148.069C404.836 144.203 404.011 140.059 404.011 135.873C404.011 131.688 404.836 127.544 406.437 123.677C408.039 119.811 410.386 116.298 413.346 113.338C416.305 110.379 419.818 108.031 423.685 106.43C427.551 104.828 431.696 104.004 435.881 104.004C440.066 104.004 444.21 104.828 448.077 106.43C451.943 108.031 455.457 110.379 458.416 113.338C461.375 116.298 463.723 119.811 465.324 123.677C466.926 127.544 467.75 131.688 467.75 135.873C467.75 140.059 466.926 144.203 465.324 148.069C463.723 151.936 461.375 155.449 458.416 158.409C455.457 161.368 451.943 163.715 448.077 165.317C444.21 166.919 440.066 167.743 435.881 167.743Z" fill="#136F63" fill-opacity="0.1"/>
<path d="M435.881 167.243C431.761 167.243 427.682 166.432 423.876 164.855C420.07 163.279 416.612 160.968 413.699 158.055C410.786 155.142 408.476 151.684 406.899 147.878C405.323 144.072 404.511 139.993 404.511 135.873C404.511 131.754 405.323 127.675 406.899 123.869C408.476 120.063 410.786 116.605 413.699 113.692C416.612 110.779 420.07 108.468 423.876 106.892C427.682 105.315 431.761 104.504 435.881 104.504C440 104.504 444.079 105.315 447.885 106.892C451.691 108.468 455.149 110.779 458.062 113.692C460.975 116.605 463.286 120.063 464.862 123.869C466.439 127.675 467.25 131.754 467.25 135.873C467.25 139.993 466.439 144.072 464.862 147.878C463.286 151.684 460.975 155.142 458.062 158.055C455.149 160.968 451.691 163.279 447.885 164.855C444.079 166.432 440 167.243 435.881 167.243Z" stroke="#136F63" stroke-opacity="0.5"/>
<path d="M118.04 495.923C108.401 495.923 99.1562 492.094 92.3403 485.278C85.5244 478.462 81.6953 469.218 81.6953 459.579C81.6953 449.94 85.5244 440.695 92.3403 433.879C99.1562 427.064 108.401 423.234 118.04 423.234C127.679 423.234 136.923 427.064 143.739 433.879C150.555 440.695 154.384 449.94 154.384 459.579C154.384 469.218 150.555 478.462 143.739 485.278C136.923 492.094 127.679 495.923 118.04 495.923Z" fill="#DDCAD9" fill-opacity="0.1"/>
<path d="M118.04 495.423C108.533 495.423 99.416 491.647 92.6939 484.925C85.9718 478.202 82.1953 469.085 82.1953 459.579C82.1953 450.072 85.9718 440.955 92.6939 434.233C99.416 427.511 108.533 423.734 118.04 423.734C127.546 423.734 136.663 427.511 143.385 434.233C150.108 440.955 153.884 450.072 153.884 459.579C153.884 469.085 150.108 478.202 143.385 484.925C136.663 491.647 127.546 495.423 118.04 495.423Z" stroke="#DDCAD9" stroke-opacity="0.3"/>
<path d="M119.843 151.406C112.371 151.406 105.204 148.438 99.9207 143.154C94.6369 137.87 91.6685 130.704 91.6685 123.231C91.6685 115.759 94.6369 108.593 99.9207 103.309C105.204 98.0251 112.371 95.0566 119.843 95.0566C127.316 95.0566 134.482 98.0251 139.766 103.309C145.05 108.593 148.018 115.759 148.018 123.231C148.018 130.704 145.05 137.87 139.766 143.154C134.482 148.438 127.316 151.406 119.843 151.406Z" fill="#F97068" fill-opacity="0.1"/>
<path d="M119.843 150.906C112.503 150.906 105.464 147.991 100.274 142.801C95.0842 137.61 92.1685 130.571 92.1685 123.231C92.1685 115.892 95.0842 108.852 100.274 103.662C105.464 98.4724 112.503 95.5566 119.843 95.5566C127.183 95.5566 134.222 98.4724 139.412 103.662C144.602 108.852 147.518 115.892 147.518 123.231C147.518 130.571 144.602 137.61 139.412 142.801C134.222 147.991 127.183 150.906 119.843 150.906Z" stroke="#F97068" stroke-opacity="0.3"/>
<path d="M129.487 381.42C104.55 381.42 80.6345 371.514 63.0013 353.881C45.3681 336.247 35.4619 312.332 35.4619 287.395C35.4619 262.457 45.3681 238.542 63.0013 220.909C80.6345 203.275 104.55 193.369 129.487 193.369C154.424 193.369 178.34 203.275 195.973 220.909C213.606 238.542 223.513 262.457 223.513 287.395C223.513 312.332 213.606 336.247 195.973 353.881C178.34 371.514 154.424 381.42 129.487 381.42Z" fill="white" fill-opacity="0.3"/>
<path d="M272.451 334.433C259.975 334.433 248.01 329.477 239.189 320.655C230.367 311.834 225.411 299.869 225.411 287.393C225.411 274.917 230.367 262.953 239.189 254.131C248.01 245.309 259.975 240.354 272.451 240.354C284.926 240.354 296.891 245.309 305.713 254.131C314.534 262.953 319.49 274.917 319.49 287.393C319.49 299.869 314.534 311.834 305.713 320.655C296.891 329.477 284.926 334.433 272.451 334.433Z" fill="white" fill-opacity="0.3"/>
<path d="M231.981 367.5C226.165 367.5 220.587 365.19 216.474 361.077C212.362 356.965 210.051 351.387 210.051 345.57C210.051 339.754 212.362 334.176 216.474 330.064C220.587 325.951 226.165 323.641 231.981 323.641C237.797 323.641 243.375 325.951 247.488 330.064C251.6 334.176 253.911 339.754 253.911 345.57C253.911 351.387 251.6 356.965 247.488 361.077C243.375 365.19 237.797 367.5 231.981 367.5Z" fill="white" fill-opacity="0.3"/>
<path d="M231.066 252.478C225.988 252.478 221.119 250.461 217.529 246.871C213.938 243.281 211.921 238.411 211.921 233.334C211.921 228.256 213.938 223.387 217.529 219.797C221.119 216.206 225.988 214.189 231.066 214.189C236.143 214.189 241.013 216.206 244.603 219.797C248.193 223.387 250.21 228.256 250.21 233.334C250.21 238.411 248.193 243.281 244.603 246.871C241.013 250.461 236.143 252.478 231.066 252.478Z" fill="white" fill-opacity="0.3"/>
<path d="M206.225 221.329C201.553 221.329 197.072 219.473 193.768 216.17C190.465 212.866 188.609 208.386 188.609 203.714C188.609 199.041 190.465 194.561 193.768 191.257C197.072 187.954 201.553 186.098 206.225 186.098C210.897 186.098 215.377 187.954 218.681 191.257C221.985 194.561 223.841 199.041 223.841 203.714C223.841 208.386 221.985 212.866 218.681 216.17C215.377 219.473 210.897 221.329 206.225 221.329Z" fill="white" fill-opacity="0.3"/>
<path d="M202.577 384.775C198.719 384.775 195.019 383.242 192.291 380.514C189.563 377.786 188.031 374.086 188.031 370.228C188.031 366.37 189.563 362.67 192.291 359.942C195.019 357.214 198.719 355.682 202.577 355.682C206.435 355.682 210.135 357.214 212.863 359.942C215.591 362.67 217.124 366.37 217.124 370.228C217.124 374.086 215.591 377.786 212.863 380.514C210.135 383.242 206.435 384.775 202.577 384.775Z" fill="white" fill-opacity="0.3"/>
<path d="M389.849 335.174C374.192 335.174 359.175 328.954 348.104 317.882C337.032 306.811 330.812 291.794 330.812 276.137C330.812 260.479 337.032 245.463 348.104 234.391C359.175 223.32 374.192 217.1 389.849 217.1C405.507 217.1 420.523 223.32 431.595 234.391C442.666 245.463 448.886 260.479 448.886 276.137C448.886 291.794 442.666 306.811 431.595 317.882C420.523 328.954 405.507 335.174 389.849 335.174Z" fill="#A8E8EC"/>
<path d="M503.425 328.777C489.464 328.777 476.075 323.23 466.202 313.358C456.33 303.486 450.784 290.097 450.784 276.135C450.784 262.174 456.33 248.785 466.202 238.912C476.075 229.04 489.464 223.494 503.425 223.494C517.387 223.494 530.776 229.04 540.648 238.912C550.52 248.785 556.067 262.174 556.067 276.135C556.067 290.097 550.52 303.486 540.648 313.358C530.776 323.23 517.387 328.777 503.425 328.777Z" fill="#A8E8EC"/>
<path d="M452.317 402.475C440.881 402.475 429.913 397.932 421.826 389.846C413.739 381.759 409.196 370.791 409.196 359.355C409.196 347.919 413.739 336.951 421.826 328.864C429.913 320.777 440.881 316.234 452.317 316.234C463.753 316.234 474.721 320.777 482.808 328.864C490.894 336.951 495.437 347.919 495.437 359.355C495.437 370.791 490.894 381.759 482.808 389.846C474.721 397.932 463.753 402.475 452.317 402.475Z" fill="#A8E8EC"/>
<path d="M451.189 241.801C445.065 241.801 439.193 239.369 434.863 235.039C430.533 230.709 428.101 224.836 428.101 218.713C428.101 212.59 430.533 206.717 434.863 202.387C439.193 198.057 445.065 195.625 451.189 195.625C457.312 195.625 463.185 198.057 467.514 202.387C471.844 206.717 474.277 212.59 474.277 218.713C474.277 224.836 471.844 230.709 467.514 235.039C463.185 239.369 457.312 241.801 451.189 241.801Z" fill="#A8E8EC"/>
<path d="M410.824 217.938C405.316 217.938 400.033 215.75 396.138 211.855C392.244 207.961 390.056 202.678 390.056 197.17C390.056 191.662 392.244 186.38 396.138 182.485C400.033 178.59 405.316 176.402 410.824 176.402C416.332 176.402 421.614 178.59 425.509 182.485C429.403 186.38 431.592 191.662 431.592 197.17C431.592 202.678 429.403 207.961 425.509 211.855C421.614 215.75 416.332 217.938 410.824 217.938Z" fill="#A8E8EC"/>
<path d="M491.743 222.544C486.98 222.544 482.412 220.652 479.045 217.284C475.677 213.916 473.785 209.349 473.785 204.586C473.785 199.824 475.677 195.256 479.045 191.889C482.412 188.521 486.98 186.629 491.743 186.629C496.505 186.629 501.073 188.521 504.44 191.889C507.808 195.256 509.7 199.824 509.7 204.586C509.7 209.349 507.808 213.916 504.44 217.284C501.073 220.652 496.505 222.544 491.743 222.544Z" fill="#A8E8EC"/>
<path d="M390.751 370.65C386.297 370.65 382.026 368.881 378.877 365.732C375.728 362.583 373.959 358.312 373.959 353.858C373.959 349.405 375.728 345.134 378.877 341.985C382.026 338.836 386.297 337.066 390.751 337.066C395.204 337.066 399.476 338.836 402.625 341.985C405.774 345.134 407.543 349.405 407.543 353.858C407.543 358.312 405.774 362.583 402.625 365.732C399.476 368.881 395.204 370.65 390.751 370.65Z" fill="#A8E8EC"/>
<path d="M511.976 362.292C507.714 362.292 503.627 360.599 500.614 357.586C497.601 354.573 495.908 350.486 495.908 346.224C495.908 341.963 497.601 337.876 500.614 334.862C503.627 331.849 507.714 330.156 511.976 330.156C516.237 330.156 520.324 331.849 523.337 334.862C526.351 337.876 528.043 341.963 528.043 346.224C528.043 350.486 526.351 354.573 523.337 357.586C520.324 360.599 516.237 362.292 511.976 362.292Z" fill="#A8E8EC"/>
<path d="M379.88 215.908C377.334 215.908 374.893 214.897 373.093 213.097C371.293 211.297 370.281 208.855 370.281 206.31C370.281 203.764 371.293 201.322 373.093 199.522C374.893 197.722 377.334 196.711 379.88 196.711C382.426 196.711 384.867 197.722 386.667 199.522C388.467 201.322 389.478 203.764 389.478 206.31C389.478 208.855 388.467 211.297 386.667 213.097C384.867 214.897 382.426 215.908 379.88 215.908Z" fill="#A8E8EC"/>
<path d="M440.192 195.593C437.983 195.593 435.865 194.716 434.303 193.154C432.742 191.592 431.864 189.474 431.864 187.265C431.864 185.057 432.742 182.938 434.303 181.377C435.865 179.815 437.983 178.938 440.192 178.938C442.401 178.938 444.519 179.815 446.081 181.377C447.643 182.938 448.52 185.057 448.52 187.265C448.52 189.474 447.643 191.592 446.081 193.154C444.519 194.716 442.401 195.593 440.192 195.593Z" fill="#A8E8EC"/>
<path d="M468.529 198.999C466.895 198.999 465.327 198.35 464.172 197.195C463.016 196.039 462.367 194.472 462.367 192.838C462.367 191.203 463.016 189.636 464.172 188.481C465.327 187.325 466.895 186.676 468.529 186.676C470.163 186.676 471.73 187.325 472.886 188.481C474.042 189.636 474.691 191.203 474.691 192.838C474.691 194.472 474.042 196.039 472.886 197.195C471.73 198.35 470.163 198.999 468.529 198.999Z" fill="#A8E8EC"/>
<path d="M506.558 221.684C506.136 221.684 505.732 221.516 505.433 221.218C505.135 220.92 504.967 220.515 504.967 220.093C504.967 219.671 505.135 219.266 505.433 218.968C505.732 218.67 506.136 218.502 506.558 218.502C506.98 218.502 507.385 218.67 507.683 218.968C507.982 219.266 508.149 219.671 508.149 220.093C508.149 220.515 507.982 220.92 507.683 221.218C507.385 221.516 506.98 221.684 506.558 221.684Z" fill="#A8E8EC"/>
<path d="M380.08 338.309C379.814 338.309 379.558 338.203 379.369 338.015C379.18 337.826 379.074 337.57 379.074 337.303C379.074 337.036 379.18 336.78 379.369 336.592C379.558 336.403 379.814 336.297 380.08 336.297C380.347 336.297 380.603 336.403 380.792 336.592C380.981 336.78 381.087 337.036 381.087 337.303C381.087 337.57 380.981 337.826 380.792 338.015C380.603 338.203 380.347 338.309 380.08 338.309Z" fill="#A8E8EC"/>
<path d="M449.461 193.784C449.272 193.784 449.091 193.709 448.958 193.576C448.824 193.442 448.75 193.262 448.75 193.073C448.75 192.884 448.824 192.703 448.958 192.57C449.091 192.436 449.272 192.361 449.461 192.361C449.65 192.361 449.831 192.436 449.964 192.57C450.098 192.703 450.173 192.884 450.173 193.073C450.173 193.262 450.098 193.442 449.964 193.576C449.831 193.709 449.65 193.784 449.461 193.784Z" fill="#A8E8EC"/>
<path d="M329.303 507.666C311.374 507.666 294.178 500.543 281.5 487.865C268.822 475.187 261.7 457.992 261.7 440.062C261.7 422.133 268.822 404.938 281.5 392.26C294.178 379.581 311.374 372.459 329.303 372.459C347.233 372.459 364.428 379.581 377.106 392.26C389.784 404.938 396.907 422.133 396.907 440.062C396.907 457.992 389.784 475.187 377.106 487.865C364.428 500.543 347.233 507.666 329.303 507.666Z" fill="#006E90"/>
<path d="M312.834 184.597C298.525 184.597 284.802 178.913 274.684 168.795C264.566 158.677 258.882 144.954 258.882 130.645C258.882 116.336 264.566 102.613 274.684 92.4955C284.802 82.3776 298.525 76.6934 312.834 76.6934C327.143 76.6934 340.866 82.3776 350.984 92.4955C361.102 102.613 366.786 116.336 366.786 130.645C366.786 144.954 361.102 158.677 350.984 168.795C340.866 178.913 327.143 184.597 312.834 184.597Z" fill="#FFC1A6"/>
<path d="M384.513 146.474C380.315 146.474 376.289 144.806 373.32 141.838C370.351 138.869 368.684 134.843 368.684 130.644C368.684 126.446 370.351 122.42 373.32 119.451C376.289 116.482 380.315 114.814 384.513 114.814C388.712 114.814 392.738 116.482 395.707 119.451C398.675 122.42 400.343 126.446 400.343 130.644C400.343 134.843 398.675 138.869 395.707 141.838C392.738 144.806 388.712 146.474 384.513 146.474Z" fill="#FFC1A6"/>
<path d="M374.804 171.45C371.531 171.45 368.391 170.149 366.076 167.834C363.761 165.519 362.46 162.38 362.46 159.106C362.46 155.832 363.761 152.692 366.076 150.377C368.391 148.062 371.531 146.762 374.804 146.762C378.078 146.762 381.218 148.062 383.533 150.377C385.848 152.692 387.148 155.832 387.148 159.106C387.148 162.38 385.848 165.519 383.533 167.834C381.218 170.149 378.078 171.45 374.804 171.45Z" fill="#FFC1A6"/>
<path d="M185.556 520.163C177.123 520.163 169.036 516.813 163.073 510.85C157.11 504.887 153.76 496.8 153.76 488.368C153.76 479.935 157.11 471.848 163.073 465.885C169.036 459.922 177.123 456.572 185.556 456.572C193.988 456.572 202.075 459.922 208.038 465.885C214.001 471.848 217.351 479.935 217.351 488.368C217.351 496.8 214.001 504.887 208.038 510.85C202.075 516.813 193.988 520.163 185.556 520.163Z" fill="#7180AC"/>
<path d="M242.315 511.433C236.198 511.433 230.331 509.003 226.005 504.677C221.679 500.351 219.249 494.484 219.249 488.367C219.249 482.249 221.679 476.382 226.005 472.057C230.331 467.731 236.198 465.301 242.315 465.301C248.433 465.301 254.3 467.731 258.625 472.057C262.951 476.382 265.381 482.249 265.381 488.367C265.381 494.484 262.951 500.351 258.625 504.677C254.3 509.003 248.433 511.433 242.315 511.433Z" fill="#7180AC"/>
<path d="M220.914 539.409C216.657 539.409 212.574 537.718 209.564 534.707C206.554 531.697 204.862 527.614 204.862 523.357C204.862 519.1 206.554 515.017 209.564 512.006C212.574 508.996 216.657 507.305 220.914 507.305C225.172 507.305 229.255 508.996 232.265 512.006C235.275 515.017 236.967 519.1 236.967 523.357C236.967 527.614 235.275 531.697 232.265 534.707C229.255 537.718 225.172 539.409 220.914 539.409Z" fill="#7180AC"/>
<path d="M220.19 470.923C217.183 470.923 214.298 469.728 212.172 467.602C210.045 465.475 208.851 462.591 208.851 459.584C208.851 456.576 210.045 453.692 212.172 451.565C214.298 449.439 217.183 448.244 220.19 448.244C223.197 448.244 226.082 449.439 228.208 451.565C230.335 453.692 231.529 456.576 231.529 459.584C231.529 462.591 230.335 465.475 228.208 467.602C226.082 469.728 223.197 470.923 220.19 470.923Z" fill="#7180AC"/>
<path d="M200.637 457.385C198.091 457.385 195.65 456.373 193.85 454.573C192.05 452.773 191.039 450.332 191.039 447.786C191.039 445.24 192.05 442.799 193.85 440.999C195.65 439.199 198.091 438.188 200.637 438.188C203.183 438.188 205.624 439.199 207.424 440.999C209.225 442.799 210.236 445.24 210.236 447.786C210.236 450.332 209.225 452.773 207.424 454.573C205.624 456.373 203.183 457.385 200.637 457.385Z" fill="#7180AC"/>
<path d="M197.905 530.304C196.544 530.304 195.239 529.764 194.277 528.802C193.315 527.839 192.774 526.534 192.774 525.174C192.774 523.813 193.315 522.508 194.277 521.546C195.239 520.584 196.544 520.043 197.905 520.043C199.266 520.043 200.571 520.584 201.533 521.546C202.495 522.508 203.036 523.813 203.036 525.174C203.036 526.534 202.495 527.839 201.533 528.802C200.571 529.764 199.266 530.304 197.905 530.304Z" fill="#7180AC"/>
<path d="M235.618 464.235C234.992 464.235 234.392 463.987 233.949 463.544C233.507 463.101 233.258 462.501 233.258 461.875C233.258 461.25 233.507 460.649 233.949 460.207C234.392 459.764 234.992 459.516 235.618 459.516C236.244 459.516 236.844 459.764 237.287 460.207C237.729 460.649 237.978 461.25 237.978 461.875C237.978 462.501 237.729 463.101 237.287 463.544C236.844 463.987 236.244 464.235 235.618 464.235Z" fill="#7180AC"/>
<path d="M237.315 514.858C237.048 514.858 236.792 514.752 236.604 514.563C236.415 514.375 236.309 514.119 236.309 513.852C236.309 513.585 236.415 513.329 236.604 513.14C236.792 512.952 237.048 512.846 237.315 512.846C237.582 512.846 237.838 512.952 238.027 513.14C238.215 513.329 238.322 513.585 238.322 513.852C238.322 514.119 238.215 514.375 238.027 514.563C237.838 514.752 237.582 514.858 237.315 514.858Z" fill="#7180AC"/>
<path d="M172.185 111.296C164.007 111.296 156.165 108.047 150.382 102.265C144.6 96.4824 141.352 88.6398 141.352 80.4623C141.352 72.2848 144.6 64.4422 150.382 58.6598C156.165 52.8774 164.007 49.6289 172.185 49.6289C180.362 49.6289 188.205 52.8774 193.987 58.6598C199.77 64.4422 203.018 72.2848 203.018 80.4623C203.018 88.6398 199.77 96.4824 193.987 102.265C188.205 108.047 180.362 111.296 172.185 111.296Z" fill="#FF6375"/>
<path d="M233.809 109.353C230.015 109.353 226.258 108.606 222.752 107.154C219.247 105.702 216.062 103.574 213.379 100.891C210.696 98.2079 208.568 95.0228 207.116 91.5174C205.664 88.012 204.917 84.255 204.917 80.4608C204.917 76.6666 205.664 72.9095 207.116 69.4041C208.568 65.8987 210.696 62.7137 213.379 60.0307C216.062 57.3478 219.247 55.2196 222.752 53.7677C226.258 52.3157 230.015 51.5684 233.809 51.5684C237.603 51.5684 241.36 52.3157 244.866 53.7677C248.371 55.2196 251.556 57.3478 254.239 60.0307C256.922 62.7137 259.05 65.8987 260.502 69.4041C261.954 72.9095 262.701 76.6666 262.701 80.4608C262.701 84.255 261.954 88.012 260.502 91.5174C259.05 95.0228 256.922 98.2079 254.239 100.891C251.556 103.574 248.371 105.702 244.866 107.154C241.36 108.606 237.603 109.353 233.809 109.353Z" fill="#FF6375"/>
<path d="M434.865 473.445C426.307 473.445 418.099 470.045 412.047 463.994C405.996 457.942 402.596 449.734 402.596 441.176C402.596 432.617 405.996 424.409 412.047 418.358C418.099 412.306 426.307 408.906 434.865 408.906C443.423 408.906 451.631 412.306 457.683 418.358C463.735 424.409 467.134 432.617 467.134 441.176C467.134 449.734 463.735 457.942 457.683 463.994C451.631 470.045 443.423 473.445 434.865 473.445Z" fill="#FFE8A3"/>
<path d="M433.049 163.014C429.485 163.014 425.956 162.312 422.663 160.948C419.371 159.584 416.379 157.585 413.859 155.065C411.339 152.545 409.339 149.553 407.976 146.26C406.612 142.967 405.91 139.438 405.91 135.874C405.91 132.31 406.612 128.781 407.976 125.488C409.339 122.195 411.339 119.204 413.859 116.683C416.379 114.163 419.371 112.164 422.663 110.8C425.956 109.436 429.485 108.734 433.049 108.734C436.613 108.734 440.143 109.436 443.435 110.8C446.728 112.164 449.72 114.163 452.24 116.683C454.76 119.204 456.759 122.195 458.123 125.488C459.487 128.781 460.189 132.31 460.189 135.874C460.189 139.438 459.487 142.967 458.123 146.26C456.759 149.553 454.76 152.545 452.24 155.065C449.72 157.585 446.728 159.584 443.435 160.948C440.143 162.312 436.613 163.014 433.049 163.014Z" fill="#136F63"/>
<path d="M463.97 137.755C463.471 137.755 462.992 137.557 462.639 137.204C462.286 136.851 462.087 136.372 462.087 135.873C462.087 135.373 462.286 134.895 462.639 134.542C462.992 134.189 463.471 133.99 463.97 133.99C464.469 133.99 464.948 134.189 465.301 134.542C465.654 134.895 465.852 135.373 465.852 135.873C465.852 136.372 465.654 136.851 465.301 137.204C464.948 137.557 464.469 137.755 463.97 137.755Z" fill="#136F63"/>
<path d="M101.717 469.811C97.2515 469.811 92.9689 468.037 89.8114 464.879C86.6538 461.722 84.8799 457.439 84.8799 452.974C84.8799 448.508 86.6538 444.226 89.8114 441.068C92.9689 437.911 97.2515 436.137 101.717 436.137C106.182 436.137 110.465 437.911 113.623 441.068C116.78 444.226 118.554 448.508 118.554 452.974C118.554 457.439 116.78 461.722 113.623 464.879C110.465 468.037 106.182 469.811 101.717 469.811Z" fill="#DDCAD9"/>
<path d="M135.877 468.399C131.786 468.399 127.863 466.774 124.97 463.881C122.077 460.988 120.452 457.065 120.452 452.974C120.452 448.883 122.077 444.959 124.97 442.067C127.863 439.174 131.786 437.549 135.877 437.549C139.968 437.549 143.891 439.174 146.784 442.067C149.677 444.959 151.302 448.883 151.302 452.974C151.302 457.065 149.677 460.988 146.784 463.881C143.891 466.774 139.968 468.399 135.877 468.399Z" fill="#DDCAD9"/>
<path d="M120.119 493.92C116.421 493.92 112.875 492.451 110.26 489.836C107.645 487.222 106.176 483.675 106.176 479.978C106.176 476.28 107.645 472.734 110.26 470.119C112.875 467.504 116.421 466.035 120.119 466.035C123.816 466.035 127.363 467.504 129.978 470.119C132.592 472.734 134.061 476.28 134.061 479.978C134.061 483.675 132.592 487.222 129.978 489.836C127.363 492.451 123.816 493.92 120.119 493.92Z" fill="#DDCAD9"/>
<path d="M113.665 143.331C108.335 143.331 103.223 141.213 99.4533 137.444C95.684 133.675 93.5664 128.562 93.5664 123.232C93.5664 117.901 95.684 112.789 99.4533 109.02C103.223 105.25 108.335 103.133 113.665 103.133C118.996 103.133 124.108 105.25 127.878 109.02C131.647 112.789 133.764 117.901 133.764 123.232C133.764 128.562 131.647 133.675 127.878 137.444C124.108 141.213 118.996 143.331 113.665 143.331Z" fill="#F97068"/>
<path d="M140.892 128.459C139.505 128.459 138.175 127.908 137.194 126.927C136.214 125.947 135.663 124.617 135.663 123.23C135.663 121.844 136.214 120.514 137.194 119.533C138.175 118.553 139.505 118.002 140.892 118.002C142.278 118.002 143.608 118.553 144.589 119.533C145.569 120.514 146.12 121.844 146.12 123.23C146.12 124.617 145.569 125.947 144.589 126.927C143.608 127.908 142.278 128.459 140.892 128.459Z" fill="#F97068"/>
<path d="M136.398 133.464C135.832 133.464 135.289 133.239 134.889 132.839C134.489 132.439 134.264 131.896 134.264 131.33C134.264 130.764 134.489 130.221 134.889 129.82C135.289 129.42 135.832 129.195 136.398 129.195C136.964 129.195 137.507 129.42 137.907 129.82C138.308 130.221 138.533 130.764 138.533 131.33C138.533 131.896 138.308 132.439 137.907 132.839C137.507 133.239 136.964 133.464 136.398 133.464Z" fill="#F97068"/>
</svg>
