<svg width="562" height="562" viewBox="0 0 562 562" fill="none" xmlns="http://www.w3.org/2000/svg">
<path d="M281 561C206.739 561 135.52 531.5 83.0101 478.99C30.4999 426.48 1 355.261 1 281C1 206.739 30.4999 135.52 83.0101 83.0101C135.52 30.4999 206.739 1 281 1C355.261 1 426.48 30.4999 478.99 83.0101C531.5 135.52 561 206.739 561 281C561 355.261 531.5 426.48 478.99 478.99C426.48 531.5 355.261 561 281 561V561Z" stroke="white"/>
<path d="M163.795 422.055C126.645 422.055 91.0156 407.297 64.7462 381.028C38.4768 354.758 23.7188 319.129 23.7188 281.979C23.7188 244.828 38.4768 209.199 64.7462 182.93C91.0156 156.66 126.645 141.902 163.795 141.902C200.946 141.902 236.575 156.66 262.844 182.93C289.114 209.199 303.872 244.828 303.872 281.979C303.872 319.129 289.114 354.758 262.844 381.028C236.575 407.297 200.946 422.055 163.795 422.055V422.055Z" fill="white" fill-opacity="0.3"/>
<path d="M432.434 408.571C415.81 408.571 399.348 405.296 383.989 398.934C368.63 392.572 354.675 383.248 342.92 371.492C331.164 359.737 321.84 345.782 315.478 330.423C309.116 315.064 305.841 298.602 305.841 281.978C305.841 265.353 309.116 248.892 315.478 233.533C321.84 218.174 331.164 204.218 342.92 192.463C354.675 180.708 368.63 171.383 383.989 165.021C399.348 158.659 415.81 155.385 432.434 155.385C449.059 155.385 465.52 158.659 480.879 165.021C496.238 171.383 510.194 180.708 521.949 192.463C533.704 204.218 543.029 218.174 549.391 233.533C555.753 248.892 559.027 265.353 559.027 281.978C559.027 298.602 555.753 315.064 549.391 330.423C543.029 345.782 533.704 359.737 521.949 371.492C510.194 383.248 496.238 392.572 480.879 398.934C465.52 405.296 449.059 408.571 432.434 408.571V408.571Z" fill="#A8E8EC"/>
<path d="M309.171 541.293C286.638 541.293 265.027 532.341 249.094 516.408C233.16 500.475 224.209 478.864 224.209 456.331C224.209 433.798 233.16 412.187 249.094 396.254C265.027 380.32 286.638 371.369 309.171 371.369C331.704 371.369 353.314 380.32 369.248 396.254C385.181 412.187 394.133 433.798 394.133 456.331C394.133 478.864 385.181 500.475 369.248 516.408C353.314 532.341 331.704 541.293 309.171 541.293V541.293Z" fill="#006E90"/>
<path d="M308.537 196.167C289.35 196.167 270.948 188.545 257.381 174.977C243.813 161.41 236.191 143.008 236.191 123.821C236.191 104.633 243.813 86.2319 257.381 72.6643C270.948 59.0968 289.35 51.4746 308.537 51.4746C327.725 51.4746 346.126 59.0968 359.694 72.6643C373.261 86.2319 380.883 104.633 380.883 123.821C380.883 143.008 373.261 161.41 359.694 174.977C346.126 188.545 327.725 196.167 308.537 196.167V196.167Z" fill="#FFC1A6"/>
<path d="M183.462 140.906C168.355 140.906 153.867 134.905 143.184 124.222C132.502 113.54 126.5 99.0515 126.5 83.9442C126.5 68.837 132.502 54.3486 143.184 43.6662C153.867 32.9837 168.355 26.9824 183.462 26.9824C198.57 26.9824 213.058 32.9837 223.74 43.6662C234.423 54.3486 240.424 68.837 240.424 83.9442C240.424 99.0515 234.423 113.54 223.74 124.222C213.058 134.905 198.57 140.906 183.462 140.906V140.906Z" fill="#6880C5"/>
<path d="M170.67 530.111C156.586 530.111 143.078 524.516 133.119 514.557C123.16 504.598 117.565 491.091 117.565 477.007C117.565 462.923 123.16 449.415 133.119 439.456C143.078 429.497 156.586 423.902 170.67 423.902C184.754 423.902 198.261 429.497 208.22 439.456C218.179 449.415 223.774 462.923 223.774 477.007C223.774 491.091 218.179 504.598 208.22 514.557C198.261 524.516 184.754 530.111 170.67 530.111V530.111Z" fill="#FF6375"/>
<path d="M422.91 153.684C412.154 153.684 401.838 149.412 394.233 141.806C386.627 134.2 382.354 123.885 382.354 113.129C382.354 102.373 386.627 92.0581 394.233 84.4525C401.838 76.847 412.154 72.5742 422.91 72.5742C433.665 72.5742 443.981 76.847 451.586 84.4525C459.192 92.0581 463.465 102.373 463.465 113.129C463.465 123.885 459.192 134.2 451.586 141.806C443.981 149.412 433.665 153.684 422.91 153.684V153.684Z" fill="#FFE8A3"/>
<path d="M429.733 478.898C420.665 478.898 411.969 475.296 405.557 468.884C399.145 462.472 395.543 453.776 395.543 444.708C395.543 435.64 399.145 426.944 405.557 420.532C411.969 414.12 420.665 410.518 429.733 410.518C438.801 410.518 447.497 414.12 453.909 420.532C460.321 426.944 463.923 435.64 463.923 444.708C463.923 453.776 460.321 462.472 453.909 468.884C447.497 475.296 438.801 478.898 429.733 478.898V478.898Z" fill="#136F63"/>
<path d="M97.864 152.774C88.9463 152.774 80.3938 149.231 74.0881 142.926C67.7823 136.62 64.2397 128.067 64.2397 119.15C64.2397 110.232 67.7823 101.679 74.0881 95.3737C80.3938 89.0679 88.9463 85.5254 97.864 85.5254C106.782 85.5254 115.334 89.0679 121.64 95.3737C127.946 101.679 131.488 110.232 131.488 119.15C131.488 128.067 127.946 136.62 121.64 142.926C115.334 149.231 106.782 152.774 97.864 152.774V152.774Z" fill="#DDCAD9"/>
<path d="M487.31 163.468C480.351 163.468 473.678 160.704 468.757 155.783C463.837 150.863 461.072 144.189 461.072 137.23C461.072 130.271 463.837 123.598 468.757 118.677C473.678 113.757 480.351 110.992 487.31 110.992C494.269 110.992 500.943 113.757 505.863 118.677C510.784 123.598 513.548 130.271 513.548 137.23C513.548 144.189 510.784 150.863 505.863 155.783C500.943 160.704 494.269 163.468 487.31 163.468V163.468Z" fill="#F97068"/>
</svg>
