<svg width="132" height="32" viewBox="0 0 132 32" fill="none" xmlns="http://www.w3.org/2000/svg">
<mask id="mask0" mask-type="alpha" maskUnits="userSpaceOnUse" x="0" y="0" width="5" height="5">
<path fill-rule="evenodd" clip-rule="evenodd" d="M0 0.723633H4.19601V4.95176H0V0.723633Z" fill="white"/>
</mask>
<g mask="url(#mask0)">
<path fill-rule="evenodd" clip-rule="evenodd" d="M2.09787 0.723633C0.898461 0.723633 -0.000244141 1.65537 -0.000244141 2.82175C-0.000244141 4.02002 0.898461 4.95176 2.09787 4.95176C3.29729 4.95176 4.19599 4.02002 4.19599 2.82175C4.19599 1.65537 3.29729 0.723633 2.09787 0.723633Z" fill="white"/>
</g>
<path fill-rule="evenodd" clip-rule="evenodd" d="M36.029 22.3666C32.932 22.3666 30.5742 19.8038 30.5742 16.3411C30.5742 12.8784 32.932 10.2814 36.029 10.2814C39.1284 10.2814 41.4862 12.8784 41.4862 16.3411C41.4862 19.8038 39.1284 22.3666 36.029 22.3666ZM44.8919 0.257812H41.4862V10.6801C40.0954 8.68673 37.8629 7.44518 35.1987 7.44518C30.4717 7.44518 27.042 11.2496 27.042 16.3411C27.042 21.1137 30.0616 24.7586 34.2761 25.1915C34.5722 25.2143 34.8672 25.237 35.1634 25.237H35.1987C35.3912 25.237 35.5848 25.2256 35.7796 25.2143C35.8821 25.2029 35.9846 25.1915 36.0757 25.1801H36.0985C36.3024 25.1573 36.5086 25.1231 36.7136 25.0776C36.9631 25.032 37.2034 24.9637 37.4415 24.8953C37.6818 24.8156 37.9199 24.7359 38.1477 24.6333C38.3538 24.5422 38.5589 24.4511 38.7627 24.3486C38.7867 24.3372 38.7981 24.3258 38.8208 24.3144C39.2525 24.0752 39.6626 23.8018 40.0396 23.4829C40.2321 23.3234 40.4155 23.1526 40.5977 22.9817C40.7561 22.8223 40.9167 22.6514 41.0522 22.4692C41.2128 22.2869 41.3609 22.0933 41.4862 21.8996C41.8496 21.3757 42.1468 20.8062 42.3633 20.1911L42.599 20.8768L42.5979 20.8791L43.9796 24.8999H47.3773L44.8919 18.0417V0.257812Z" fill="white"/>
<path fill-rule="evenodd" clip-rule="evenodd" d="M51.2593 24.8996H54.6559V7.7832H51.2593V24.8996Z" fill="white"/>
<path fill-rule="evenodd" clip-rule="evenodd" d="M52.9565 0.723633C51.7582 0.723633 50.8584 1.65537 50.8584 2.82175C50.8584 4.02002 51.7582 4.95176 52.9565 4.95176C54.1559 4.95176 55.0558 4.02002 55.0558 2.82175C55.0558 1.65537 54.1559 0.723633 52.9565 0.723633Z" fill="white"/>
<path fill-rule="evenodd" clip-rule="evenodd" d="M89.2936 22.3689C86.1966 22.3689 83.833 19.8049 83.833 16.3411C83.833 12.8784 86.1966 10.2802 89.2936 10.2802C92.3907 10.2802 94.7553 12.8784 94.7553 16.3411C94.7553 19.8049 92.3907 22.3689 89.2936 22.3689ZM89.2936 7.44971C84.1326 7.44971 80.302 11.2461 80.302 16.3411C80.302 21.436 84.1326 25.2325 89.2936 25.2325C94.4558 25.2325 98.2852 21.436 98.2852 16.3411C98.2852 11.2461 94.4558 7.44971 89.2936 7.44971Z" fill="white"/>
<path fill-rule="evenodd" clip-rule="evenodd" d="M102.88 20.4038C101.548 20.4038 100.515 21.4027 100.515 22.7343C100.515 24.067 101.548 25.0989 102.88 25.0989C104.211 25.0989 105.244 24.067 105.244 22.7343C105.244 21.4027 104.211 20.4038 102.88 20.4038Z" fill="white"/>
<path fill-rule="evenodd" clip-rule="evenodd" d="M114.734 22.6017C112.904 22.6017 111.604 21.9024 111.604 20.171C111.604 18.606 112.87 17.4738 116.166 17.4738C117.464 17.4738 118.93 17.6401 120.229 17.8736C119.929 20.1038 117.831 22.6017 114.734 22.6017ZM116.199 7.4502C111.404 7.4502 108.907 9.94812 108.739 13.4438H112.137C112.27 11.3127 113.768 10.1474 116.199 10.1474C118.664 10.1474 120.229 11.6453 120.229 13.9439V15.3415C118.631 15.1091 117.231 14.9759 116.099 14.9759C111.038 14.9759 108.141 16.9407 108.141 20.3704C108.141 23.6679 110.705 25.2329 113.802 25.2329C116.566 25.2329 118.796 24.0335 120.229 22.1028V24.8992H123.626V14.1432C123.626 9.94812 120.829 7.4502 116.199 7.4502Z" fill="white"/>
<path fill-rule="evenodd" clip-rule="evenodd" d="M129.152 4.95225C130.352 4.95225 131.25 4.02051 131.25 2.8211C131.25 1.65586 130.352 0.724121 129.152 0.724121C127.953 0.724121 127.054 1.65586 127.054 2.8211C127.054 4.02051 127.953 4.95225 129.152 4.95225Z" fill="white"/>
<path fill-rule="evenodd" clip-rule="evenodd" d="M127.454 24.8996H130.851V7.7832H127.454V24.8996Z" fill="white"/>
<path fill-rule="evenodd" clip-rule="evenodd" d="M7.79199 7.7832V11.1798V24.8996H11.1875V11.1798H20.4798V24.8996H23.8753V11.1798V10.28V7.7832H11.1875H7.79199Z" fill="white"/>
<path fill-rule="evenodd" clip-rule="evenodd" d="M72.4338 16.0034C72.4338 19.2725 70.076 21.6987 66.9778 21.6987C63.8796 21.6987 61.5104 19.2725 61.5104 16.0034C61.5104 12.7458 63.8796 10.2854 66.9778 10.2854C70.076 10.2854 72.4338 12.7458 72.4338 16.0034ZM78.3192 7.78296H75.8395V7.77954L75.8373 7.78296H74.9237L73.3792 12.2697V12.2674C73.1514 11.6637 72.8325 11.0942 72.4566 10.5816C72.4224 10.5246 72.3882 10.4791 72.3541 10.4449C72.2515 10.3082 72.149 10.1829 72.0237 10.0576C71.944 9.94372 71.8404 9.8526 71.739 9.75009C71.6934 9.68174 71.6239 9.6134 71.5556 9.56784C71.4303 9.44254 71.2947 9.31725 71.1581 9.20335C71.1239 9.18056 71.1011 9.15778 71.0669 9.135C70.8949 8.98693 70.7138 8.85024 70.5316 8.73634C70.3254 8.59965 70.1215 8.47436 69.8937 8.36045C69.7001 8.24655 69.4951 8.15543 69.29 8.0643C69.0611 7.97318 68.8344 7.88206 68.5952 7.81371C68.4232 7.75676 68.2421 7.7112 68.0599 7.66564C68.0371 7.66564 68.0018 7.65425 67.9687 7.64286C67.889 7.63147 67.8081 7.60868 67.7284 7.59729C67.5348 7.56312 67.3195 7.52895 67.1145 7.50617C66.7955 7.472 66.4766 7.44922 66.1451 7.44922C61.4192 7.44922 57.9907 11.1169 57.9907 16.0034C57.9907 20.9013 61.4192 24.569 66.0779 24.569C68.708 24.569 70.9758 23.373 72.4338 21.3683V23.897C72.4338 27.0294 70.1785 29.091 66.9083 29.091C64.1757 29.091 62.1482 27.4622 61.8179 25.2297H58.3894C58.8564 29.1252 62.4091 31.8931 66.9083 31.8931C72.034 31.8931 75.8395 28.4987 75.8395 23.3958V14.6275L78.3192 7.78296Z" fill="white"/>
<path fill-rule="evenodd" clip-rule="evenodd" d="M0.399902 24.8996H3.79539V7.7832H0.399902V24.8996Z" fill="white"/>
</svg>
