<svg width="1440" height="789" viewBox="0 0 1440 789" fill="none" xmlns="http://www.w3.org/2000/svg">
<rect x="8.5" y="234.5" width="241" height="66" rx="33" stroke="white" stroke-opacity="0.3" stroke-dasharray="4 4"/>
<rect x="776.5" y="234.5" width="241" height="66" rx="33" stroke="white" stroke-opacity="0.3" stroke-dasharray="4 4"/>
<rect x="388.5" y="234.5" width="241" height="66" rx="33" stroke="white" stroke-opacity="0.3" stroke-dasharray="4 4"/>
<rect x="1156.5" y="234.5" width="241" height="66" rx="33" stroke="white" stroke-opacity="0.3" stroke-dasharray="4 4"/>
<rect x="266.5" y="234.5" width="105" height="66" rx="33" stroke="white" stroke-opacity="0.3" stroke-dasharray="4 4"/>
<g filter="url(#filter0_d)">
<rect x="1035" y="235" width="104" height="65" rx="32.5" stroke="#FFC1A6" stroke-width="2"/>
</g>
<rect x="646.5" y="234.5" width="105" height="66" rx="33" stroke="white" stroke-opacity="0.3" stroke-dasharray="4 4"/>
<rect x="1414.5" y="234.5" width="105" height="66" rx="33" stroke="white" stroke-opacity="0.3" stroke-dasharray="4 4"/>
<rect x="8.5" y="624.5" width="241" height="66" rx="33" stroke="white" stroke-opacity="0.3" stroke-dasharray="4 4"/>
<rect x="776.5" y="624.5" width="241" height="66" rx="33" stroke="white" stroke-opacity="0.3" stroke-dasharray="4 4"/>
<rect x="388.5" y="624.5" width="241" height="66" rx="33" stroke="white" stroke-opacity="0.3" stroke-dasharray="4 4"/>
<rect x="1156.5" y="624.5" width="241" height="66" rx="33" stroke="white" stroke-opacity="0.3" stroke-dasharray="4 4"/>
<rect x="266.5" y="624.5" width="105" height="66" rx="33" stroke="white" stroke-opacity="0.3" stroke-dasharray="4 4"/>
<rect x="1034.5" y="624.5" width="105" height="66" rx="33" stroke="white" stroke-opacity="0.3" stroke-dasharray="4 4"/>
<rect x="646.5" y="624.5" width="105" height="66" rx="33" stroke="white" stroke-opacity="0.3" stroke-dasharray="4 4"/>
<rect x="1414.5" y="624.5" width="105" height="66" rx="33" stroke="white" stroke-opacity="0.3" stroke-dasharray="4 4"/>
<g filter="url(#filter1_d)">
<rect x="9" y="391" width="240" height="65" rx="32.5" stroke="#FFC1A6" stroke-width="2"/>
</g>
<rect x="776.5" y="390.5" width="241" height="66" rx="33" stroke="white" stroke-opacity="0.3" stroke-dasharray="4 4"/>
<rect x="388.5" y="390.5" width="241" height="66" rx="33" stroke="white" stroke-opacity="0.3" stroke-dasharray="4 4"/>
<rect x="1156.5" y="390.5" width="241" height="66" rx="33" stroke="white" stroke-opacity="0.3" stroke-dasharray="4 4"/>
<rect x="266.5" y="390.5" width="105" height="66" rx="33" stroke="white" stroke-opacity="0.3" stroke-dasharray="4 4"/>
<rect x="1034.5" y="390.5" width="105" height="66" rx="33" stroke="white" stroke-opacity="0.3" stroke-dasharray="4 4"/>
<rect x="646.5" y="390.5" width="105" height="66" rx="33" stroke="white" stroke-opacity="0.3" stroke-dasharray="4 4"/>
<rect x="1414.5" y="390.5" width="105" height="66" rx="33" stroke="white" stroke-opacity="0.3" stroke-dasharray="4 4"/>
<rect x="219.5" y="156.5" width="241" height="66" rx="33" stroke="white" stroke-opacity="0.3" stroke-dasharray="4 4"/>
<rect x="987.5" y="156.5" width="241" height="66" rx="33" stroke="white" stroke-opacity="0.3" stroke-dasharray="4 4"/>
<rect x="599.5" y="156.5" width="241" height="66" rx="33" stroke="white" stroke-opacity="0.3" stroke-dasharray="4 4"/>
<rect x="1367.5" y="156.5" width="241" height="66" rx="33" stroke="white" stroke-opacity="0.3" stroke-dasharray="4 4"/>
<rect x="477.5" y="156.5" width="105" height="66" rx="33" stroke="white" stroke-opacity="0.3" stroke-dasharray="4 4"/>
<g filter="url(#filter2_d)">
<rect x="99" y="157" width="104" height="65" rx="32.5" stroke="#FFC1A6" stroke-width="2"/>
</g>
<rect x="1245.5" y="156.5" width="105" height="66" rx="33" stroke="white" stroke-opacity="0.3" stroke-dasharray="4 4"/>
<rect x="857.5" y="156.5" width="105" height="66" rx="33" stroke="white" stroke-opacity="0.3" stroke-dasharray="4 4"/>
<rect x="-159.5" y="156.5" width="241" height="66" rx="33" stroke="white" stroke-opacity="0.3" stroke-dasharray="4 4"/>
<rect x="219.5" y="546.5" width="241" height="66" rx="33" stroke="white" stroke-opacity="0.3" stroke-dasharray="4 4"/>
<g filter="url(#filter3_d)">
<rect x="988" y="547" width="240" height="65" rx="32.5" stroke="#A8E8EC" stroke-width="2"/>
</g>
<rect x="599.5" y="546.5" width="241" height="66" rx="33" stroke="white" stroke-opacity="0.3" stroke-dasharray="4 4"/>
<rect x="1367.5" y="546.5" width="241" height="66" rx="33" stroke="white" stroke-opacity="0.3"/>
<rect x="477.5" y="546.5" width="105" height="66" rx="33" stroke="white" stroke-opacity="0.3" stroke-dasharray="4 4"/>
<rect x="98.5" y="546.5" width="105" height="66" rx="33" stroke="white" stroke-opacity="0.3" stroke-dasharray="4 4"/>
<rect x="1245.5" y="546.5" width="105" height="66" rx="33" stroke="white" stroke-opacity="0.3"/>
<rect x="857.5" y="546.5" width="105" height="66" rx="33" stroke="white" stroke-opacity="0.3" stroke-dasharray="4 4"/>
<rect x="-159.5" y="546.5" width="241" height="66" rx="33" stroke="white" stroke-opacity="0.3" stroke-dasharray="4 4"/>
<g filter="url(#filter4_d)">
<rect x="220" y="703" width="240" height="65" rx="32.5" stroke="#A8E8EC" stroke-width="2"/>
</g>
<rect x="987.5" y="702.5" width="241" height="66" rx="33" stroke="white" stroke-opacity="0.3" stroke-dasharray="4 4"/>
<rect x="599.5" y="702.5" width="241" height="66" rx="33" stroke="white" stroke-opacity="0.3" stroke-dasharray="4 4"/>
<rect x="1367.5" y="702.5" width="241" height="66" rx="33" stroke="white" stroke-opacity="0.3" stroke-dasharray="4 4"/>
<rect x="477.5" y="702.5" width="105" height="66" rx="33" stroke="white" stroke-opacity="0.3" stroke-dasharray="4 4"/>
<rect x="98.5" y="702.5" width="105" height="66" rx="33" stroke="white" stroke-opacity="0.3" stroke-dasharray="4 4"/>
<rect x="1245.5" y="702.5" width="105" height="66" rx="33" stroke="white" stroke-opacity="0.3" stroke-dasharray="4 4"/>
<rect x="857.5" y="702.5" width="105" height="66" rx="33" stroke="white" stroke-opacity="0.3" stroke-dasharray="4 4"/>
<rect x="-159.5" y="702.5" width="241" height="66" rx="33" stroke="white" stroke-opacity="0.3" stroke-dasharray="4 4"/>
<g filter="url(#filter5_d)">
<rect x="432" y="79" width="240" height="65" rx="32.5" stroke="#FFC1A6" stroke-width="2"/>
</g>
<rect x="331.5" y="0.5" width="241" height="66" rx="33" stroke="white" stroke-opacity="0.3" stroke-dasharray="4 4"/>
<rect x="1199.5" y="78.5" width="241" height="66" rx="33" stroke="white" stroke-opacity="0.3" stroke-dasharray="4 4"/>
<rect x="1099.5" y="0.5" width="241" height="66" rx="33" stroke="white" stroke-opacity="0.3" stroke-dasharray="4 4"/>
<rect x="1365.5" y="0.5" width="241" height="66" rx="33" stroke="white" stroke-opacity="0.3" stroke-dasharray="4 4"/>
<rect x="811.5" y="78.5" width="241" height="66" rx="33" stroke="white" stroke-opacity="0.3" stroke-dasharray="4 4"/>
<rect x="711.5" y="0.5" width="241" height="66" rx="33" stroke="white" stroke-opacity="0.3" stroke-dasharray="4 4"/>
<rect x="689.5" y="78.5" width="105" height="66" rx="33" stroke="white" stroke-opacity="0.3" stroke-dasharray="4 4"/>
<rect x="589.5" y="0.5" width="105" height="66" rx="33" stroke="white" stroke-opacity="0.3" stroke-dasharray="4 4"/>
<rect x="310.5" y="78.5" width="105" height="66" rx="33" stroke="white" stroke-opacity="0.3" stroke-dasharray="4 4"/>
<rect x="210.5" y="0.5" width="105" height="66" rx="33" stroke="white" stroke-opacity="0.3" stroke-dasharray="4 4"/>
<rect x="1069.5" y="78.5" width="105" height="66" rx="33" stroke="white" stroke-opacity="0.3" stroke-dasharray="4 4"/>
<rect x="969.5" y="0.5" width="105" height="66" rx="33" stroke="white" stroke-opacity="0.3" stroke-dasharray="4 4"/>
<rect x="52.5" y="78.5" width="241" height="66" rx="33" stroke="white" stroke-opacity="0.3" stroke-dasharray="4 4"/>
<rect x="-47.5" y="0.5" width="241" height="66" rx="33" stroke="white" stroke-opacity="0.3" stroke-dasharray="4 4"/>
<rect x="431.5" y="468.5" width="241" height="66" rx="33" stroke="white" stroke-opacity="0.3" stroke-dasharray="4 4"/>
<rect x="1199.5" y="468.5" width="241" height="66" rx="33" stroke="white" stroke-opacity="0.3" stroke-dasharray="4 4"/>
<rect x="811.5" y="468.5" width="241" height="66" rx="33" stroke="white" stroke-opacity="0.3" stroke-dasharray="4 4"/>
<rect x="689.5" y="468.5" width="105" height="66" rx="33" stroke="white" stroke-opacity="0.3" stroke-dasharray="4 4"/>
<rect x="310.5" y="468.5" width="105" height="66" rx="33" stroke="white" stroke-opacity="0.3" stroke-dasharray="4 4"/>
<rect x="1069.5" y="468.5" width="105" height="66" rx="33" stroke="white" stroke-opacity="0.3" stroke-dasharray="4 4"/>
<rect x="52.5" y="468.5" width="241" height="66" rx="33" stroke="white" stroke-opacity="0.3" stroke-dasharray="4 4"/>
<rect x="219.5" y="312.5" width="241" height="66" rx="33" stroke="white" stroke-opacity="0.3" stroke-dasharray="4 4"/>
<rect x="987.5" y="312.5" width="241" height="66" rx="33" stroke="white" stroke-opacity="0.3" stroke-dasharray="4 4"/>
<rect x="599.5" y="312.5" width="241" height="66" rx="33" stroke="white" stroke-opacity="0.3" stroke-dasharray="4 4"/>
<rect x="1367.5" y="312.5" width="241" height="66" rx="33" stroke="white" stroke-opacity="0.3" stroke-dasharray="4 4"/>
<rect x="477.5" y="312.5" width="105" height="66" rx="33" stroke="white" stroke-opacity="0.3" stroke-dasharray="4 4"/>
<rect x="98.5" y="312.5" width="105" height="66" rx="33" stroke="white" stroke-opacity="0.3" stroke-dasharray="4 4"/>
<rect x="1245.5" y="312.5" width="105" height="66" rx="33" stroke="white" stroke-opacity="0.3" stroke-dasharray="4 4"/>
<rect x="857.5" y="312.5" width="105" height="66" rx="33" stroke="white" stroke-opacity="0.3" stroke-dasharray="4 4"/>
<rect x="-159.5" y="312.5" width="241" height="66" rx="33" stroke="white" stroke-opacity="0.3" stroke-dasharray="4 4"/>
<defs>
<filter id="filter0_d" x="1014" y="214" width="146" height="107" filterUnits="userSpaceOnUse" color-interpolation-filters="sRGB">
<feFlood flood-opacity="0" result="BackgroundImageFix"/>
<feColorMatrix in="SourceAlpha" type="matrix" values="0 0 0 0 0 0 0 0 0 0 0 0 0 0 0 0 0 0 127 0"/>
<feOffset/>
<feGaussianBlur stdDeviation="10"/>
<feColorMatrix type="matrix" values="0 0 0 0 1 0 0 0 0 0.756863 0 0 0 0 0.65098 0 0 0 0.25 0"/>
<feBlend mode="normal" in2="BackgroundImageFix" result="effect1_dropShadow"/>
<feBlend mode="normal" in="SourceGraphic" in2="effect1_dropShadow" result="shape"/>
</filter>
<filter id="filter1_d" x="-12" y="370" width="282" height="107" filterUnits="userSpaceOnUse" color-interpolation-filters="sRGB">
<feFlood flood-opacity="0" result="BackgroundImageFix"/>
<feColorMatrix in="SourceAlpha" type="matrix" values="0 0 0 0 0 0 0 0 0 0 0 0 0 0 0 0 0 0 127 0"/>
<feOffset/>
<feGaussianBlur stdDeviation="10"/>
<feColorMatrix type="matrix" values="0 0 0 0 1 0 0 0 0 0.756863 0 0 0 0 0.65098 0 0 0 0.25 0"/>
<feBlend mode="normal" in2="BackgroundImageFix" result="effect1_dropShadow"/>
<feBlend mode="normal" in="SourceGraphic" in2="effect1_dropShadow" result="shape"/>
</filter>
<filter id="filter2_d" x="78" y="136" width="146" height="107" filterUnits="userSpaceOnUse" color-interpolation-filters="sRGB">
<feFlood flood-opacity="0" result="BackgroundImageFix"/>
<feColorMatrix in="SourceAlpha" type="matrix" values="0 0 0 0 0 0 0 0 0 0 0 0 0 0 0 0 0 0 127 0"/>
<feOffset/>
<feGaussianBlur stdDeviation="10"/>
<feColorMatrix type="matrix" values="0 0 0 0 1 0 0 0 0 0.756863 0 0 0 0 0.65098 0 0 0 0.25 0"/>
<feBlend mode="normal" in2="BackgroundImageFix" result="effect1_dropShadow"/>
<feBlend mode="normal" in="SourceGraphic" in2="effect1_dropShadow" result="shape"/>
</filter>
<filter id="filter3_d" x="967" y="526" width="282" height="107" filterUnits="userSpaceOnUse" color-interpolation-filters="sRGB">
<feFlood flood-opacity="0" result="BackgroundImageFix"/>
<feColorMatrix in="SourceAlpha" type="matrix" values="0 0 0 0 0 0 0 0 0 0 0 0 0 0 0 0 0 0 127 0"/>
<feOffset/>
<feGaussianBlur stdDeviation="10"/>
<feColorMatrix type="matrix" values="0 0 0 0 0.658824 0 0 0 0 0.909804 0 0 0 0 0.92549 0 0 0 0.25 0"/>
<feBlend mode="normal" in2="BackgroundImageFix" result="effect1_dropShadow"/>
<feBlend mode="normal" in="SourceGraphic" in2="effect1_dropShadow" result="shape"/>
</filter>
<filter id="filter4_d" x="199" y="682" width="282" height="107" filterUnits="userSpaceOnUse" color-interpolation-filters="sRGB">
<feFlood flood-opacity="0" result="BackgroundImageFix"/>
<feColorMatrix in="SourceAlpha" type="matrix" values="0 0 0 0 0 0 0 0 0 0 0 0 0 0 0 0 0 0 127 0"/>
<feOffset/>
<feGaussianBlur stdDeviation="10"/>
<feColorMatrix type="matrix" values="0 0 0 0 0.658824 0 0 0 0 0.909804 0 0 0 0 0.92549 0 0 0 0.25 0"/>
<feBlend mode="normal" in2="BackgroundImageFix" result="effect1_dropShadow"/>
<feBlend mode="normal" in="SourceGraphic" in2="effect1_dropShadow" result="shape"/>
</filter>
<filter id="filter5_d" x="411" y="58" width="282" height="107" filterUnits="userSpaceOnUse" color-interpolation-filters="sRGB">
<feFlood flood-opacity="0" result="BackgroundImageFix"/>
<feColorMatrix in="SourceAlpha" type="matrix" values="0 0 0 0 0 0 0 0 0 0 0 0 0 0 0 0 0 0 127 0"/>
<feOffset/>
<feGaussianBlur stdDeviation="10"/>
<feColorMatrix type="matrix" values="0 0 0 0 1 0 0 0 0 0.756863 0 0 0 0 0.65098 0 0 0 0.25 0"/>
<feBlend mode="normal" in2="BackgroundImageFix" result="effect1_dropShadow"/>
<feBlend mode="normal" in="SourceGraphic" in2="effect1_dropShadow" result="shape"/>
</filter>
</defs>
</svg>
